<mxfile host="app.diagrams.net" modified="2023-12-13T05:24:31.401Z" agent="Mozilla/5.0 (Windows NT 10.0; Win64; x64) AppleWebKit/537.36 (KHTML, like Gecko) Chrome/119.0.0.0 Safari/537.36" etag="ZH3Yj9ccZkpQ3aOw4fk_" version="22.1.8" type="device">
  <diagram name="Page-1" id="-BFVtnLlSC2XYBmhz1a9">
    <mxGraphModel dx="3783" dy="1560" grid="1" gridSize="10" guides="1" tooltips="1" connect="1" arrows="1" fold="1" page="1" pageScale="1" pageWidth="850" pageHeight="1100" math="0" shadow="0">
      <root>
        <mxCell id="0" />
        <mxCell id="1" parent="0" />
        <mxCell id="x4foHunh-fA2Mw2qe-4b-1" value="" style="shape=image;verticalLabelPosition=bottom;labelBackgroundColor=default;verticalAlign=top;aspect=fixed;imageAspect=0;image=data:image/jpeg,/9j/4AAQSkZJRgABAQAAAQABAAD/4gHYSUNDX1BST0ZJTEUAAQEAAAHIbGNtcwIQAABtbnRyUkdCIFhZWiAH4gADABQACQAOAB1hY3NwTVNGVAAAAABzYXdzY3RybAAAAAAAAAAAAAAAAAAA9tYAAQAAAADTLWhhbmSdkQA9QICwPUB0LIGepSKOAAAAAAAAAAAAAAAAAAAAAAAAAAAAAAAAAAAAAAAAAAlkZXNjAAAA8AAAAF9jcHJ0AAABDAAAAAx3dHB0AAABGAAAABRyWFlaAAABLAAAABRnWFlaAAABQAAAABRiWFlaAAABVAAAABRyVFJDAAABaAAAAGBnVFJDAAABaAAAAGBiVFJDAAABaAAAAGBkZXNjAAAAAAAAAAV1UkdCAAAAAAAAAAAAAAAAdGV4dAAAAABDQzAAWFlaIAAAAAAAAPNUAAEAAAABFslYWVogAAAAAAAAb6AAADjyAAADj1hZWiAAAAAAAABilgAAt4kAABjaWFlaIAAAAAAAACSgAAAPhQAAtsRjdXJ2AAAAAAAAACoAAAB8APgBnAJ1A4MEyQZOCBIKGAxiDvQRzxT2GGocLiBDJKwpai5+M+s5sz/WRldNNlR2XBdkHWyGdVZ+jYgskjacq6eMstu+mcrH12Xkd/H5////2wBDAAwICQsJCAwLCgsODQwOEh4UEhEREiUbHBYeLCcuLisnKyoxN0Y7MTRCNCorPVM+QkhKTk9OLztWXFVMW0ZNTkv/2wBDAQ0ODhIQEiQUFCRLMisyS0tLS0tLS0tLS0tLS0tLS0tLS0tLS0tLS0tLS0tLS0tLS0tLS0tLS0tLS0tLS0tLS0v/wAARCALzAjMDASIAAhEBAxEB/8QAHwAAAQUBAQEBAQEAAAAAAAAAAAECAwQFBgcICQoL/8QAtRAAAgEDAwIEAwUFBAQAAAF9AQIDAAQRBRIhMUEGE1FhByJxFDKBkaEII0KxwRVS0fAkM2JyggkKFhcYGRolJicoKSo0NTY3ODk6Q0RFRkdISUpTVFVWV1hZWmNkZWZnaGlqc3R1dnd4eXqDhIWGh4iJipKTlJWWl5iZmqKjpKWmp6ipqrKztLW2t7i5usLDxMXGx8jJytLT1NXW19jZ2uHi4+Tl5ufo6erx8vP09fb3+Pn6/8QAHwEAAwEBAQEBAQEBAQAAAAAAAAECAwQFBgcICQoL/8QAtREAAgECBAQDBAcFBAQAAQJ3AAECAxEEBSExBhJBUQdhcRMiMoEIFEKRobHBCSMzUvAVYnLRChYkNOEl8RcYGRomJygpKjU2Nzg5OkNERUZHSElKU1RVVldYWVpjZGVmZ2hpanN0dXZ3eHl6goOEhYaHiImKkpOUlZaXmJmaoqOkpaanqKmqsrO0tba3uLm6wsPExcbHyMnK0tPU1dbX2Nna4uPk5ebn6Onq8vP09fb3+Pn6/9oADAMBAAIRAxEAPwD1WiiigAooooAKKKKACiiigAooooAKKKKACiiigDFuPFmiWtxJBPfoksTFXUo3BHXtTP8AhMtA/wCglF/3y3+FZ3w9tLefwvA81vFI5kfLOgJPzH1rpP7Nsf8Anzt/+/S/4UAZv/CY6B/0E4vyb/Cl/wCEv0H/AKCcP6/4Vof2XYf8+Nt/35X/AApP7K0//nwtf+/K/wCFAFH/AIS7Qf8AoJwfmf8ACj/hLdC/6Cdv+dXf7I07/oH2n/flf8KP7H0z/oHWn/fhf8KAKf8Awlehf9BS3/76pf8AhKtD/wCgpbf991a/sXS/+gbZ/wDfhf8ACk/sTSv+gZZf+A6f4UAV/wDhKdD/AOgpa/8AfwUv/CT6J/0FLT/v4Km/sLSf+gXZf+A6f4Un9gaP/wBAqx/8Bk/woAj/AOEm0T/oK2n/AH9FH/CS6L/0FbP/AL/LT/8AhH9H/wCgTY/+Ayf4Uf8ACPaN/wBAmx/8B0/woAb/AMJJov8A0FbP/v8AL/jR/wAJHov/AEFbL/v+v+NL/wAI7o3/AECbH/wHX/Cj/hHNG/6BVl/34X/CgA/4SLRv+grZf9/1/wAaP+Ei0b/oLWP/AIEL/jSf8I5ov/QKsv8Avwv+FH/CN6L/ANAqz/78r/hQA7/hIdG/6C1j/wCBCf40f8JBo/8A0FrH/wACU/xpn/CNaL/0CrP/AL8ik/4RnRP+gVaf9+hQBL/b+j/9BWx/8CU/xpf7e0j/AKCtj/4EJ/jUP/CMaJ/0CrT/AL9Ck/4RfRP+gXa/9+xQBP8A27pP/QUsv/AhP8aX+3NK/wCgnZf+BCf41X/4RbQ/+gXa/wDfsUn/AAiuh/8AQLtv++KALP8AbWl/9BKz/wC/6f40v9s6Z/0ErP8A7/r/AI1V/wCEU0L/AKBdt/3zSf8ACJ6F/wBAu3/75oAuf2xpn/QRtP8Av+v+NH9r6b/0ELT/AL/L/jVL/hEtC/6Blv8AkaP+ER0H/oGQfkf8aAL39q6f/wA/9r/3+X/Gl/tSw/5/rb/v8v8AjWf/AMIhoP8A0DIf1/xpP+EP0D/oGQ/m3+NAGl/aVj/z+23/AH9X/Gl/tGy/5/Lf/v6v+NZf/CG6B/0DYv8Avpv8aT/hDPD/AP0DY/8Avpv8aANX7fZ/8/cH/fwf40v260/5+of+/grJ/wCEL8P/APQNT/vt/wDGk/4Qrw9/0DU/7+P/AI0AbH2y1/5+Yf8Av4KX7Xb/APPxF/32Kxf+EI8Pf9A1f+/r/wCNJ/wg/h7/AKBw/wC/sn/xVAG59pg/57x/99inJLHIcJIrH0BzWB/wg3h3/oHD/v8ASf8AxVYK6VZ6N8SNKt9Ph8mF7ZnZd7NltsgzyT6CgD0CiiigAooooAKKKKACiiigAooooAKKKKACiiigAooooAKKKKACiiigAooooAKKKKACiiigAooooAKKKKACiiigAooooAKKKKAOX+G//IqW/wD10k/9CNdJNNHbxNLNIsca9WY4Arm/hv8A8ipb/wDXST/0I105AIweQaAKA1i32GRkuI4hwrSQshdv7qoRvY/Ree1Vb/WXijgkRfskEkm0z3kTBenAIyCmTxlsYPY5FXY9Ks4hKixExSrsaFnZotvoIydoH0AqKTS5IkIsLloic7luS9whzjjaXGBxwAQOaAHDVYoYwt4SlwkcbSqkbsq7jgYIHIz37d8VDY61C6yR3UgE8Rk3bInCsFYj5euT04BJ5qKbQphbxw2l4kSrAIW8yHfnacgjDDAz29OmKl/seRvNSW4ieElzEhgztL53bskhhycDA4POetAE6axZu+1HkY+W0nELkbVOG5xjIPbr7VHea7aWsUr/AL53jAJjWFyx5A6Y9xn0qOOzMZs7aSWSSeJmcyLEwTYc5XJJwOnG4nj0on0eWWW7dLmOMXC8BYSPmyMM+Gw2MAdAcd6AJ5dasYWcSSSLsXex8l8Y7jOOo7jqO9EOtWM8qxRSs0jMVC+Ww5xnqRgZHIJ4PbNZ8/hsvNdSxSWcctyrZlNkGlDMMH592dvXjr744qf+yb0z+Y97bkGdZSFtmBwE24z5nH1oAtJq0LFo/JuEuAOIJI9jOepClsKxH+ySKltNQt7tikbOsi8mOWNo3x67WAJHv0pkWl2sMUkaCbMi7WkaeRpSPTzCdw79+KmtLSGzjKQIRk5ZmYszHplmOST7k0AT0UUUAFFFFABRRRQAUUUUAFFFFABRRRQAUUUUAFFFFABRRRQAUUUUAFFFFABXF6p/yVHR/wDr0b+UtdpXJauo/wCFiaE2BuMEoJxzja/+NAHW0UUUAFFFFABRRRQAUUUUAFFFFABRRRQAUUUUAFFFFABRRRQAUUUUAFFFFABRRRQAUUUUAFFFFABRRRQAUUUUAFFFFABRRRQBy/w3/wCRUt/+ukn/AKEa6iuX+G//ACKlv/10k/8AQjXUUAFYOu3M0Go2qC+vreGSJyy2lssxJBXBx5bnufbpW9WffaY13dxXMd/dWrxoUAhEZGDjP3kb0H5UAVYtcWCxspLpGkM5CGWMoFBLbRnLdT6Lk9eKbda0ZrO6EEVzaypFIySOqY3IcMOpz27Y54OejpPDcDJAsd5dQ+Uu0svlsXy24kllPJbk4xmiTw6skRjbUb3aVlU/6rOJDlv4KANGyu/tasyxSLGMbJGK7ZR6rgk4+oFZqaot1qt1YQajCJGRgioUZ4WUgEke+e/pV6z082cUkUd1OyN9wME/df7uFHfnByPw4pjaXmCzjF5cK1q+4SAJufgghvlxznsBQBnpHqC2l/INYuXaIuib4oeCMEHhB+P9Kmvb+4fSYzDIYLpmCSOqglCGCtgEEdTxkd6srpJW1u4Pt90ftLli5Ee5M9QvyY/MGkutHS4SUC5uIXlKF5E2ZJX2KkDOBnjtQBogYABOfc0tIBgAE59zS0AFFFFABRRRQAUUUUAFFFFABRRRQAUUUUAFFFFABRRRQAUUUUAFFFFABRRRQAVyer/8lC0H/rjL/wCgtXWVyer/APJQtB/64y/+gtQB1lFFFABRRRQAUUUUAFFFFABRRRQAUUUUAFFFFABRRRQAUUUUAFFFFABRRRQAUUUUAFFFFABRRRQAUUUUAFFFFABRRRQAUUUUAcv8N/8AkVLf/rpJ/wChGuorl/hv/wAipb/9dJP/AEI11FABRRRQAUUUUAFFFFABRRRQAUUUUAFFFFABRRRQAUUUUAFFFFABRRRQAUUUUAFFFFABRRRQAUUUUAFFFFABRRRQAVyer/8AJQtB/wCuMv8A6C1dZXJ6v/yULQf+uMv/AKC1AHWUUUUAFFFFABRRRQAUUUUAFFFFABRRRQAUUUUAFFFFABRRRQAUUUUAFFFFABRRRQAUUUUAFFFFABRRRQAUUUUAFFFFABRRRQBy/wAN/wDkVLf/AK6Sf+hGuorl/hv/AMipb/8AXST/ANCNdRQAUUUUAFFFFABRRRQAUUUUAFFFFABRTZHSKNpJGCooJZicAD1rlW1TUvE0hh0QtZ6cGxJfuPmfHURj+v8AKgDX1jxFpmigC8uAJT0iQbnP4D+tZK+Itb1I50fQnSLtNetsBH+7/gTWno/hnTdJbzYojNcnlriY73J9c9vwrYoA5cWXi665m1Wysgf4YIN//oQ/rS/8I/rr/wCs8UTf8AtVX+tdPRQBzH9heIY/9V4oc+z2iH+tIU8Y2f3ZdN1Bf9tTGx/LArqKKAOUHjGSwITXtJurE9PNQeZGfxH/ANeuisNQtNSgE9lcJPGe6Hp9R2qwyh1KsAVPBBHBrnb7wlB5zXmjTPpl71DQ/wCrY+jL0xQB0dFc9pOvzi8TS9ct/sl+R+7cf6qf3U+vt/8AqroaACiiigAooooAKKKKACiiigAooooAK5PV/wDkoWg/9cZf/QWrrK5jUgD4+0gkA4tpSPbg0AdPRRRQAUUUUAFFFFABRRRQAUUUUAFFFFABRRRQAUUUUAFFFFABRRRQAUUUUAFFFFABRRRQAUUUUAFFFFABRRRQAUUUUAFFFFAHL/Df/kVLf/rpJ/6Ea6iuX+G//IqW/wD10k/9CNdRQAUUUUAFFFFABRRRQAUUUUAFFFNdlRSzsFVRkknAAoA5bXzLr+uR6DDKyWcSCa+ZDgkfwpn/AD19q6a2t4rWCOCBFjijUKir0ArmvA1xHqEutahGci4vSF9dgA2/oa6qgAooooAxrNr/AFCM3kV4YlaRlW3MalNitjJON24gHnOOelMtNbW3hmF8ZsQ+axuHVVVgjkY4xyBjnAHv1q4mlLHcM8dzcJA7F2tgV8ssTkn7u4c84Bx7VAPD8fAkvbuRB5mVYoM7zk8hQeD0waAG23iO2u7ZZrSCe5Ylg0cJRygGMnIbaeo+6SeeBUmnX8jTy27Ca5ZZ3DSAIPKXqu7p9BgE+vrTzpLERsdRvDOmR5+U3MpxlSNu3HA6AH3ptpoq2l21xHe3RZ5Gdw3l4cH+E/LnA7c596ANSiiigDN17R4da09reX5ZB80Uo6xuOhBqn4Q1WbULGS3vjjULJzDcA9SR0b8f6VvVydnLFa/ES+h3AG7tEcD1ZccfXAJoA6yiiigAooooAKKKKACiiigAooooAK5jUf8AkftI/wCvWX+tdPXMaj/yP2kf9esv9aAOnooooAKKKKACiiigAooooAKKKKACiiigAooooAKKKKACiiigAooooAKKKKACiiigAooooAKKKKACiiigAooooAKKKKACiiigDl/hv/yKlv8A9dJP/QjXUVy/w3/5FS3/AOukn/oRrqKACiiigAooooAKKKKACiiigArlvFNzLqd5D4csXKvcDfdyL/yyh/xP+etbOu6rFoumS3k3JUYRO7uegqj4T0mWytZb2/8Am1K+bzZyRyvon4UAUNGSPw74ouNK2hLW+RZbU+6jBX68V1tZPiPQ4tcshGXMVxEd8Ey9Y2/wqjoniKRJU0vX0+yakowrtxHcD1U9M+3/AOoAHSVz+vIzarZgRahOHik3RWl2YehXBPzoO59+a6CqN7pNrfTpPMbgSIpVWiuZIsA9fusKAMyLW3trKw3KtyZDtkYyEOPn2/d25JBOCTtHvzTf7Wk0y0Y7DcD7VMD5k7Fgof8AhGGJxn2AA5IFaEmgafJHFH5UqJCoVRFcSR5AOedrDdzzzmkl8PafLGUZLjaWZjtu5VJ3HLAkNnBI6dKAIhrc0ckn2izVIUaVd6zbixQbuBgcEep4PqOaS91m7sbdDPp2biR9sccTvKrLjOcohYen3evfHNWI9BsEcMEmbDs+HuZGBLDDZBbBBHY8U7+xbLyBDtmwG3K/2iTep6cPu3AY4wDigBtrqj3F6tu1s0IeMOpkO1ugJ+UjnGccZx3xxnSqpDp1tDcCeNGDgYA8xio4xnbnGcDGcZqeaaO3ieWaRY40GWZjgAfWgBzsqKWYhVUZJPQCvNblLnUJL7xfaggW1yht1/vxJ8rH8f6Gty7vLjxi/wBi01ZIdID4ubwjaZgP4EHp6n/J6iGyt4bIWUcSrbBPL8sdNvpQA60uY7y1iuYW3RTIHU+xGamrl/Bcj2TX2gzsTJp8pMRP8UTcqf8APqK6igAooooAKKKKACiiigAooooAK5jUf+R+0j/r1l/rXT1zGo/8j9pH/XrL/WgDp6KKKACiiigAooooAKKKKACiiigAooooAKKKKACiiigAooooAKKKKACiiigAooooAKKKKACiiigAooooAKKKKACiiigAooooA5f4b/8AIqW//XST/wBCNdRXL/Df/kVLf/rpJ/6Ea6igAooooAKKKKACiiigAoorm/Ft/PIYND05sX1/wzD/AJZRfxMf1/WgCraj/hKvERvGG7StMYrAD0ml7t7gf4eprrqq6ZYQaXYQ2dsu2KJcD3Pcn3J5q1QAVT1TS7PVrY299AssZ6Z6qfUHtVyigDlhpWvaI3/EouxqFp/z63bfMo/2X/xp6eMYrUhNa0+701/7zIXjP0YdfyrpqQgMCCAQeoNAGZa+JNGux+51O2J9GkCn8jg1cS9tZPuXMLfSQGql14d0i8OZ9Ntmb+8IwCfxFUn8E+Hn66av4SOP5GgDXfUbKP795br/AL0qj+tZ134t0K0z5mpQuR2iJk/9BzUaeDPD6dNNjP8AvMx/ma0rPSrCxx9ksreEjukYB/OgDEPiXUdQ40TRZ5FPSe6/dJ9QOppIfC9xqMiz+JL5rtgci1iJSFfw711FFADI40ijWOJFRFGFVRgAfSn0UUAcr4n/AOJRrem68vEWfst3/uN0J+h/pXU9aqaxp6applzZS/dmQrn0PY/gcGs3wZqEl5oyw3PF3ZMbaYHrleAfyx+tAG9RRRQAUUUUAFFFFABRRRQAVzGo/wDI/aR/16y/1rp65jUf+R+0j/r1l/rQB09FFFABRRRQAUUUUAFFFFABRRRQAUUUUAFFFFABRRRQAUUUUAFFFFABRRRQAUUUUAFFFFABRRRQAUUUUAFFFFABRRRQAUUUUAcv8N/+RUt/+ukn/oRrqK5f4b/8ipb/APXST/0I11FABRRRQAUUUUAFFFFAFTVNQg0uwmvLltscS5PqT2A9yeKxvCOnzt5+t6iv+nah8wU/8sov4VH6fpVW5/4qrxELUfNpOlvum9Jpuy+4H+PqK66gAooooAKKKKACiiigAooooAKKKKACiiigAooooAK5WX/iSeNUkHy2mspsb0Ey9Pz/AJk11VYni/TW1LRJhDn7TbkTwEdQ688fUZFAG3RWfoOpJq+kWt6uMyoN4HZhww/PNaFABRRRQAUUUUAFFFFABXMaj/yP2kf9esv9a6euY1H/AJH7SP8Ar1l/rQB09FFFABRRRQAUUUUAFFFFABRRRQAUUUUAFFFFABRRRQAUUUUAFFFFABRRRQAUUUUAFFFFABRRRQAUUUUAFFFFABRRRQAUUUUAcv8ADgY8KwD/AKaSf+hGuormPhz/AMitD/10k/8AQjXT0AFFFFABRRRQAVg+LNVms7aKxsPm1K/byoAD9z1c/T/PSti7uYrK1lubhwkUSlmY9gK53wrbS6ldzeI75CslyNlpGf8AllD2/E/560AbGhaVDoumQ2cPOwZd+7seprQoooAKKKKACiiigAooooAKKKKACiiigAooooAKKKKACiiigDldA/4k3iXUdGb5be5/0u19OfvKP89q6quZ8bQSQQWmtWy5n0yUOQP4ozww/wA+9dDbTx3VvFPC26OVA6n1BGRQBLRRRQAUUUUAFFFFABXMaj/yP2kf9esv9a6euY1H/kftI/69Zf60AdPRRRQAUUUUAFFFFABRRRQAUUUUAFFFFABRRRQAUUUUAFFFFABRRRQAUUUUAFFFFABRRRQAUUUUAFFFFABRRRQAUUUUAFFFFAHMfDn/AJFaH/rpJ/6Ea6euY+HP/IrQ/wDXST/0I109ABRRRQAUUVjeKNYbSNPH2dfMvrlvKtowMlnPfHoP8KAMvWmbxLriaJCT9gtCJb5x/Ef4Y/8AP9K6xVVFCqAqqMAAYAFZXhrR10XTFhZvMuZD5lxIeruevP6VrUAFFFFABRRRQAUUUUAFFFFABRRRQAUUUUAFFFFABRRRQAUUUUARzwpcQyQyqGjkUqwPcEYIrnPBUz2qXmh3DEzabKQhPVom5U/59RXT1yviP/iTeINO1teIZT9ku/Tafusfof5CgDqqKKKACiiigAooooAK5jUf+R+0j/r1l/rXT1zGo/8AI/aR/wBesv8AWgDp6KKKACiiigAooooAKKKKACiiigAooooAKKKKACiiigAooooAKKKKACiiigAooooAKKKKACiiigAooooAKKKKACiiigAooooA5j4c/wDIrQ/9dJP/AEI109cx8Of+RWh/66Sf+hGunoAKKKKAGSyJDE8kjBURSzMegA6muW8PxPr+ryeILlCLePMVhGw6L3f6n/H0FO8TTSa1qUXhyzcqjYlvpF/gj6hfqf8AD3rpreCO2gjhhQJFGoVFHQAdBQBJRRRQAUUUUAFFFFABRRXL6j4mmu7ptO8NxLeXQ/1k5/1MI9z3P+eelAHRXV1b2cRlupo4Yx1aRgo/Wufn8b6b5ph0+G61KUdrWEsB+J/pmiz8IRyzC6165fVLr0k4iT2C/wCfpXRQQQ20YjgiSJB0VFCgfgKAObGt+I7rm08O+Uv965uAp/Lg0v2nxi/3bLSo/wDfkY/yNdPRQBzH2vxen3tN06T/AHJSP5mkPiXV7XjUPDV0AOrWziX9B/jXUUUAYGn+MdGvX8s3JtZs4MVyvlkH0yeP1reVgyhlIIIyCO9Vb7TLLUU2XtrDOP8AbQEj6HqK56Tw/qeh5l8OXjPCOTY3J3KfZT2/zzQB1lFYmg+JLfVma2lRrTUYv9bay8MPceorboAKKKKACqOt6cmraVc2UmMTIQpPZuoP4HFXqKAMPwbqL6hoka3GRdWpNvOp6hl45/DH61uVyv8AyBPG39201lPwEy/4j9TXVUAFFFFABRRRQAVzGo/8j9pH/XrL/WunrmNR/wCR+0j/AK9Zf60AdPRRRQAUUUUAFFFFABRRRQAUUUUAFFFFABRRRQAUUUUAFFFFABRRRQAUUUUAFFFFABRRRQAUUUUAFFFFABRRRQAUUUUAFFFFAHMfDn/kVof+ukn/AKEa6euY+HP/ACK0P/XST/0I109ABWZ4h1iPRNMkumG+U/JDH3kc9BWkSFBJIAHUmuT0wHxP4gbVHydN09jHaKekkneT/D8PQ0AaXhXSH0yyea7O/ULxvNuXPXJ6L+Gf51t0UUAFFFFABRRRQAUUUjMqKWYhVUZJJwAKAOa8UXV1fXkGgadJ5ctype5lHWKL/E9P/wBdbWlaZa6RZR2tnGEjQcnux9Se5rD8ISR6hqOuamjCQSXXkxvnPyIBjHscg11FABVHWri4tdNmntGiWVMEeahdevoCP51eqnq1pLfWEltBMkLyYG94y4Az6Aj+dAFWO9u7K78nVJLaSOSNnSaGNowNuMgqWb1yDn8Ke2v6eqqWeYFgxC/ZpNw24yCu3IPIODzjnpUM2izXyynVLqOdmiMUYig2IgOMnazNknA6nGO1VBp01jcWVrbfZ4XYSlnt9OZYVBC8YBwCcdS3Xt2oA2P7Us/PjhEpLSAbWCMUORkDfjbkjtnNRHWLRzH5czfNJsx5Dkk7S2OnBIGRnr26iootGaF1jjnX7GCjmJostvUAAhs4A+UcY/EVHDotxE0GLuILFcCXYICFwFIwBvwpOckjjPbrkAv6ZfJqVlHdRpIiv0WRGUj8CBVuqunWz2dokEkiybMhWVNvy54zyeff9BVqgDE8SaGdSjS6smEGp2x3wTDgk/3T6g/571N4b1ga1pizsnl3CMY54/7jjr/jWrXK6YVs/Hmq2ykKl3bpOEzwWHBOPXkmgDqqKKKACiiigDC8Zac9/okjW/F1aMLiBh1DLzx+Gf0q/ouopq2lW17HjEyAkD+FuhH4HNXq5Xw5/wASbX9R0NuIZD9rtP8AdP3lH0P8jQB1VFFFABRRRQAVzGo/8j9pH/XrL/WunrmNR/5H7SP+vWX+tAHT0UUUAFFFFABRRRQAUUUUAFFFFABRRRQAUUUUAFFFFABRRRQAUUUUAFFFFABRRRQAUUUUAFFFFABRRRQAUUUUAFFFFABRRRQBzHw5/wCRWh/66Sf+hGunrmPhz/yK0P8A10k/9CNbWs6nBo+nTXtwfkiXhc8sewH1oAxvFl5NdzQeH9OfF1ejMzj/AJZQ9yfr0/8A11vWFnDp9nDaWy7YYVCqP896xvCWmTwxTapqIzqOoHfJn/lmn8KD04/zxXQ0AFFFFABRRRQAUUVga14lW1uRp+mQ/b9UbgQoflj93Pb/AD0oA0dX1az0a1NxfTCNOijqzn0A71zy2Wp+LWWXUw9hpPVLVWxJMOxc9h7f/rq5pHhphdDUtbm+3aieVB/1cPso/rXR0Act4bji0fxBqmkBBEkpW5tlHQpjBA+h/lXU1h+JdHmv1gvdOk8rU7MloGPRvVD7GneH/EUGrKYJlNtqMXE1rJwwI6kZ6igDaooooA54XFw2vT2zalfKBKvlxrboYsbNxBfy/rxuzVt9eiSHzWtbnAjeQjCZARtrDG7qM5/zirdrY/Zru6uPtE0n2lgxR9u1CBjjCg9MdSapT+Ho5vM/068RXDqFUx4QOQWAynqO+TQBI+rrJC6pb3Sz7zGIwqbxwDu5OMYIPPPbGeKbpWrC4W1t5BJJcNAkjuFGBuBOSByOh7AZ4HfCnRB5jy/b7sStJv3jywR8oUj7uMEAdfTjFPttHjt5LVvtNxItqu2NHKkdMZztz09CAe+aANKiiigArzu5tLvW9Y1TXdKYiSwkRbU9pSg+dfcH+tbmr6zJq1w2jaDIHnbi5ul5S3Xvz3bt/njc0nToNJ0+GztVxHEMZPUnuT70AM0PVYdZ0yG8g4DjDKeqMOoNX65G5/4pTxD9rX5dJ1N9sw7Qy9m9gf8AH0FddQAUUUUAFcx41he1Wz1y3UmbTZQXA6tE3DD/AD6munqK5gjureWCZd0cqFGHqCMGgB0EqTwxzRMGjkUMrDuCMg0+uZ8EzyQ293o1y2bjTJTGCf4ozyp/z7V01ABRRRQAVzGo/wDI/aR/16y/1rp65jUf+R+0j/r1l/rQB09FFFABRRRQAUUUUAFFFFABRRRQAUUUUAFFFFABRRRQAUUUUAFFFFABRRRQAUUUUAFFFFABRRRQAUUUUAFFFFABRRRQAUUUUAcx8Of+RWh/66Sf+hGoP+Rq8R/3tJ0p/wAJp/6gf561i6Pqc8XhKz0rTjnUdQlkRMf8s03Hc59OP6+ld3o+mQaRp0Nlbj5IlwWxyx7k/WgC7RRRQAUUUUAFRzzRW8LzTyLHEgyzscAD3NUNb1yz0SAPdPmR+I4U5eQ+gFYsOj6h4klW68QbrezU7otORuvoZD6+38qACXVdR8TytbaFutdPDbZdQYYLeojH9f5VuaLolnott5VpH8zcySty8h9SavRRRwxrHEipGgwqqMAD2FPoAKKKKACsjXfD1rrGyUs1veREGK6i4df8R7Vr0UAcoupa/oPyaraHU7QdLq1X94B/tL/n61f0/wAXaLfnal8kUnQpP+7IPpzx+VblUb/RtN1I5vLKCZv7zIN359aALcciSoHjdXU9CpyKfXMv4F0YOWthc2jHqYJ2H880n/CGqn+p1zWY/pdf/WoA6eoLm7trRd1zcRQr6yOFH61z/wDwhUDf67WNXl/3rr/61S2/gfQoW3vaNO/dppGYn8M4oAS68aaVHIYbMzahcdo7WMvn8elVXsvEHiMH7fJ/ZOnt/wAsIjmVx/tHt/niumtLO2sovKtIIoI/7saBR+lT0AVNM0210q0W1soViiX06sfUnuat0UUAVdSsINTsZrO5XdFKuD7ehHuDzWJ4Sv54Xm0LUmze2PEbn/ltF2YfTgfl710tc74t02eRIdW00Y1Gw+ZQP+WifxIfXjP6+tAHRUVS0fU4NX06G9tz8kq5K55U9wfcVdoAKKKKAOV17/iTeJdP1hflt7n/AES69Ofusf8APauqrP1/TV1fSLqybGZU+Qnsw5U/niqvhDUm1PRIWmyLmAmCcHqHXjn6jB/GgDaooooAK5jUf+R+0j/r1l/rXT1zGo/8j9pH/XrL/WgDp6KKKACiiigAooooAKKKKACiiigAooooAKKKKACiiigAooooAKKKKACiiigAooooAKKKKACiiigAooooAKKKKACiiigAqvf3kOn2c13ctthhUsx/z3qxXJakT4o8QLpac6Zp7CS7YdJJOyf4/j6CgCn8MNKjWwfVZDvmlJjjz/yzQHnH1Oa7muY+HP8AyK0P/XST/wBCNdPQAUUVDeXcFjbvcXUqQwoMs7HAFAE1c3qviWR7ptN0CEXt/wBHcH91B7sf6f8A6qqNc6n4uYpYmXTtH6NcEYluB6KOw/z7V0elaXZ6RarbWMKxRjqR1Y+pPc0AZuieGo7Kc32oTG/1N/vTyDhPZR2H+eK3qKKACiiigAooooAKKKKACiiigAooooAKKKKACiiigAooooAKKKKAORb/AIpTxFu+7pGqP83pBN/QH/PSuuqnq2nQatp81lcjMcq4z3U9iPcGsjwlqM5E2jakf+JhYfLk/wDLWP8Ahcfp+lAHR0UUUAFcrF/xJPGskZ+W01lN6+gmXr+f8yK6qsHxpp8l5ozT23F3YsLmEjrleSPyz+lAG9RVPSL+PVNMtr2L7syBseh7j8DkVcoAK5jUf+R+0j/r1l/rXT1zGo/8j9pH/XrL/WgDp6KKKACiiigAooooAKKKKACiiigAooooAKKKKACiiigAooooAKKKKACiiigAooooAKKKKACiiigAooooAKKKKACiio7ieO2gknncJFGpZ2PQAdTQBj+K9Xk02ySGzG/ULxvKtkHXJ6t+Gf5VZ8PaRHommR2qnfKfnmk7yOeprI8MwyazqUviO8QqrZjsY2/gj6Fvqf8AGuqoA5j4c/8AIrQ/9dJP/QjXT1zHw6IHhaEk4Akk/wDQjSX3iG51K6fTvDSLNKpxLeNzFD9D3P8AnmgDR13xDa6OEjIa4vJeIrWLl3P9B71mWegXesXCX/iZg+35obBf9XF/vep/z7Vo6F4dttJLXDs11qEvMt1LyzH29BWzQAiqFUKoAAGAB2paKKACiiigAooooAKKKKACiiigAooooAKKKKACiiigAooooAKKKKACiiigArm/FunzoYdc01f9OsOWUf8ALaL+JT+v610lFAFTS9Qg1SwhvLZt0cq5HqD3B9weKt1yMP8AxSniHyD8ukao+Y+eIJu49gf89K66gApDz1paKAOV8L/8SjWtS0FuIgftVp/uN1A+h/rXVVy/jSN7J7HXoFJksJQJQP4om4Yf59a6WKRJo0kjYMjqGVh3B6GgB9cxqP8AyP2kf9esv9a6euY1H/kftI/69Zf60AdPRRRQAUUUUAFFFFABRRRQAUUUUAFFFFABRRRQAUUUUAFFFFABRRRQAUUUUAFFFFABRRRQAUUUjEKpYnAAyTQAjusalnYKo6knApQQwBBBB6EVxei6TH4ujbWdaLzxSuwtbbeVSJAcdup4/T8ny2Q8I6xp76dJINOv5xby2zuWVHboy5/zx+QB2VFFFABXJ+IJH1/V4/D9sxFtHiW/kU/w9k+p/wA9DWt4l1gaNprTKvmXMh8u3jHV3PTj9ab4X0dtI08/aG8y9uG825kJyWc9s+g/xoA1Yo0hjSONQqIoVVHQAdBUGpaja6Xatc3syxRL3PUn0A7ms3XfEkOmyrZ2sTXupSf6u2i5I92PYVV03w3NdXS6l4jlW7vBzHAP9VB7Adz/AJ560Ac54R0vUtd0WO2luPsujo7bxH/rLg5JIz2Hb/PHoNjY22nWyW1nCsMKdFUfr7msD4c/8itD/wBdJP8A0I109ABRRRQAUUUUAFFFFABRRRQAUUUUAFFFFABRRRQAUUUUAFFFFABRRRQAUUUUAFFFFABRRRQBR1rS4NZ02ayuB8sg4bHKN2IrN8JapPPFNpmo8alYHZJn/lov8Lj1yP8APNdBXM+LLGe1mh1/Tkzd2QxMg/5bRdwfp1//AFCgDpqKrafewajZQ3ds26GZdyn+n1qzQBDd20d5azW0y7opkKMPYjFYHgi5kSyuNJumzc6ZKYj/ALSfwn6Y/kK6WuV1r/iS+KrHVRxbXo+yXPoG/gY/56CgDqq5jUf+R+0j/r1l/rXT1zGo/wDI/aR/16y/1oA6eiiigAooooAKKKKACiiigAooooAKKKKACiiigAooooAKKKKACiiigAooooAKKKKACiiigAoorJ1mbW4pYxpFtazRlTvM7kEH2waAMFJ73wQtxFJZveaNvMkUsRG6EE/dYfU9f8ixbxah4m1Syvby0ax02zYTQxuQXmfsT6Af59s/xVceJX8P3i39lYx2xUeY0chLAbh059av2V14tFnAItP04xiNdpMrZIxx3oA62kZlRSzEKqjJJOABWfo0uqyxSHV4LeGQMNggYkEe+a5v4ga7FEI9HWYx+fg3ToMssf8AdA9T/ng0AT6QR4g1mTXrkhdOst0dkH4Bx96Q/wCf5U641y+8QTvZeGx5cCnbNqEi/Kvsnqf8+9V7DRb3X4IF1CNtP0WIAQ2CHDyAdC5/z/Wuvt7eK1gSC3jWKKMYVFGABQBQ0PQLPRImEAMk8nMs8hy8h9z/AErUoooA5j4c/wDIrQ/9dJP/AEI109cx8Of+RWh/66Sf+hGunoAKKKKACiiigAooooAKKKKACiiigAoorF1rxHb6bKtpBG95qEn3LaLk/Vj2FAG1WTqHibRtNYrdahCHHVEJdh+C5xWSdB1jXW369fG2t+os7Q4H/Am7/rWvpvhvSdLA+y2MQYfxsNzfmaAMweN7Wf8A5B+m6le/7UVv8tL/AMJRqLf6vwzqB/38L/SunooA5j/hKr5P9b4a1Mf7ib6VfHWlIwW9jvLFvS4tyP5Zrpqa6JIpV1VlPUMMigCrp+q2GpJusruGf2RuR9R1FXK5/UfBuj3reYtubSfqJbY7CD646fpVIHxD4bUlz/bOnoOo4nQf+zfr+FAHW0VS0nVrPWLUXFjMJE6MOjIfQjsau0AFFFFABRRRQAUhAIweQaWigDkbI/8ACK+IDYP8ulakxa2J6Qy90+h7fh7111Z+vaTFrWmS2c3ylvmjcdUcdDVHwnq017by2V/8upWLeVOCfv8Ao4+v+etAG9Wb4i0tdY0a5szje65jJ7OOR+taVFAGP4T1NtV0OCaXP2iPMU4PUOvBz9eD+NUNR/5H7SP+vWX+tMtP+JJ40ntvu2uroZo/QSr94fj1/EU/Uf8AkftI/wCvWX+tAHT0UUUAFFFFABRRRQAUUUUAFFFFABRRRQAUUUUAFFFFABRRRQAUUUUAFFFFABRRRQAUUUUAFFFR3E8dtBJNO4jijUs7HoAKAMD4gXEUPha7SRwrTbUjB6s24HA/AGtTQrqG80ezmt3DxtEoyPUDBH51g6LBJ4l1T+3b5CtnCSunwN6d5CPX/PYUx8+DtY8wcaHfyfMO1tKe/sp/z05AOwry7UtMv9H8XNdz3MMYupGa3u7iPfGCTwD/AHSOn/1q9QBBGQcg1Bf2NvqNpJa3cSywyDBU/wAx6GgDAB8ZQjI/si5X23qT/IUf2r4oh/1vh+GYesV2o/nmq1tdXXg+4Sz1F3uNGkbbb3R5aA9lf29//wBQ65GV1DIwZWGQQcgigDmv+Ep1CL/j58Naivr5Q8z+VH/CcWCf8fNlqVt6+bbY/ka6eigDgvA/ifSNP0KK0vLxYZ1dyVZG6E5HOMV1MPiTRpvuapafRpgp/Wsf4f2sE/haHzoI5P3kn30B/iPrWzN4d0ab/WaXZk+ohUH9BQBchvLaf/U3EUn+44P8qnrnpvBHh+Xrp6qfVJHX+tQ/8INpyf8AHtdahbenlXBGPzBoA6eiuY/4RW+i/wCPbxJqS+nmt5n86P7I8Tw/6nxFHMPSW0UfqM0AdPRXMbfGUHR9IuR7h1P9BR/afiqH/W6DbzjuYroL/OgDp6K5j/hJ9Si/4+fDN+v/AFyIk/kKP+E3s4/+PnT9TtvXzLbH9aAOnornIvHXh+Q4N8Yz6PE4/pV6HxNok33NUtP+BShf50AVfFGr3Nr5Gm6Wnmane5EfpGvdzVjw9oNvolrhf3t3IMz3DctI3fn09v61m+GvL1PxDrOqlhL5cgtYHBBAUDnH1NdTQAVj3Gq3sRuALGFvJuEi5uSMo2Pn+5x16ex5rYrL1HTHvLhyHVYZYSkgPXcM7CPoST+AoAlbUPKu5Irj7NDEvKu1xhmAXLHaR2479DUNprtrcyoVlgW2mjR4ZTMPnZiRtx0zx2JpGsr1n0538hmiZnuG3kclSPlG3nr3x0qg2k6mIQqwWLMlqkCMbhgflbJ/5Z8AjH4/nQBq3OrQW16sDy24jCs0ztMAYcDI3DsCM8kipBqunl40F9alpSwjUTLlyvXHPOO9ZU+l6kxZUjsmCicI7SsGbzAevyHGDx3z146Ut3pmoyz2bRR2uyIRFl+0MmCp56J84x0BwB1xnmgDUXVdPZN639qV8vzciZcbP73Xp71bBBAIOQehFZCaVcJcRuJECRyuFUE/6pjuI+ucfgPwrYoA5rXtFktp/wC2tDQR38WWmiHC3K9wR6+//wBbGvomqwazpsN7b5CyDlT1Vh1Bq9XKeH0Gm+LtY06I7beVFuo07AnAbH4n9KAOrooooAKKKKACiiigArl/FVpNp91D4i09MzWo23UY/wCWsPf8R/npXUUjKGUqwBBGCD3oAhsruG+tIrq3ffDKoZT7VPXJaWT4Y15tJkJ/s2/YyWbHpG/eP/D8PWutoA5/xrYyXGkfa7Xi709xcwkdfl6j8v5VnJfR6l4t0C8h+5PZSMB6HByPwPFdgQCCCMg9Qa860Wzk0vx/FpzZ8iETPb5/55uuQPwOfxzQB6NRRRQAUUUUAFFFFABRRRQAUUUUAFFFFABRRRQAUUUUAFFFFABRRRQAUUUUAFFFFABRRRQAVz3iLTb3Wr+1sGHl6QB5ty4b5pCDwmOuOh//AFVqX97JBJFb20Kz3U2SiM+xQB1LNgkDkDgHk0kepxIri+MdnIgZikkq8ouMuD/d56/ng8UAXI40ijWONQiIAqqBgADoKhvrODULSW1uUDwyrtYGo7vVbG0hmlmuoVWFN7jzBkAjjv37U5dSsmdIxeW5kkj8xE81csn94DPI96AM3wva6jp0E9hf4kgtn22s+7l4+wI9un/6q3KprqunsoZb61KkqARMuCW+7379vWnvqFnHJLHJdwK8IDSK0qgoD0JGeKAJLm3hu4JILiNZIpBtZGGQRXJrJdeCpxHMZLnQJGwkn3ntSex9V/z9ethmiuIxJBIksZ6MjAg/iKWWJJo2jlRXjcYZWGQR6UAJBNHcQpNC6yRuNyspyCKkrjpIbnwXO09sslxoUjZkhHLWpPdfVf8APvXWWtzDeW8dxbSLLDIMq6ngigDnfhz/AMitD/10k/8AQjXT1zHw5/5FaH/rpJ/6Ea6egAooooAKKKKACiiigAooooAilt4Zv9bDHJ/vKDVKbw/pE/8ArNMsyfXyVB/PFaVFAHLeEUj07Vdb0lB5YjuPPijx/AwHT2GAK6mua8Uafdw3UGu6Uoe7tFKyRY/10fcfUc1raLq1rrVhHd2jgqw+ZM/Mjd1I7H/9dAF+iiigChqF1OtzBZ2flrPMrP5kqllRVxk7QRk5IGMimtqX2JANTwkjOQphjdwVGPmOAdo55J4Hr3MmoWUlxJDcWsywXUOQrvHvUqeoK5BI4HQjkVR1TRbvUbaONr6Hdg+Z5luXQscYKrvGMY4yTj680AT6hq8cUMpt5oxJA6+YJY2xt3AMQePU88jIPoavWt1FdxeZCWK5KnchUgjsQQCKypdFun88pewxmUqxxbHBIYMSw34J4AzwcdSeMX9OtZ7UXHnzRymWZpF2RFNoPY5Y5+vFAFyiiigArg5tPk8Q+LdUnsryW2ksESOGePpv7qfUZzkVv+JNbazCWGnAT6rdfLFED/qx/fb0A9/6GrPhzR10TS0td/mSkl5pP77nqf6UAZuneJZrW6XTfEcS2l2eI5x/qp/cHsf88dK6aquo6da6patbXsKyxN2PUH1B7Gua/wCJp4QP/LTUtEB+s1uP6j/PFAHX0VV07ULXVLVLmymWWJu47H0I7GrVABRRRQAUUUUAZniHR49b0yS1Y7JR88MneNx0NVvCusSalZvb3g2ajZt5Vwh65HRvoa3K5bxRby6TfReI7FCxiAS9iX/lrF6/Uf4elAHU1wXja9OleLdJ1BFz5MR8zHUpuIP6Ma7i1uIru2juIHDxSqGVh3BrltftI77xjp9rMMxzWUyN9CDQB1iOsiK6EMrAEEdxTq5zwRdSHTpdMuj/AKVpkhgf3X+E/THH4V0dABRRRQAUUUUAFFFFABRRRQAUUUUAFFFFABRRRQAUUUUAFFFFABRRRQAUUUUAFFFFAGfqNrcNcwXlkImnhDJ5crFVdWxn5gDg5APQ+nvUF7aahcLDKq2xn2SI6tIwVAwHQ7ctjHcDPt0rXooA586PeyBw620Ze2MZKys/zFAO68cjqCMjqp61ObC9eb94lt5TyJOW81tyOoHyj5eRx144J4rZooA5ddF1IW+z7JpwcWpiDCdvvF9xP+r6d/rT5NBut16yRwu8ySiN5LyXA8zquzBVQPUDnHQV0tFADIgwiQMqqwUZCnIB9qfRRQAjKGUqwBUjBBHBFchdWV34RuZL7So2n0lzuuLMdYvVk9vb/I7CigDl/hwwbwtDgg4lkz7fNXUV5p4Vg1HStGj1rTN1xEzuLuz/ALyhj8y+4Fd9pOqWmr2aXVlIHjbqO6n0I7GgC7RRRQAUUUUAFFFFABRRRQAUUUUAFc7qXhtlujqOhziwvz98AfupvZl/rXRUUAcxF4rewkEHiKyewkPAnQF4X+hHSt+zvbW+i8y0uIp09Y3DVLJGkqFJEV0PVWGQaw7rwdpE8vmwRSWU39+0kMZ/Lp+lAG/RXMf8I9rVt/x4eJbjb/duYll/U/4UfYPFqfd1iyk/37fH8hQB09Fcx/Z3ix/va5ax/wC5ag/zFKPC15c/8hLxBfz+qwkQqfwGaANXU9d0zSgftt5FEw/gzlj/AMBHNYx1bWtfUpo1obG0bj7bdDDEeqL/AF/lWnpvhjSNNIaCyjaX/npJ87E+uT/StegDK0TQLTR1d49011LzLcync7n69h7Vq0UUAFFFFAHM6j4bmtLptS8OSraXZ5kgP+pn9iOx/wA8das6H4kh1GY2V5E1jqUf37eXjPup7it2szXNBstbhC3KFZk/1U6cPGfUH+lAGnRXJQ6xqPhyVbXxADcWZIWLUUXgezjsff8An1rqoZY54llhdZI3GVZTkEexoAfRRRQAU10WRGR1DKwwQRkEU6igDktFdvDWttoc7H7DdEyWDt/Cf4o8/wCf1qbUf+R+0j/r1l/rWl4k0dda01oA3l3EZ8yCUdUcdK5bSNWk1XxZpJukMd7bQTQ3KEYw4B5/GgDU1X/iSeLrLUh8ttqQ+y3HoH/gJ/l9Aa6qsvxLpY1jRbm0H+tK7oj6OOR/h+NN8LaodX0S3uH/ANcB5cwPUOvB/wAfxoA1qKKKACiiigAooooAKKKKACiiigAooooAKKKKACiiigAooooAKKKKACiiigAooooAKKKKACiiigAooooAKKKKACiiigDmPhz/AMitD/10k/8AQjTdW0S60u9fWPDygSnm5s/4Jx3IHZv8/V3w5/5FaH/rpJ/6Ea6egDO0TWbXW7MXFqxBB2yRtw0behFaNc3reiXMF4dZ0EiO/Ufvof4LlfQ+/v8A/rq/oGu2+t27NGDFcRHbNbvw8be/t70AatFFFABRRRQAUUUUAFFFFABRRRQAUUUUAFFFFABRRRQAUUUUAFFFFABRRRQAUUUUAMmhjniaKZFkjcYZWGQR7iuVm0fUfDcrXPh8tcWRJaXTnbp6lD6+38662igDM0TXbLW4S1s5WVP9bA/Dxn0I/rWnWFrfhqLUJhe2crWOpR/cuIuN3sw7j/PtVbTvEstrdLpviOJbO8PEcw/1U/uD2P8AnjpQB01FFFABXAeK500LxpY6pDBu3Qk3AUfeXlS31AP6V39ctq0aTeOdLjkUMj2kysp6EEHIoA6WCaO5gjmhcPFIoZGHQg9DXM6f/wASTxldWR+W11VftEPoJR94fjyfypugSv4f1h/D9yxNtLmWwkY/w90+o/z1FWvG1nJLpaX9qP8AS9NkFxGR3A+8Ppjn8KAOioqtp15HqFjBdwn93Mgce2e1WaACiiigAooooAKKKKACiiigAooooAKKKKACiiigAooooAKKKKACiiigAooooAKKKKACiiigAooooAKKKKACiiigDmPhz/yK0P8A10k/9CNdPXMfDn/kVof+ukn/AKEa6egArn9e0CSe4XVNIkFtqsQ4b+GYf3W/x/yOgooAx/D+vR6vG8UsZtr+D5Z7Z+qn1HqK2KwvEPh86g6X1hL9l1SDmKYdG/2W9RR4e8Qf2g72N/F9l1SDiWE9G/2l9RQBu0UUUAFFFFABRRRQAUUUUAFFFFABRRRQAUUUUAFFFFABRRRQAUUUUAFFFFABRRRQAVV1LTrXVLVra9hWWJux6g+oPY1aooA5DOqeEDz5mpaID16zW4/qP88V0unaha6napc2UyyxN3Hb2I7GrVczqPhua0um1Lw5KtpdnmSBv9TN7Edj/njrQB01cxqP/I/aR/16y/1q3ofiSHUZTZ3cTWWpR/ft5eM+6nuKqaj/AMj9pH/XrL/WgDQ8T6P/AGxp22JvLvIG822kHBVx059D/npSeGtXGt6YTOgW6iJhuoiPuuODx6GtiuT1+N/D2sJ4gtlJtZcRahGo/h7P9R/nqaAH+EGOmX2o+H5CcWz+dbZ7xNz+hP5muprlPFTLZXOmeJLY7o4WEc7Lzuhfv+GePrXVKwZQykFSMgjvQAtFFFABRRRQAUUUUAFIzBVLMQAOpPaoLy9hs490zYJ6KOprmNR1Sa+YgnZF2QH+dc1fEwo6bs6KOHlV16HXKyuoZSGU8gjvS1x+n6nNYtgHfF3Qn+VdPZXsN7HuibkdVPUUUMTCrpswrYeVLXdFmiiiuk5wooooAKKKKACiiigAooooAKKKKACiiigAooooAKKKKACiiigAooooA5j4c/8AIrQ/9dJP/QjXT1zHw5/5FaH/AK6Sf+hGunoAKKKKACsfxBoMerxpLFIba/g+aC5Tqp9D6itiigDn9A1+Se4bS9XjFtqsQ5X+GYf3l/w/yOgrK1/QrfW7dVkJiuYjuguE4eNvb29qoaHrlzBeDRteAjv1H7qb+C5X1B9fb/8AVQB0lFFFABRRRQAUUUUAFFFFABRRRQAUUUUAFFFFABRRRQAUUUUAFFFFABRRRQAUUUUAFFFFAGXrmg2WtwhblCsycxTpw8Z9j/SuNlu7zQfF2nHxBcLNFDE6R3SryyNkAsPUHr/WvRq5XWIY7jxxpcU0ayRvaShlYZBHPUUAdPDLHPEssLrJG4yrKcgj2NJPDHcwSQzIHikUq6noQeorlptI1Hw3K1z4fLXNkTul0526epQ+vt/OtrRNdstbhLWrkSp/rYX4eM+hH9aAOf0yEWkt54S1Ji1vNGzWUrfxIf4fqvX8D7Vo+CLySXS3sLo/6Xpsht5B6gfdP0xx+FWPFOjtqtgrWzeXf2rebbSA4IYdvof8K5rS9YQa/Z6pt8pdRH2O+j6eXcL90n68Y/GgDv6KKKACiio5547eMySuFUdzSbSV2NJvRElZOpa1Hb5jt8SS9z2X/Gs3U9akucxwZji/Vqyq8zEY37NP7z0aGD+1U+4fNNJPIZJXLMe5plFFeY23qz0UraIKfDLJBIHiYqw6EUyiknbVA1fRnTabraXGI7nEcvZux/wrXrgq1NN1mS1xHNmSH9V+lenh8b9mp9551fB/ap/cdTRUUE8dxGJIXDKfSpa9RNNXR5zTTswooopiCiiigAooooAKKKKACiiigAooooAKKKKACiiigAooooA5j4c/8itD/wBdJP8A0I109cx8Of8AkVof+ukn/oRrp6ACiiigAooooAKztb0a11uzNvcqQQd0ci8NG3qDWjRQBy2k63daZepo/iEgSni2vP4Jx2BPZv8AP16mqWraXaaxZva3sYeNuh7qfUHsawNO1O68O3cela5IZLZzttL49GHZX9D7/wD66AOsooooAKKKz9Y1my0W3869l2gnCIvLOfQDvQBoUyWaOBN80iRoP4nYAVy63PiPX+bSMaNZHpLKu6Zx7L2/zzUkPgfT3k87U57rUpv71xKcD6Af40AX7nxVodqcSanbk/8ATNt//oOapv488PL0vi30hf8AwrUtdD0u0GLfT7VPcRDP59aupFHH9yNF+igUAYCeOfDz/wDMQwf9qFx/7LWha+INIvMeRqVsxPRfMAP5Hmrr20En34Y2/wB5Aazrvwxot5nztMt8nqUTYT+K4oA1QQQCDkHoRS1y/wDwiD2OW0PVrux7iJj5kX/fJ/8Ar0weI9R0VxF4ksj5WcC9thujP+8O3+eKAOroqK2uIbuBJ7eRZYpBlXU5BFS0AFFFFABRRRQAUUUUAFFFFABRRRQAVzGo/wDI/aR/16y/1rp65jUf+R+0j/r1l/rQB09YWt+Gor+YXtlK1jqSfcuIuN3sw7j/AD7Vu0UAczp3iWW2ul03xFEtneHiOYf6qf3B7H/PHSsP4gaO1m0upWwIt7raLkD+CQfckHpzwfqfWu41LTrXVLVra9hWWJux6g+oPY1yt1Bf+G7eW3uUfVvD8gKsDzNAp/mB/nFAHQeGdUGsaJbXZP7wrtlHo44P+P41qV538P72LTtZudJjuBPaXQ861k/vEDnI7HA5H+zXolAFW+uzap8kMkrnoqqcfia5q8F/eSb5opT6AIcCtnxJrJ0SzjnEIm3ybMbsY4J/pXOf8LCb/oHj/v7/APWrmrUHW3lodFGsqW0dR/2K5/595f8Avg0fYrn/AJ95f++DUf8AwsJ/+gcv/f3/AOtS/wDCwm/6B4/7+/8A1q5v7Pj/ADHR9el2H/Yrn/n3l/74NH2K5/595f8Avg1H/wALCf8A6By/9/f/AK1A+ITd9PH/AH9/+tR/Z8f5g+vS7En2K5/595f++DR9iuf+feX/AL4NR/8ACwn/AOgev/f3/wCtR/wsJ/8AoHr/AN/f/rUf2fH+YPr0v5ST7Fc/8+8v/fBo+xXP/PvL/wB8Gmf8LCb/AKB4/wC/v/1qT/hYT/8AQOX/AL+//Wo/s+P8wfXpdi3aC/s5N8MUo9RsOD9a6SxvDdJiSF4pAOQynH4GuRHxCbvp4/7+/wD1q6Hw1rZ1y2lmMHk+W+3G7OeM10UcO6O0tDCtXVXeOpsUUUV1HMFFFFABRRRQAUUUUAFFFFABRRRQAUUUUAFFFFABRRRQBzHw5/5FaH/rpJ/6Ea6euY+HP/IrQ/8AXST/ANCNdPQAUUUUAFFFFABRRRQAVW1GwttTtJLW8iEkMg5B7e49DVmigDj7W9u/CNzHY6q7T6S52214esXor/4/5HXqwZQykFSMgg8EVHdW0N5byW9zGssMgwyMOCK5SOa58FzrBctJcaFI2Ipjy1qT2b1X/PtQBs+I9bGj2qCKIz3tw2y2gAyXb39hVLQvDJhmXU9ZkN7qrDJZ+Vi9lHTj/wDVUWjmPWvFF9qZdZIbEC3tdpyvIyzA/wCetdTQAVWvr6CwjElwZMMcARxNIx4z0UE9qs1BeuI7OZyrsAh4RCzHjsBkn8KAGafqFvqMZktjLtGP9ZC8Z5GQcMASPerVc+n77+xVIv4wYiHVFmjAwo4fAAHI/ix+RrMhmuS0qt/a6B5YW4juCUO4hxuIwRjrtAUdhxmgDs6rQ31vPcyW8bMZYxlsowB5xwxGDg8HBOO9YMElxvtAp1HYkrx7XjmBZfM4JY5/hH8Q5HRgc5pGG4FmFs5dRtojcTGRnguZGDbsoQu5WxjvyueooA7SmyRpKjJIiujDBVhkEfSsvRVY3F68jXZcS7QJ/MC42gnaG4xnPTP5VrUAcfe6ZN4TnOp6MJH08nN3ZZyAv95Pp/niupsruG+tIrq2cPDKu5WHcVMQGBBAIPBBrl/CoOl61quhqc28JFxb/wCyrdV+gJFAHU0UySWOIZkkVB6swFUptd0mD/W6nZqfQzrn8s0AaFFYM3jTw/D97Uoz/uIzfyFVv+E70p/+PaK9uf8Arjbk5/PFAHT0VzH/AAll3L/x6+HNUcdjJH5Y/rR/bHiaf/UeHEiHrNdr/Lg0AdPRXMbvGU/SPSbYf7Rdj/UUf2X4qm/1uvW8APUQ2ob+dAHT0VzH/CL6jL/x8+JtQb18rEf8jR/wg9g//Hze6lc+vm3Of5CgDoZru3g/11xFH/vuB/OuQ1TWdNTxpptyb63MEVvIrusgYKTnAOK1IfA/h+Lpp4c+ryOf61l3OjabbeNdLt4bG3WF7eRmTywQSM4JzQBpzeOfD8XH2/efRInP9Ki/4Teyk/49tP1O59PKts/1roobaCD/AFMMcf8AuIBUtAHMf8JPqcv/AB7eGb9vTzmEX8xR/aXiub/V6HawA/8APa5DfyNdMSAMk4ArjNc16TVxc22mTGDTbZSb2/Hp3SP1J/z7gHJxRXdx41tktY7NLpZg0n2It5akHLZzkdOuOK9grj/h7oiWlo+pvD5cl2P3KHkpF2/E9fyrsKAK97Y21/GI7uFJkU7gGHQ1h654VtLnT2j0+2t4J9wIcgjA710lI33T9KAPEwhMoj7lttemaP4Vs7awjiv7W3muATucAnPPFebJ/wAfi/8AXT+te1UAeQ67pUukXxgmZCWG8bCcAE9K3vBGgR3ge8u44prYgoEbOQwI5qD4h/8AIbj/AOuI/ma6L4f/APIA/wC2zf0oA5nxpoY026+0wrFHazMFjjTOQQvP65qt4U0ZtVv1c+W0MDq0qPn5lz0rpPiT/wAeFn/11P8AKqvw2/1l79F/rQBtav4WsrjT5YrG0t4bhsbXIxjnn9K8yeMpK0ZxlW217bXi0/8Ax/Sf9dT/ADoA9D0Dwra2+nhdRtoJ5ixYOAT8pAwK3rKxtbCNktIEhVjkhRjJqSD/AFMf+6P5VJQAUUUUAFFFFABRRRQAUUUUAFFFFABRRRQAUUUUAFFFFABRRRQBzHw5/wCRWh/66Sf+hGunrmPhz/yK0P8A10k/9CNdPQAUUUUAFFFFABRRRQAUUUUAFRzwx3ELwzIskbjaysMgipKKAOV8EQR6fPremxjC294WUZ5CMBt/QV1Vct4iWbRdXh8QW0TSQbPJvkTqU7P+FdHaXUN7bR3FtIskMi7lZehFAE1FFFAGYNWdr2W2TTLxxC4R5QYtoyAc437sYPpWnWLaWDSa5eXU8FzEFkUwsZx5cg2bT8gYjPXkgHpWXdaXciGSCPSGdUimiVleIbtzhkxlgQB74wfzoA6yRikbMFLFQTtGMn25plrOt1bRXCBlWVA4DdQCM81zo0+ZWkQaQ7WfnlxBuiGSUXD/AHsZDAk55ycjJqXTNPuYbyxkks3QpAqSMzoVXapHBB3Zyeh3Dv8AKeoB0VFFFABXEXGlwa/431GOWWZI7W2jVjA+0sTzgn/PSuj8QazHo1mJCpluJTst4V+9I56CofCuky6XYO94we/unM1w+c/Me34f40AVY/AmgIdz2jzN6yTOf5GrsPhfQ4fuaXan/fjDfzzWvRQBWh0+zg/1NpBHj+5Eo/kKs0UUAFFFFABRRRQAUUUUAFcxqP8AyP2kf9esv9a6euY1H/kftI/69Zf60AdPTXdY0Z3YKqjJYnAA9abcTxW0DzTyLHFGNzOxwAK5HN341mwPMtdARv8Ade6I/kv+evQAdcXN14xne0sHe30WNts9yOGuD/dX2/z7GPULSDUNStfDGnxiPTrPE17s6H+6n1PU/XPat7WL638N6G0sUSqsSiOCFRgMx+6v+feovCekyaZpxkujvv7tvOuXPXce34f40AbSqFUKoAUDAA6CloooAKRvun6UtZWu61FpVg867J2VgpjEgB54oA8qT/j8X/rp/Wvaq8SEmJhJjo27H4161o+tQ6lYR3LmOAuT8hkBIwaAOL+If/Ibj/64j+Zrovh//wAgD/ts39K4vxNqw1fUfOEXlbF2Y3Zzgnmui8AauixPp0iqgXdL5jPjPIGMUAT/ABJ/48LP/rqf5VV+G3+svfov9arePdXW7uBYIgIt2DCQPkNlf/r1V8FauunX/kNGGF0yoXLYCc9aAPTa8Wn/AOP6T/rqf516vq+swadp8t0jRztHj5BIATk4ryWSTfO0mMbmLY/GgD2iD/Ux/wC6P5VJWP4e1uLVNPWVwkDBtgQyAk4A5rYoAKKKKACiiigAooooAKKKKACiiigAooooAKKKKACiiigAooooA5j4c/8AIrQ/9dJP/QjXT1zHw5/5FaH/AK6Sf+hGunoAKKKKACiiigAooooAKKKKACiiigBGUMpVgCpGCCODXKXOi3/h6drzw5mW3Y5m092+U+6Hsfb/APVXWUUAYekeKtP1GQ28hazvF4a3uBtYH2z1rcqhqui6fq6Bb+1SbHRjww+hHNYn/CJ3lic6Jrt1ap2imAlQfQHp+RoA6qiuXH/CY2vH/Esvl9fmRv6Cl/tLxWn3tBtpP9y6UfzNAHT0VzH9oeLX+7o1nH/v3AP8jSG18X3n+t1CwsFPaCIuR/31/jQB00kiRIXkdUQdWY4Armrzxb9pla08PWz6jddDIBiGP3Ld/wDPNEXgu3mcSaxfXepyA5xLIVQfRQePzrobW1gs4FhtYUhiXoqLgUAY2h+Hnt7n+09WnN5qjDhz9yEHsg7fX/6+d+iigAooooAKKKKACiiigAooooAKKKKACuR168gsPGem3N1IsUMdpKWY9utdHqmpWulWb3d5KI4k/Nj6AdzXCKk/iHxhps2sWgjtpYne3tm67FyQW+p5xQBrQW9z4ynS6vke30SNt0NueGuD/eb2/wA+9dciLGioihUUYVVGAB6UoAAAAwB0ArC8XapLY2KWllzqF83k26jqM9W/DP60AUI/+Km8UmU/NpmkNtT0ln7n3x/h611tUND0uLRtLgsoeRGvzN/eY9T+dX6ACkY7VJPYZpaa43IwHcYoA5s+OtJBwVuf+/Y/xrz+7MU91NKsoxJIzAFT0JrdbwNqxYnNvyf+eh/wpP8AhBdW9bf/AL+H/CgDnNo/vr+v+FKEj7yj/vk10X/CC6t62/8A38P+FH/CC6t62/8A38P+FAHOFF7SL+R/wpQid5VH4Gui/wCEF1b1t/8Av4f8KP8AhBdW9bf/AL+H/CgDnSi9pFP4GkCL3kUfga6P/hBdW9bf/v4f8KP+EF1b1t/+/h/woA50pH2lH/fJpNo/56L+v+FdH/wguretv/38P+FH/CC6t62//fw/4UAYEIjjlR2lHysDjBr0e38aaZc3EcMa3G+Rgq5QYyfxrl/+EF1b1t/+/h/wqxp3gzVLa/tppDBsjkVmw5zgH6UAehUUUUAFFFFABRRRQAUUUUAFFFFABRRRQAUUUUAFFFFABRRRQBzHw5/5FaH/AK6Sf+hGunrmPhz/AMitD/10k/8AQjXT0AFFFFABRRRQAUUUUAFFFFABRRRQAUUUUAFFFFABRRRQAUUUUAFFFFABRRRQAUUUUAFFFFABRRRQAUUUUAFZ+t6xa6LZm4umPPEca8tI3oBUWv67baJbq0oMtxKdsNunLyN7D096z9E0S5uLwazrxEl8f9TAPuWy+gHr70ARaXo13rF6mr+IVwV5trL+GEererf59g/Uf+R+0j/r1l/rXT1zGo/8j9pH/XrL/WgDpZHWKNndgqKCWJ6ACuW8NI+uavceIZ1IhGYLFWHRBwX+p5/Wn+LbiXULm28O2bkS3nzXLj/lnCOv5/5610drbxWltFbwIEiiUKqjsBQBLRRRQAUUUUAFFFFABRRRQAUU2Td5bbCA2DgkZAP0rn9D1ue9khWW8sLouhMsdshVrcgfx/O305xQB0VFZo17T/LV/MlCs+wZt5ASSMjjb3HQ9+2aaNXUXLMW3WjQo8eyBzJkkgjAyT06YBHOaANSikByM0tABRRRQAUUUUAFFFFABRRRQAUUUUAFFFFABRRRQAUUUUAFFFFABRRRQBzHw5/5FaH/AK6Sf+hGunrmPhz/AMitD/10k/8AQjXT0AFFFFABRRRQAUUUUAFFFFABRRRQAUUUUAFFFFABRRRQAUUUUAFFFFABRRRQAUUUUAFFFFABRRRQAVjeINfj0hEhijNzqE/EFsnVj6n0FReINfaxlTT9Ni+1arOP3cQ6IP7zegp3h7w8NNd729l+16pPzLO3b/ZX0H+fagCPQfD7wXDapq8gudVlHLfwwj+6v+P+T0FFFABXH+I76HTfF+n3lwcRQ2crH364H4niuwrgdeS11/x/Y6ex3xW0Z88dmIy23+WfxoA2/B9jMYp9Zvx/p2onfg/8s4/4VH4f09K6OkAwMDpS0AFFFFABRRRQAUUUUAFFFFADZAxRghCsRwSMgH6ViWmh3kZsxc38MkdmrCLyrUxtuK4ySXbsTwAK3aKAOes9AvbaRX+32pPmpK5FowLlVK5JMhJJyOfalh0G+iminGoW5mhj2I32RsfeJOR5nIIOMe2c10FFACDOBnk98UtFFABRRRQAUUUUAFFFFABRRRQAUUUUAFFFFABRRRQAUUUUAFFFFABRRRQBzHw5/wCRWh/66Sf+hGunrmPhz/yK0P8A10k/9CNdPQAUUUUAFFFFABRRRQAUUUUAFFFFABRRRQAUUUUAFFFFABRRRQAUUUUAFFFFABRRRQAUUUUAFc5rviCZboaToiC41Nx8x6pbj+8x/p/+os1jW7m9vG0bQCHu+k9z1S2H17t/n6aehaJa6Ja+VAC8rndLM/Lyt6k/0oAj8P6DFo8Tu7m4vp/mnuX+85/oK16KKACiiigDK8S6uNF0qS4Ub53PlwR93c9OP1/CuW0jSW0jxTo0czb7qa3mmuHJzmRs5/wrRsc+JfEz35503S2Mdt6SS93/AA/wqbUf+R+0j/r1l/rQB09FFFABRRRQAUUUUAFFFFABRRRQAUUUUAFFFFABRRRQAUUUUAFFFFABRRRQAUUUUAFFFFABRRRQAUUUUAFFFFABRRRQAUUUUAcx8Of+RWh/66Sf+hGunrmPhz/yK0P/AF0k/wDQjXT0AFFFFABRRRQAUUUUAFFFFABRRRQAUUVFc3ENpC01xKkUSDLO5wBQBLRXKS+KL3VJTD4asDcqDhrqcFYh9Omf88UL4c1nUTu1nXZlB/5Y2X7tR+Pf8RQB001xDAMzSxxg93YD+dVX1rS4/v6lZr9Z1H9ayoPAuhRktLbSXLnq80rE/oQKtp4U0JOml25+q5/nQBcTV9Nk+5qFo3+7Mp/rVtHWRQyMGU9CDkVjP4R0F+umQD/dyP5GqcngXSlYtZSXdi/rbzkfzzQB09FcmdO8U6VzY6lFqcI/5ZXa4f8A767/AImrOm+LbeScWerQPpl702T8Ix/2W6UAdHRRRQAUUUjMFUsxAAGST2oAWuU1LVbvXryTSdAk2RIcXd8Puxj+6vqf8+9R3eoXfiu5ksNHdoNMQ7bm9HWT1VP8f6del03T7bS7OO1s4hHEg4A6k+p9TQBFo2kWmi2a21mm1erMeWc+pPrV+iigAooooAK57xhqM0NrFptgc3+ot5Uf+wv8Tfl/nit2eaO3hkmmcJHGpZmPQAdTXM+FYZNWv7nxHdKR52YrNG/giB6/U/4+tAG9pGnQ6Tp0Flbj5IlxnHLHuT9TWJqP/I/aR/16y/1rp65jUf8AkftI/wCvWX+tAHT0UUUAFFFFABRRRQAUUUUAFFFFABRRRQAUUUUAFFFFABRRRQAUUUUAFFFFABRRRQAUUUUAFFFFABRRRQAUUUUAFFFFABRRRQBzHw5/5FaH/rpJ/wChGunrmPhz/wAitD/10k/9CNdPQAUUUUAFFFFABRRRQAUUUUAFFFFAFDW9XttEsHu7puBwqDq7dgKw9P0W71549R8SHKfeg08cJGOxf1Pt+foBYRr/AIwleZQ1no4CIjchpm5Jx7f0FdXQA2NEjQJGqoijAVRgCnVElxC87wJNG00YBeMMCyg9CR1GaFuYHne3SaNp4wC8YYFlB6EjqKAJaKbvXfs3DeBnbnnHrinUAFFFFABVXUdOtNTtmt72BJo27MOR7g9jVqigDkDJe+DZIhPM95oTvs3vzJa56ZPdf88cZ62N1ljV42DIwBVgcgj1ptxBFdQSQToHikUqykcEGuV8L3g0U6npGoTBYtMPmRyuePKbkfz/AFxQB1csqQxNLK6pGgyzMcACuSkmufGk7QWrSW+hRtiWYcNckfwr6L/n2pEiuvGswlnEltoMbZSPo90R3Pov+fp1sMMdvCkUKLHGg2qqjAAoAbaWsFlbx29tEsUMYwqKOBU1FFABRRRQAUUVT1fUodJ02e9uD8kS5xnlj2A+poAwfFMsmr6hbeHLViBLiW8df4Igen1J/p6108MUcEKQxKEjjUKqjoAOgrB8H6bNBay6lfjOoai3my/7K/wr+A/zxXQ0AFcxqP8AyP2kf9esv9a6euY1H/kftI/69Zf60AdPRRRQAUUUUAFFFFABRRRQAUUUUAFFFFABRRRQAUUUUAFFFFABRRRQAUUUUAFFFFABRRRQAUUUUAFFFFABRRRQAUUUUAFFFFAHMfDn/kVof+ukn/oRrp65j4c/8itD/wBdJP8A0I109ABRRRQAUUUUAFFFFABRUF7e21hAZrueOCIfxO2BXOP4nvdWYxeG9PaZehvLgFIh9O5/zxQB01xcQ20TS3EqRRryzuwAH4mubm8WvfStb+HbGTUJAcGdhshT6k9f0pbfwl9rlW58Q3kmpTDkR52wp9FH+faukhijgjWOGNI41GFVFAA+gFAHMeBBOh1mO92m9F8zTFOhJA6e3WuqrktUlPhvxMupNuGm6iojuWAyI5B91j+H9a6tGV1DIwZWGQQcgigDFvbiGHWnuElRpbaJBNGpy/lsWzx14O0/hVGbUobRtSAv44LgyRCRhJHmMsD1LZCgdMkHp0JxXVUUAcaviB3tRIdYhjc20D8NGyhjIVbsMg9+ntirCX7S3sLx6qbhoJLiJUBjxK4AKqcL168DBwPrXVUUAcda6xdyiBbjWraPzpihaKRJCvyElSTGoDAgYGCRnnNOXxGHuNO/4msKrKkYkUyRKH3ZG4ZBLHI7bQPfpXX0UAcjZ647W6A6uk7y26SMwEZMS79rOAB2HJJyARnAHFSXmqXcTWS2uqW0kL5K3MzqguDuxtGEYOcdl2knp6V1VFABXEXWkW2tePrqO4DGC3t43kjB4kbsD7YP6V1mq6jb6TYS3l0wWOMZx3Y9gPc1j+DLCdYLjVb9SL3Un8xlPVE/hX8v6UAdEqqihVAVQMAAYAFLRRQAUUUUAFFFFABXJXv/ABUvidLEc6bpbCS49JJey/h/jWr4p1c6RpbNCN95OwhtkHJZz049qf4a0hdF0qO3J3Tt+8nk7u56n+n4UAatFFFABXMaj/yP2kf9esv9a6euY1H/AJH7SP8Ar1l/rQB09FFFABRRRQAUUUUAFFFFABRRRQAUUUUAFFFFABRRRQAUUUUAFFFFABRRRQAUUUUAFFFFABRRRQAUUUUAFFFFABRRRQAUUUUAcx8Of+RWh/66Sf8AoRrp65j4c/8AIrQ/9dJP/QjXT0AFFFFABRWfq2t6fo8e++ukiJGQmcs30A5rE/tPX9e40m0/s20b/l6uh85Hqqf5+tAHQajqdlpcPm31zHAnbceT9B1P4Vz/APb2ra38vh+wMNuf+X27G1ceqr3/AFq3p3hGwtpvtV60mo3p5M1yd2PovQfrW/0oA5yy8IW5nF1rE8mq3f8Aen/1a/ROmK6JVVFCooVQMAAYAp1FABRRRQBDd20N7bSW9zGJIZV2sp7iuWj/ALS8HgRlX1HRAflZRma3H07r/niuvooApaZq1jq0Pm2Nyky9wD8y/UdRV2sLU/Cmn3s/2mHzLG8HIntW2N+PY1VFt4p03iC6tdVhHQTr5cg/EcH8aAOnormP+Em1S24v/Dd6CO9sRMP0o/4Ta2X/AFuk6vGf9q1/+vQB09Fcx/wmcb/6nRdYk+lr/wDXpRrev3f/AB5eHmiU/wAd3ME/8d60AdNWNrHibT9LbyS5uLw8JbQDc5PocdPxqidE13U/+QrrH2eI9YLFdv4bjzWrpGhafoyYsrdVc/ekb5nb6k0AZVjo9/q93DqPiHYqxHfb2CcpGfVj3P8An2rp6KKACiiigAooooAKQkAZPAFLXN+ML6Zo4NFsD/puonZkf8s4/wCJj+H9aAK2kf8AFR+IpdYf5rCxJhsgejt/E/8An29K62q2m2MOm2MFnbriKFQo9/U/ieas0AFFFFABXMaj/wAj9pH/AF6y/wBa6euY1H/kftI/69Zf60AdPRRRQAUUUUAFFFFABRRRQAUUUUAFFFFABRRRQAUUUUAFFFFABRRRQAUUUUAFFFFABRUVzcwWkfmXM0cMeQN0jBRk9Bk1LQAUVFDcwTvKkM0cjxNtkVWBKH0PoaloAxtY8S2el3K2vlz3d4wyLe2Te4HqfSm6T4os9Ru/sbw3NleYyILqPYzD29aoeCVR7nW5psG/N+6Sk/eCj7o+nXH09qPiAEWxsZo8C+S7j+zEHDEk8j6f/WoA6qiiigAooooAKKKKAOY+HP8AyK0P/XST/wBCNdPXAeE/EthpHhqCCVnmu2kk2W0K7nPzHHHatTyvEmv/AOtcaJZN/Ah3TsPr/D+lAGtrHiLTdHG27uAZj92GP5pG/Af1rJ8/xHr/APx7RDRbJv8AlpKN07D2Hb/PNauj+G9M0c77aDdOfvTynfIT9e34YrWoAxNJ8K6bpsnnlGurwnLXFwd7k+oz0/nW3RRQAUUUUAFFFFABRRRQAUUUUAFFFFABRRRQAUUUUAFFFFABRRRQAUUUUAFFFFAEV1cRWltLcTuEiiUszHsBXOeEbeW/uLnxDeria8+W3Q/8s4R0/P8Az1pniR21zV7fw9AxEC4nv2U9EHIT6nj9K6mNFjRURQqKAFA6AUAOooooAKKKKACuY1H/AJH7SP8Ar1l/rXT1zGo/8j9pH/XrL/WgDp6KKKACiiigAooooAKKKKACiiigAooooAKKKKACiiigAooooAKKKKACiiigAooooA5zx7bz3GgFbeGSZ1mRyka7jgHniq58dQCcQHR9WEzLuEZtxuI9cZziurrmLr/kodl/2D2/9CNACeCvOluNZu5bWe2S5ut8azoVbGPSuoorN1rQ7TWliW7MoERJXy5CvX/9VAGX4m0URrd63p91NZXsMDO7RfdmCrkBh+HWo/DGjG8Sy1vVLya+umiDxCThIcjsB396ra14L0u10e+uIzdb4beR13TkjIUkZFM0Dwbpd7oljcym58yWFXbbMQMkelAHbUVlaL4fs9FaVrQzEygBvMkLdP8A9dajMFUsxAAGST2oAWiucvvF9qs5tdJhk1S8/uQfcX6t0xVf+w9Z1z5tdv8A7NbH/lyszjI9Gbv+v4UAXNT8W2FnN9mtQ+oXp4EFsNxz7noKp/2d4g17nU7r+yrNv+Xa1OZGH+0/b/PFb2maVY6VD5VjbRwr3Kjlvqepq7QByPw2s7ePw+lysMYnd3DSbfmIBwBmuurmPhwc+FoD/wBNJP8A0I109ABRRRQAUUUUAFFFFABRRRQAUUUUAFFFFABRRRQAUUUUAFFFFABRRRQAUUUUAFFFFABWfruqRaNpc97Nz5Y+Rf7zHoPzrQrkn/4qbxSEHzaZpDZb0ln9PcD+nvQBf8I6XLY2D3V7zqF83nXDHqCei/hn9TW9RRQAUUUUAFFFFABXMaj/AMj9pH/XrL/WunrmNR/5H7SP+vWX+tAHT0UUUAFFFFABRRRQAUUUUAFFFFABRRRQAUUUUAFFFFABRRRQAUUUUAFFFFABRRRQBz/ji9ubDQWls5mhlaVE3qBkAnmqLeDr5rxbxvEN0blE2LJ5YyF9OtdNfWNtqEHkXcQli3BtpJ6jpVigDmfB094bjV7S8vJLv7JcBEeQDOMf/Wrpqr21jbWks8sEQR7h98pBPzN61DrOqW+j6fLeXJ+RBwo6u3ZR7mgDM8Y6kYrH+y7VPOv9SUwxRjspGGY+gAz/AJBqPwbfukDaJfIIr/TgEKjpJH2Yfp+nrTvC+l3Bkl1rVRnUbwfKh/5YR9lHp7//AK6f4o0ia5EWp6Z8mqWXzRkf8tV7ofXPP5+9AHQVg+LvD83iC0iihvGt/LJJQ5KSZxw2D7frV3QdXh1vTkuoflb7skZ6xuOoNaNAHHWN/qPhmAW99oKfZV6z6cMj6lev4nFbuleIdL1YAWd5G0h/5Zsdr/kea1KydV8N6VqxLXVonmn/AJap8j5+o6/jQBrUVy39i69pPOkar9rgHS2vhuOPQOOf5UqeL2snEWv6bcac2ceaB5kR/wCBD/69AB8N/wDkVLf/AK6Sf+hGuorlfhrIjeF4UV1LLI+5QeR8x611VABRRRQAUUUUAFFFFABRRRQAUUUUAFFFFABRRRQAUUUUAFFFFABRRRQAUUUUAFFFIzBVLMQFAySTwBQBi+LNWk03ThHaDdf3jeTbKOu49/w/wqz4f0lNF0qGzQ7nUbpH/vueprF0BT4g1yfXpgfssGYLFSO38T/j/X2rrKACiiigAooooAKKKKACuY1H/kftI/69Zf6109cxqP8AyP2kf9esv9aAOnooooAKKKKACiiigAooooAKKKKACiiigAooooAKKKKACiiigAooooAKKKKACiiigAoqK5mFvbyStkhFJwBkn8Kw7MrqNhcQSz34Ns5YMxlt5HBXIzna2ASR6cUAdDWdqOjW2pXtnc3JdhaMWSLPyM3YkeorMFrJaWOn3NtcXjyZErpJcySBx5eWXDE9cfgelXXkN1rNm6Sv5Co5CpIQrthTkgdeD3oA16KxNT02ObUrYtc3y+e7BhHeSxqAEOAArADkZplp4geYSqllNtXasEkgdVkJbaMsyADnn5S3H5UAXbPRray1S7v7cujXYHmRg/IWH8WPX/6/rWjWBNfXlreefJakN9nzNF9pJjUB8bl45JB44Ge+KnGr3JmkjeyjVQ0sasLg/MyjI/h4BHfqD2PWgDYorKstRnuPIFtaBodiGVmn+ZCy5GAR8wGRkkg+xqsmuvGtkPsq7Z2w4NwzMhLlcgbSSM9ztHQDPSgDeprosilXUMp4IIyDWbp2qT3dwsU1osIZXKss2/JRtp4wOORg/oK1KAPPPB3hez1Pw9b3qy3FpfBnAuIJCrcNxkdK2seKtH6GDWrZex/dTY/kf1NL8N/+RUt/+ukn/oRrqKAOds/GWmyyi3vhLptz3juk2fr0/PFdBG6SIHjZXRuQynINQ3lja38XlXlvFPH/AHZFBxXPyeDxZuZdB1G501yc+XnzIj9VP/16AOoorlv7Y8QaRxquli+gHW4sTk49Sh/+sK0tL8TaTqpCW12gm6eVJ8j59MHr+FAGvRRRQAUUUUAFFFFABRRTZJEiRnkdURRksxwB+NADqK5m48XLcztbaBZyapOPvOp2xL9WNR/2f4q1I7rzU4NNjP8AyytY97fiT/Q0AdVTWdU+8wX6nFcyPBNtNzqGpalet/00nOPy/wDr09fAXh8fes3c/wC1M/8AQ0AdICGGQQR7UtcyfAWg5ylvLGf9mdv6mmnwfLb/APIN13Urb0V5PMUfhxQB1FFcsG8WaWPnS11iEd1PlS4/l/OrmleKrDUJvs0u+yvQcNb3A2tn29aAN2iiigArmfF93LdPb6BYvi5vz+9Yf8s4f4ifryPzrfvryGws5rq4bbFCpZj7Vg+D7Oac3Gu364u9QOY1P/LOL+ED68H8qAN6ytIrG0htbddsUKhFHsKnoooAKKKKACiiigAooooAK5jUf+R+0j/r1l/rXT1zGo/8j9pH/XrL/WgDp6KKKACiiigAooooAKKKKACiiigAooooAKKKKACiiigAooooAKKKKACiiigAooooAgurWK7jEc2/aGDDZIyHIORypH5VFcaZbXE8k8nnCSSLymKXEiAr9AQM8nnrVyigCmmmWyLaqvnbbX/VDz5DjjHPPzceuaRdKtEngmRHRrcMIwsrhRnr8oOD+Iq7RQBWuLGC4uYLiTzfMgJMe2Z1Az6qCAfxBqH+xrH98PKYrN1UyuVXnPyjOE55+XHNX6KAMt/D+nvu3LcEtH5TH7XLllznk7uTnv1pRoNiG3AXGd7v/wAfcv3mGGP3vStOigChHo1lE0LIkimFQi4nfBA6bhn5sdi2cVD/AMI7p2IwEuAIzkYu5Rn5iwz83OCSRnpWrRQBQtdHs7SWOWFZg8YYLuuJGA3HLcFiDk1foooA5f4b/wDIqW//AF0k/wDQjXUVy/w3/wCRUt/+ukn/AKEa6igAooooAKzNU8P6Xq4P22zjkc/8tANrj/gQ5rTooA5b+wNZ0rnRNXaSIdLa+G9foGHI/SgeLLjTiE8QaVPZ9vPiHmRH8R0+nNdTSEBgQQCDwQaAKun6nZanH5ljdRTr32Nkj6jqPxq3WBqHg/SryTzoomsrkcia1byyD9Bx+lVfs/inR/8AUTw6zbj+Cb93KB7HofxzQB1NFc3a+M7HzRb6pDPpdx/cuUIU/RvT3OK6GGaOeMSQyJIjdGRgQfxFAFfVNRttJsZby7fZFGO3Vj2A9Sa5m103UfFhjvNbJttNJ3RWCEguOxc/5/CrE0I8Q+LDHKoew0gAlD0eZuRkew/zzXU0AQ2trBZwLDbQpDEvREXAqaiigAoqnbatp13OYLa/tZ5hnMccyswx14BzVygAoopqurlgrBipwwBzg+hoAdWdrGh2GtQ+XewK5A+WQcOv0NaNFAHIQXmoeFLiG11ab7XpMjbIrwj5oT2D+3v/APqrrgQQCDkHoRUN7aQ31rLbXKB4ZV2sprjtP15/Dul6jp16TLdaa4jts9ZVb/Vj/PagC5rpPiHXodDiObO2xPfMO/8AdT/P9K6tQFUKoAAGAB2rG8KaS+l6buuiXvrpvOuXPUse34f41tUAFFFFABRRRQAUUUUAFFFFABXMaj/yP2kf9esv9a6euY1H/kftI/69Zf60AdPRRRQAUUUUAFFFFABRRRQAUUUUAFFFFABRRRQAUUUUAFFFFABRRRQAUUUUAFFFFABRRRQAUUUUAFFFFABRRRQAUUUUAFFFFAHL/Df/AJFS3/66Sf8AoRrqK5f4b/8AIqW//XST/wBCNdRQAUUUUAFFFFABRRRQAUUUUAQ3VrBeRGK6hjmjPVZFDD9a5+bwbDBI02iXtzpcx5xGxaNvqp/xrpqKAOV8CrNG2speOJLxb5vNcDAbgYIHp1rqq5W6mHh3xV9plO3T9WAWRz0jmXoT6Aj/ADxXU0ALRRRQByNjPBLdfabm9tTYW99K0bJgeXKSQA7knghjjAHYc55QatqLm9Z7+CHymBMaOrvDiQD5lMY2gr6sSeoIrr6rahafbrYwGaSEFlbdHtzwc/xAjt6UAcxqOuTWtorpqyFBI7QzuYkW4QbTgsVwepGEGTjqOTVpNVNxfrBHrCqGvHiAQxElfLDADjsePx710o4HXNLQAUUUUAFcW2mwah8R5ZJBuS0t0lK9jJ0XP0Bz+FdZf3sGnWct1dSCOGIZYn+X1rD8HWs8ou9avUKXOpPuVD/BEOFH5f0oA6SiiigAooooAKKKKACiiigAooooAK5jUf8AkftI/wCvWX+tdPXMaj/yP2kf9esv9aAOnooooAKKKKACiiigAooooAKKKKACiiigAooooAKKKKACiiigAooooAKKKKACiiigAooooAKKKKACiiigAooooAKKKKACiiigDl/hv/yKlv8A9dJP/QjXUVy/w3/5FS3/AOukn/oRrqKACiiigAooooAKKKKACiiigAooooArajYW+p2clpdxiSGQYIPb3Hoa5iK91Dwfst9T3XukD5YrtFy8I7Bx6f59q7CmuqupV1DKRggjINAENle21/AJ7OeOaI9GQ5qxXN3fhCBLg3WjXUulXJ6+TzG31XpUP2nxbppxNZ2uqxD+OF/Kf8QePyFAHVUVy48ZeRxqGi6nan18ncv58Uv/AAnuij/WNcxf78DUAdPRXMf8J3pLf6pLyX/ctzSHxXfXP/IO8OX8oPRpwIh+ZzQB1FZeta/p+ix5u5h5pHyQpy7/AEFZQtvFeqf8fN1baTCf4IF8yTH16fiDV/R/DGnaU/nKjXF2eWuZzvcn156UAZ1pYX/iW5ivtbj+zWETb7ew7sezSf4f5PV0UUAFFFFABRRRQAUUUUAFFFFABRRRQAVzGo/8j9pH/XrL/WunrlNXJHxB0IAkZglB9/lagDq6KKKACiiigAooooAKKKKACiiigAooooAKKKKACiiigAooooAKKKKACiiigAooooAKKKKACiiigAooooAKKKKACiiigAooooA5f4b/APIqW/8A10k/9CNdRXL/AA3/AORUt/8ArpJ/6Ea6igAooooAKKKKACiiigAooooAKKKKACiiigAooooAKKKKACiiigAooooAKKKKACiiigAooooAKKKKACiiigAooooAK5PV/wDkoWg/9cZf/QWrrK5PV/8AkoWg/wDXGX/0FqAOsooooAKKKKACiiigAooooAKKKKACiiigAooooAKKKKACiiigAooooAKKKKACiiigAooooAKKKKACiiigAooooAKKKKACiiigDl/hv/yKlv8A9dJP/QjXUVy/w3/5FS3/AOukn/oRrqKACiiigAooooAKKKKACiiigAooooAKKKKACiiigAooooAKKKKACiiigAooooAKKKKACiiigAooooAKKKKACiiigArk9X/5KFoP/XGX/wBBausrk9X/AOShaD/1xl/9BagDrKKKKACiiigAooooAKKKKACiiigAooooAKKKKACiiigAooooAKKKKACiiigAooooAKKKKACiiigAooooAKKKKACiiigAooooA5f4b/8AIqW//XST/wBCNdRXL/Df/kVLf/rpJ/6Ea6igAooooAKKKKACiiigAooooAKKKKACiiigAooooAKKKKACiiigAooooAKKKKACiiigAooooAKKKKACiiigAooooAK5PV/+ShaD/wBcZf8A0Fq6yuN1V2PxN0aMn5VtXIHuRLn+QoA7KiiigAooooAKKKKACiiigAooooAKKKKACiiigAooooAKKKKACiiigAooooAKKKKACiiigAooooAKKKKACiiigAooooAKKKKAOX+G/wDyKlv/ANdJP/QjXUVyqeCRb7ksta1O0g3ErDFOQq57Cnf8Ihcf9DJrH/gQaAOoorl/+EQuP+hk1j/wINH/AAiFx/0Mmsf+BBoA6iiuX/4RC4/6GTWP/Ag0f8Ihcf8AQyax/wCBBoA6iiuXHhG4B/5GTWP/AAINL/wiVz/0Mer/APf+gDp6K5j/AIRK5/6GPV/+/wDR/wAIlc/9DHq//f8AoA6eiuY/4RK5/wChj1f/AL/0f8Ilc/8AQx6v/wB/6AOnormP+ESuf+hj1f8A7/0f8Ilc/wDQx6v/AN/6AOnormP+ESuf+hj1f/v/AEf8Ilc/9DHq/wD3/oA6eiuY/wCESuf+hj1f/v8A0f8ACJXP/Qx6v/3/AKAOnormP+ESuf8AoY9X/wC/9H/CJXP/AEMer/8Af+gDp6K5j/hErn/oY9X/AO/9H/CJXP8A0Mer/wDf+gDp6K5j/hErn/oY9X/7/wBH/CJXP/Qx6v8A9/6AOnormP8AhErn/oY9X/7/ANH/AAiVz/0Mer/9/wCgDp6K5j/hErn/AKGPV/8Av/R/wiVz/wBDHq//AH/oA6eiuY/4RK5/6GPV/wDv/Sf8Ihcf9DJrH/gQaAOoorl/+EQuP+hk1j/wINH/AAiFx/0Mmsf+BBoA6iiuX/4RC4/6GTWP/Ag0f8Ihcf8AQyax/wCBBoA6iuL1T/kqOj/9ejfylq5/wiFx/wBDJrH/AIEGp9L8Jw2Oqx6jPfXd9cxIVja4kLFAcj+p496AOhooooAKKKKACiiigAooooAKKKKACiiigAooooAKKKKACiiigAooooAKKKKACiiigAooooAKKKKACiiigAooooAKKKKACiiigAooooAKKKKACiiigAooooAKKKKACiiigAooooAKKKKACiiigAooooAKKKKACiiigAooooAKKKKACiiigAooooAKKKKACiiigAooooAKKKKACiiigAooooAKKKKACiiigAooooAKKKKACiiigAooooAKKKKAP//Z;" vertex="1" parent="1">
          <mxGeometry x="-810" y="230" width="563" height="755" as="geometry" />
        </mxCell>
        <mxCell id="x4foHunh-fA2Mw2qe-4b-2" value="" style="shape=image;verticalLabelPosition=bottom;labelBackgroundColor=default;verticalAlign=top;aspect=fixed;imageAspect=0;image=data:image/jpeg,/9j/4AAQSkZJRgABAQAAAQABAAD/4gHYSUNDX1BST0ZJTEUAAQEAAAHIbGNtcwIQAABtbnRyUkdCIFhZWiAH4gADABQACQAOAB1hY3NwTVNGVAAAAABzYXdzY3RybAAAAAAAAAAAAAAAAAAA9tYAAQAAAADTLWhhbmSdkQA9QICwPUB0LIGepSKOAAAAAAAAAAAAAAAAAAAAAAAAAAAAAAAAAAAAAAAAAAlkZXNjAAAA8AAAAF9jcHJ0AAABDAAAAAx3dHB0AAABGAAAABRyWFlaAAABLAAAABRnWFlaAAABQAAAABRiWFlaAAABVAAAABRyVFJDAAABaAAAAGBnVFJDAAABaAAAAGBiVFJDAAABaAAAAGBkZXNjAAAAAAAAAAV1UkdCAAAAAAAAAAAAAAAAdGV4dAAAAABDQzAAWFlaIAAAAAAAAPNUAAEAAAABFslYWVogAAAAAAAAb6AAADjyAAADj1hZWiAAAAAAAABilgAAt4kAABjaWFlaIAAAAAAAACSgAAAPhQAAtsRjdXJ2AAAAAAAAACoAAAB8APgBnAJ1A4MEyQZOCBIKGAxiDvQRzxT2GGocLiBDJKwpai5+M+s5sz/WRldNNlR2XBdkHWyGdVZ+jYgskjacq6eMstu+mcrH12Xkd/H5////2wBDAA8KCw0LCQ8NDA0REA8RFiUYFhQUFi0gIhslNS84NzQvNDM7QlVIOz9QPzM0SmRLUFdaX2BfOUdob2dcblVdX1v/2wBDARARERYTFisYGCtbPTQ9W1tbW1tbW1tbW1tbW1tbW1tbW1tbW1tbW1tbW1tbW1tbW1tbW1tbW1tbW1tbW1tbW1v/wAARCALGA4wDASIAAhEBAxEB/8QAHwAAAQUBAQEBAQEAAAAAAAAAAAECAwQFBgcICQoL/8QAtRAAAgEDAwIEAwUFBAQAAAF9AQIDAAQRBRIhMUEGE1FhByJxFDKBkaEII0KxwRVS0fAkM2JyggkKFhcYGRolJicoKSo0NTY3ODk6Q0RFRkdISUpTVFVWV1hZWmNkZWZnaGlqc3R1dnd4eXqDhIWGh4iJipKTlJWWl5iZmqKjpKWmp6ipqrKztLW2t7i5usLDxMXGx8jJytLT1NXW19jZ2uHi4+Tl5ufo6erx8vP09fb3+Pn6/8QAHwEAAwEBAQEBAQEBAQAAAAAAAAECAwQFBgcICQoL/8QAtREAAgECBAQDBAcFBAQAAQJ3AAECAxEEBSExBhJBUQdhcRMiMoEIFEKRobHBCSMzUvAVYnLRChYkNOEl8RcYGRomJygpKjU2Nzg5OkNERUZHSElKU1RVVldYWVpjZGVmZ2hpanN0dXZ3eHl6goOEhYaHiImKkpOUlZaXmJmaoqOkpaanqKmqsrO0tba3uLm6wsPExcbHyMnK0tPU1dbX2Nna4uPk5ebn6Onq8vP09fb3+Pn6/9oADAMBAAIRAxEAPwD0SiiigAooooAKKKKACiiigAooooAKKKKACiiigAooooAKKKKACiiigAooooAKKKKACiiigAooooAKKKKACiiigAooooAKKKKACiiigAooooAKKKKACiiigAooooAKKKKACiiigAooooAKKKKACiiigAooooAKKKKACiiigAooooAKKKKACiiigAooooAKKKKACiiigAooooAKKKKACiiigAooooAKKKKACiiigAooooAKKKKACiiigAooooAKKKKACiiigAooooAKKKKACiiigAooooAKKKKACiiigAooooAKKKKACiiigAooooAKKKKACiiigAooooAKKKKACiiigAooooAKKKKACiiigAooooAKKKKACiiigAooooAKKKKACiiigAooooAKKKKACiiigAooooAKKKKACiiigAooooAKKKKACiiigAooooAKKKKACiiigAooooAKKKKACiiigAooooAKKKKACiiigAooooAKKKKACiiigAooooAKKKKACiiigAooooAKKKKACiiigAooooAKKKKACiiigAooooAKKKKACiiigAooooAKKKKACiiigAooooAKKKKACiiigAooooAKKKKACiiigAooooAKKKKACiiigAooooAKKKKACiiigAooooAKKKKACiiigAooooAKKKKACiiigAooooAr317b6favc3UgjiXqT39h6muSl8b3t1MyaVphkAOFLBnJ/Ben50zxW0mr+KbTRxIVhXbux2J5J/75rsbOzgsbZbe1iWONegUfqfegDj/+El8U/wDQF/8AJWX/ABo/4SXxT/0Bf/JWX/Gu3ooA4j/hJfFP/QF/8lZf8aP+El8U/wDQF/8AJWX/ABrt6KAOI/4SXxT/ANAX/wAlZf8AGj/hJfFP/QF/8lZf8a7V2VELuQFUZJPYVyB8W6pql3LD4d0xLiOI8yzHAP6jH50AQ/8ACS+Kf+gL/wCSsv8AjR/wkvin/oC/+Ssv+NX9H8WSy6r/AGXrFn9jvCcKQflY+n+Sa6GW9tYZ0gmuYY5pPuRvIAzfQdTQBx//AAkvin/oC/8AkrL/AI0f8JL4p/6Av/krL/jXYR3tpLcNBHdQvMv3o1kBYfUda53xnrF/pdzpyWU/lLM5Eg2K2RkeoPrQBR/4SXxT/wBAX/yVl/xo/wCEl8U/9AX/AMlZf8a2Nfm1GPULMWWrWVnG334rhlDScj7uVP0rYuL20tZEjuLqGF5PuLJIFLfQHrQBx/8Awkvin/oC/wDkrL/jR/wkvin/AKAv/krL/jXYC9tGuTbLdQmcdYhIN35damZgqlmIAHJJ7UAcT/wkvin/AKAv/krL/jR/wkvin/oC/wDkrL/jXXQajZXMpjt7y3lkHVY5VYj8Aas0AcR/wkvin/oC/wDkrL/jR/wkvin/AKAv/krL/jW14l8SJofkwxwG4u5/9XGDgemT+NZr634ttUM91oULQjkiJssB+DH+VAFf/hJfFP8A0Bf/ACVl/wAaP+El8U/9AX/yVl/xq3401y+07SrG5sJvIec5b5VbjbnHIrokv7UPFDJdQrcOoIjMgDH8KAOS/wCEl8U/9AX/AMlZf8aP+El8U/8AQF/8lZf8a7YkAEkgAdSarw6jY3EpigvLeWQdUSVWP5A0Acj/AMJL4p/6Av8A5Ky/40f8JL4p/wCgL/5Ky/412NzdW9pH5l1PFAmcbpXCjP1NRnUrFZEjN7bh5ACimVcsD6DPNAHJf8JL4p/6Av8A5Ky/40f8JL4p/wCgL/5Ky/412VxcwWkXm3M8cMecb5HCj8zUR1OwUxg31sDKAUBlX5wfTnmgDkv+El8U/wDQF/8AJWX/ABo/4SXxT/0Bf/JWX/Guk8QyXUelM9jfW9lKGX99cMAgHpkgin2N19n0aCfUr62dto33AcCNie4PAoA5j/hJfFP/AEBf/JWX/Gj/AISXxT/0Bf8AyVl/xrrW1KxRY2e9t1WXmMmVQH+nPNWc8Z7UAcT/AMJL4p/6Av8A5Ky/40f8JL4p/wCgL/5Ky/411n9qafmQfb7XMXL/AL5fl+vPFTW9xDdQiW2mjmjPR42DA/iKAON/4SXxT/0Bf/JWX/Gj/hJfFP8A0Bf/ACVl/wAa67Ur6HTbCW7uCfLiXJx1PtXLQeIvE2px/atL0aA2hJ2mR/mOP+BD+VAEX/CS+Kf+gL/5Ky/40f8ACS+Kf+gL/wCSsv8AjW7o+uSXFjPNq8Caa8Enlt5r7QeAQcnHrWtHPDLAJ45UeIjIkVgVI9c0AcZ/wkvin/oC/wDkrL/jR/wkvin/AKAv/krL/jXYWt5a3iM9pcwzqpwWicMAfwqP+1NP87yft9r5v9zzl3flmgDk/wDhJfFP/QF/8lZf8aP+El8U/wDQF/8AJWX/ABrS8XeJZNENslobZ5ZG/eJISSq9jgEYrcsr+1vkLWtzDPtA3eVIG2n3xQByP/CS+Kf+gL/5Ky/40f8ACS+Kf+gL/wCSsv8AjXWyalYRT+RJe2yS9PLaVQ35ZqaeeG2hMs8qRRr1d2CgfiaAOM/4SXxT/wBAX/yVl/xo/wCEl8U/9AX/AMlZf8a606lYLFHI17bCOX7jGVcP9DnmpLi8trVVa5uIoVbhTI4UH6ZoA47/AISXxT/0Bf8AyVl/xo/4SXxT/wBAX/yVl/xrtlYMoZSCDyCO9LQBxH/CS+Kf+gL/AOSsv+NH/CS+Kf8AoC/+Ssv+NdvRQBxH/CS+Kf8AoC/+Ssv+NOh8b3ltMqatphiBOGKhkI/Buv512tQXtnb39s1vdRLJG3UEdPce9ACWN7b6hapc2sgkifoR29j6GrFcP4UaTSPFN3o7SFoW3bcjqRyD/wB813FABRRRQAUUUUAFFFFABRRRQAUUUUAFFFc3411ptPsVtLcn7TdAgEdVXufqelAD9c8XWWlOYYh9quB1VGwq/U/0rIHi3X5B5kWjgxevkyH9c1p+F/C8GnW8V1dxB71hu+bkR+wHr710tAHKaX44t55xBqUBtH6b85XPv3FdUrK6hlIZSMgg5BFZmt6DZ6zCROm2YD5Jl4Yf4j2rnvB+oT6bqUug3+QwY+V7HqR9COR/9egDtaKKKACiiigAooooAKKKKACiiigAooooAKKKKACiiigAooooAKKKKACiiigAooooAKKKKACiiigAooooAKKKKACiiigAooooAKKKKACiiigAooooAKKKKAOI/wCaqf5/54V29cR/zVT/AD/zwrt6ACiiigAooooAzvEKSP4fv1hz5hgbGPpXP/DN4jotwi480TZcd8YGK7AjIwa5a78Ex/bHudK1G4015PvCLJH4YIP60AZPjQiXxlpkdvzOuzdt6j5sipPGMC3PjTSoZCwSRVU7Tg43HvW5onhK10u7N7NPLeXh/wCWsvY+oHr9TUmqeHf7R16z1P7V5f2XH7vy87sHPXPH5UAcr4j0q00LxJpDaYjQeY4JG8tzuA7k9jV/4if8fmkf9dT/ADWtrXvDn9s6jZXX2ryfsjZ2+Xu3cg9cjHSl8ReHf7cmtJPtXkfZm3Y8vdu6e4x0oAwfHf8AyMGif74/9DWk+IKCXXdHjYkBztJBweWFb2veG/7Z1Cxuvtfk/ZDnb5e7dyD1yMdKNe8Of2zqNldfavJ+yNnb5e7dyD1yMdKAOW8YaNZ6JeabPpqNC7yfMd7NkgjnkmrvxFu5/N0+xXJhm+Z0Dbd5yABnt/8AXre8SeHv7eNqftXkfZ3Lf6vdu6e4x0qxrmg2muWiwXW4FOUkQ4ZTQBxN74a1JjDJpfh57CaJt3mDUFkz+Z4r0aDeYI/NGJNo3D0OOa5RPBd3jypPEd81tjHlKSOPT7xH6V1iKERVHRRigDnfFfhxdeeJre6WG9gXKgnqCeM45HI61zt3d+LfC6pLd3C3Ftu25ZhICfTJ+YV1WveGk1i6ju0vZ7S4iXarxHtnP1/Ws+PwQ08iHVtZu7+NDkRsSB+pP6UAZvj+7F/4d0q7ClBMd+09srUPjPQLDTNHtryzR0naRQ7mRmLZGc8nrmun8SeGl1yytraO4Fqlu2VxHuGMYx1FSeItB/tzTIrP7T5HlsG3+XuzgY6ZFAHOeOb64Gg6XAJGVLlQZWz97gdfzzUXivw3p2kaBDe2CvFcI6fvBISXz368evFdZqOgWup6RFYXZYiJQEkXhgQMZFYqeBPMeNL/AFi6uraI/JCcgD25J/QCgCn4puZbz4f2FxP/AKyQxlj6nB5qtr3h3TLTwdDqEETJdbYyXMjHcTjPBOO/atf4iRpD4XijjUKiSoqgdgAarW3gxtRs7OS51i8ktTGr/Z3O7HHQEnA/KgCDWJ5bj4Y2skxLOSgJPU4JAqvfeHdMj8CxaksRS7MKOZPMJ3E44wTitrx3BFa+DhBAgSON41VR2Aqhp3g99U0iwkn1i7Nq8SubYncF46LzgflQBDe3Etz8LInmJLB1UE9SA+B+lT6x/wAkutf9yL+ddDqvh+G+8PjSbeT7NEu3a23dgA+mRUV54c+1eF4tG+1bfLVR53l5ztP93P8AWgDmLvw/p/8AwgcepCN/tYhRvMMjHuOMZxj8Knvb+5h+GVqySMGkxEz5525PH6YrpZtB83wuujfacYjWPzvL9D125/rVa60mz0/wa1jqMjzW8CZaRFw3XOQMnpmgDnpvDOlw+Bv7QERe7MAk83zG4Jx2zj9K6DwB/wAinbf7z/8AoRriLxtMg0qWC11+9uweIrUI8aKc/wAWeD+Fd/4OtJLLwzaRTIUcguVPUZJNAF3WbODUNMmtLmQRpMAobIGDnjH41xY8PeKdCjb+zL8SwJlgiv8A+ytxXaaxpkOsadJZTu6I5B3IRkEHI61zw8F3oHlDxHei2xjyvm6en3sfpQAaBqUvi7w9fWl8i+aq7N6jAbI4OOxyKwLHXWsfBt/psjbbqKQwouecMefywa73RdGtNEs/s1orYJyzscsx9TXDS6bb6p8R5IbcZhSTzJvTIAz+tAG2mhXkHgH7FY/LdyqJHAOC2Tkrn6cVysUdhp8CQ634cuo2+61yJXUk+oB+WvStY0warYG28+S3O4MskRwykVz/APwhE1wwXUtdvLu3ByImJ/qx/lQBlePLSya20u8t1LGYBPMJOWQAY46d62Nas7fw14Vu5dIhMEkwRWYOzHk4zyTjrWjrvhu11jTYbPc0Ag/1TKM7eMYx3pul+HXtdPuLPUdQm1GKcBcS5AUegyTigDi7DQpr7Q1eHw808sqkrefb1HPrsPH4Gti7tr+z+G89vqaFZoyAAXDfLuGOQTVlfA89sxXTtevLWAnJjXP8ww/lWnL4bD+G5NJF7KxkO4zyjexOc+o/nQByg0Gwk8Af2k0bm7WPcJDI3HzYxjOMfhS2uj2d74BfUrlZJLuKN9kjSsdoUkAAZxiurXw/t8KnRftXVCvneX75+7n+tJaeHfs3haTRftW7err53l4xuOfu5/rQBD4BkeTwrb72LbWZRnsAeBXRVm+HtJ/sTSksvP8AP2szb9m3OTnpk1pUAFFFFABRRRQBxH/NVP8AP/PCu3riP+aqf5/54V29ABRRRQAUUUUAFFFFABRRRQAUUUUAFcPrAFx8RbOOXlE2YB6cZb+ddxXF+N7aay1Sz1q3XIjKq/sQcjP16UAdpRVXTb6HUrGK7gOUkGcd1PcH6VaoAK4fxWBB4z0yaLh28snHfD4/lxXbOyojO5CqoySegFcLaO3ifxqt3Gp+yWhBBPovK/m3NAHeUUUUAFFFFABRRRQAUUUUAFFFFABRRRQAUUUUAFFFFABRRRQAUUUUAFFFFABRRRQAUUUUAFFFFABRRRQAUUUUAFFFFABRRRQAUUUUAFFFFABRRRQAUUUUAcR/zVT/AD/zwrt64j/mqn+f+eFdvQAUUUUAFFFFABRRRQAUUUUAFFFFABRRRQAUUUUAFFFFABRRRQAUUUUAFFFFAENza293H5d1BFOmc7ZUDDP0NSIixoqIoVVGAqjAAp1FAEVxbQXcXlXMMc0ZOdkiBhn6GnRRxwxLHEixxoMKqjAA9AKfRQAUUUUAFNdFkQo6hlPBBGQadRQBUi0rT4ZfNisLWOT++sKg/nirdFFABRRRQAVXgsbO2meW3tYIpJPvvHGFLfUjrViigAooooAKKKKACiiigAooooAKKKKACiiigAooooA4j/mqn+f+eFdvXEf81U/z/wA8K7egAooooAKKKKACiiigAooooAKKKKACobu1ivbWS2nXdFKu1hU1FAHBy6RrXhe6M+ks91ascsgXOf8AeUfzH6VIPiBMg2S6WPN6f60j9NtdxXEa9/yULTv+2X/oRoAgkbxB4sdYjEbSy6k4KqR792/lXXaLpFvo1iLeDLEnc7t1Y1oUUAFFFFABRRRQAUUUUAFFFFABRRRQAUUUUAFFFFABRRRQAUUUUAFFFFABRRRQAUUUUAFFFFABRRRQAUUUUAFFFFABRRRQAUUUUAFFFFABRRRQAUUUUAFFFFAHEf8ANVP8/wDPCu3riP8Amqn+f+eFdvQAUUUUAFFFFABRRRQAUUUUAFFFFABRRRQAUUUUAFFFFABRRRQAUUVXur60s13XVzFCP9twM0AWKKw5/F+iw8fazIfSNGP64xWdP4/sVz5FpPJ/vEKP60AdbRXEf8J9cSf6rSs/9tCf/ZaP+Ex1mT/VaPn/AIA5oA7eiuI/4SjxL1/sb5f+vaT/ABo/4THWY/8AW6Pj/gDigDt6K4j/AIT64j/1ulY/7aEf+y1ag8f2LY8+0uI/93DD+lAHW0VhweL9Fm4+1+WfSRGH64xWpa31reLutbmKYf7Dg4oAsUUUUAFFFFABRRRQAUUUUAFFFFABRRRQAUUUUAFFFFABRRRQAUUUUAcR/wA1U/z/AM8K7euI/wCaqf5/54V29ABRRRQAUUUUAFFFFABRRUVxdW9qu64njiX1kcKP1oAlqtqN39h0+4utm/yYy+3OM47ZrLu/GGjW2QLkzMO0Sk/r0/WsweP7ZrqNBaOkBbDyM3IHrtH+NAEH/CxP+oX/AOTH/wBjR/wsT/qF/wDkx/8AY12qMHRWGcMMjIwfyNOoA4j/AIWJ/wBQv/yY/wDsaxL/AMRfbPENtqv2XZ5G3915md2CT1x7+lepVxGvf8lC07/tl/6EaAD/AIWJ/wBQv/yY/wDsaP8AhYn/AFC//Jj/AOxrt6KAOI/4WJ/1C/8AyY/+xrovDus/25YPc/Z/I2SmPbv3ZwAc5wPWtWigAooooAKKKKACiiigAooooAKKKKACiiigAooooAKKKKACiiigAooooAKKKKACiiigAooooAKKKKACiiigAooooAKKKKACiiigAooooAKKKKACiiigDiP+aqf5/wCeFdvXEf8ANVP8/wDPCu3oAKKKKACiiigAooooAKKKKACiiigAooooAKKKKACiorm5htIGmuZUijXqzHArj9S8XXeoz/YvD8Dszcebtyx+g7D3P6UAdZfajZ6fHvvLiOFe248n6Dqa5e+8db5PI0izeeQnAaQHn6KOT+lNsPBDzuLjWrt5JG5ZEbJ/Fj/n3rqbDTbPTo9lnbpEO5A5P1PU0Ach9n8Yav8A6yU2kTdtwj/QfN+dWLXwDEW36hfSSseSIxj9TnNdjRQBhweENFh5+yeYfWR2P6ZxWjBplhbY8iyt4yO6xgH86t0UAFFFFABRRRQAVUn0ywuc+fZW8hPdowT+dW6KAMOfwhos3P2Tyz6xuw/TOKyrrwDGG8zT76SJhyBIM/qMYrsaKAOG+z+MNI/1chu4h6MJP0PzflVix8dBJPI1ezeCQHBaMHj6qeR+tdjVS/0yy1KPZeW6SjsSOR9D1FADrLULTUI/Ms7iOZe+08j6jqKs1xl/4Ikgc3Gi3bxyLyqO2D+DD+v503TfF11p0/2LxBA6svHm7cMPqO49x+tAHa0VFbXMN3As1vKksbdGU5FS0AFFFFABRRRQAUUUUAFFFFABRRRQAUUUUAFFFFAHEf8ANVP8/wDPCu3rh3ZU+KRZ2CqOpJwB+4ro7vxLo9pkSX0TEdozvP6ZoA1aK5G68f2aZFraTTH1chB/Wqv9v+KNS4sNP8lD0cRf+zNxQB3FU7vVtPss/abyGMj+EuM/l1rk/wDhG/Empc6hqPloeqGQt/46OKuWngGxjwbq5mmPouEH9T+tAE93450qHIhE1we21No/XH8qzG8ZarfErpel57Zw0h/TArpbTw7pFngw2EOR/E43n8zmtJVCqAoAA6AUAcR9i8Y6n/rrg2qH/bCcfRefzqWDwDvbff6i8jHqI15/M5/lXZ0UAc+vhjQdLtnuJrfzFiUszzMW4Ht0/SuT0SAa/wCK1kMKR26N5hjRQFVF6Lgcen61qeP9Z3MulQNwMPOR69l/r+VaHgDTvsuktduuJLpsj/dHA/XP6UAdRRRRQAVxGvf8lC07/tl/6Ea7evP/ABDf2yeO7aYyAx2zRrKw/hIJJ/LNAHoFFIrBlDKQVIyCOhpaACiiigAooooAKKKKACiiigAooooAKKKKACiiigAooooAKKKKACiiigAooooAKKKKACiiigAooooAKKKKACiiigAooooAKKKKACiiigAooooAKKKKACiiigDiP+aqf5/54V29cR/zVT/P/PCu3oAKKKKACiiigAooooAKKKKACiiigAooooAKo6xqtto9k1xct7Ig6ufQVbmlSCF5pWCxxqWZj2ArgrOCbxnr73VwGSwg4C57dlHuep//AFUALa2OpeMrz7VfO0FihOwL0+ijufU//qrtNN0yz0uDyrOFYx3PUt9T3qxFGkMSxxIERBhVUYAFPoAKKKKACiiigAooooAKKKKACiiigAooooAKKKKACiiigAqpqWmWeqQeVeQrIOx6Mv0PardFAHAXVlqXg27+1WLtPYuRvDdPow7H0P8A+qux0fVbbV7Jbi2b2dD1Q+hq3LEk0TRSoHRxhlYZBFcFdwTeDNfS5twz2E/BXPbup9x1H/66APQKKZDKk8KTRMGjkUMrDuDT6ACiiigAooooAKKpXesadZZ+03sKEfwlwW/Ic1jXfjrSociBZrg9iq7R+vP6UAdNRXDnxjq9+Sul6XweM7WkI/LAo+weMNT/ANfcm2Q9jIE4+ic/nQB2Vxd29qu65nihHrI4X+dY934x0a2yBcNMw7RIT+pwP1rKt/AKs2+/1CSRj1Ea4P5nP8q2LTwlo1rg/ZBKw7ysW/Tp+lAGNN49eV/L0/TWdj0Ltk/98j/Go/tHjLVP9XEbVD/siPH/AH181dpDBDbpsgiSJfRFCj9KkoA8tTRrm68VjTNRuiZ35kmBLn7m4devGBXXWngfSIMGVZbg/wC2+B+QxWZ/zVT/AD/zwrt6AKlppljZY+zWkMRHdUGfz61boooAKKKKACiiigAqjrWpx6Tpkt2+CVGEU/xMegq9Xn3iW+/t3XfskbkWVkGaRx7feb+g/wDr0Ac/bw3GratHGzFprqTLMfc8n+teuwQpb28cMQ2xxqFUegFcV4CsvtN/c6o6BVT93EOwJ64+gwPxruaACiiqeq6jDpVhJd3B+VOijqx7AUAZni3XhpFj5ULf6XOCE/2B3b/CsbTvBhuNBkkuyVvp/wB5GSfuegP17/8A1qPDOnT69qj65qQ3Rh/3aHoSOmPYfz/Gu4oA43wZrUkMp0TUMpLGSIi/UY6p/h/+quyrk/GmhNOn9q2QYXMOC4XqyjuPcfy+laPhXXV1mwxIQLqEASL6+jD60AbdFFFABRRRQAUUUUAFFFFABRRRQAUUUUAFFFFABRRRQAUUUUAFFFFABRRRQAUUUUAFFFFABRRRQAUUUUAFFFFABRRRQAUUUUAFFFFABRRRQAUUUUAFFFFAHEf81U/z/wA8K7euI/5qp/n/AJ4V29ABRRRQAUUUUAFFFFABRRRQAUUUUAFFRXF1BaR+ZczRxJ/edgo/WsC/8b6XbZWDzLpx/cGF/M/0oAj+IF8bfR47ZGw1y+Djuo5P64rV8OaeumaLbwBcOVDye7Hr/h+FcDretT65eWclxbCCBWwmMnIJGeT17V6jQAUUUUAFQXt5Bp9o9zdOUhj5ZgpbH4Dmp6hvbZLyzmtpRlJUKH8aAGx3ttLYC9SUG2KeYJMHG31qkfEFtJaQXVnBd3sMzlA1vATtx3IOMD3riF1SW28LXPh9m/00XP2dF7lSef8AD8a2/ESzaJpGi2tnPLCFnSNzG5XdxznHXmgDsaK4rXtWupvEsunBtTW2gjB26amZWJxyT2FFlLrN34d1WCY6hDJB89rNMrRSso5wT3PH60AdrRXn95reoahptg9hcSLJa232m5KORuwQMHHXOCea19Mv5tX8YSSQXMv2K2tlzGrnYzsM8joev6UAdFeXH2S1kn8mabYM+XCu52+g71Vl1uztrK3ur3zbVbhgqJNGd4Y9iBnFM8USyQeHL6WGR45FiJV0Ygg+xFcf4hjkuvDGgXM11cNI7IjZkyCSCd3+970AeiUVyPiO5uvDuk2traXd5M1zPtaaRvNlA7hff0qDRbrU4dfgiii1uSxlBEp1GI/I2OCD2FAHa0VwWnfb9QsdckbVr6P7LM5jCS+mSBk849gRTbu81JvBttrf9qXS3CMF2KQqMN2OQByfqaAO/ork/E9zq7RafJard/Y5EDXBsh+9yR29Ks+EL63uluY4b6/naMjdFfYMkfXuOo/woA6OiiigArM8R6eup6LcQFcuFLx+zDp/h+NadFAHL/D++Nxo8ls7Za2fAz2U8j9c10zusalnYKo6ljgV5FDqV3p09ythcNCkr4Yr1IBOOfxrf03wxLrsQubjWlnXvtLSMPY7sYP4UAdVd+JtHtMiS+jZh2i+f+VY114/tEJFpZzSnsXIQf1q5aeCNIgwZUluD/00fA/IYrZtdNsrL/j1tIYj6ogB/OgDkf7d8U6n/wAeNh5KHowi/q3FH/CM+ItS51HUtiHqhkLf+Ojiu4ooA5S08A2EWDc3E059BhAf5n9a2bTw/pNnjybCHI/icbz+ZzWlRQAgAUAAAAdhS0UUAFFFFABRRRQBxH/NVP8AP/PCu3riP+aqf5/54V29ABRRRQAUUUUAFFFNkkWKNpJGCogLMT2AoAw/F+s/2VpRSJsXNxlI8dVHdv8APc1yF3bnR/DcUBBF5qRDuO6xjov4nBrQ0+N/Fvip7yZT9itiMKemB91fx6n8adZ/8VH46e4PzW1ocr6EKfl/NuaAOr0DTxpej29rj51XdJ/vHk1oUUUANd1jRndgqqMknoBXBzvN408QCGEsmn23JPt6/U9v/wBdW/F2rTaheJoOm5Z3bbKQep/u/QdTXR6HpMOj6cltFgv1kfH329aALkEMdvAkMKBI4xtVR0AqSiigArgtesJvDGsx6tpy/wCjyN8ydlJ6qfY9q72obu1hvbWS2uF3xSrtYUAR6bfw6lYx3Vu2UkHTup7g+9Wq8/0+4n8Ha+9ndEtZTnIftjsw9+xrv1YMoZSCpGQR3oAWiiigAooooAKKKKACiiigAooooAKKKKACiiigAooooAKKKKACiiigAooooAKKKKACiiigAooooAKKKKACiiigAooooAKKKKACiiigAooooAKKKKAOI/5qp/n/AJ4V29cR/wA1U/z/AM8K7egAooooAKKKKACiqF/rWnadkXV3EjD+AHLfkOa5688ew7vL06zkmc8BpPlH4AZJ/SgDsKq3mo2dgu67uYofZm5P0HU1x+fF+t9M2ULf9sh/8VVqz8BRbvM1G8kmc8lY+B+ZyT+lAEt/48sIcrZwyXLdifkX9ef0qh/aXivWuLS3NrC38QXZx/vNz+VdXYaJpunYNrZxow/jI3N+Z5q/QBxdt4FmuJPN1bUXkc9QhLH/AL6b/Ct6w8NaTYYMVmjuP45fnP69PwrWooA5L4h2Rk0y3u0H/Hu+047K3/1wPzrf0S+XUtItroMCzoN/sw4I/OrF3bR3lpLbTDMcqlWH1riNDvpfCusy6VqLYtpGyr9gT0b6HofT8KAO9opAQQCDkHoRS0AFFFFAGLJ4W0+XXhq7GXzwwbYCNhIGM4xn9as6xo1vrC24uXlX7PKJV8sgZI9cg8Vo0UAZep6BZ6lcrdM89vdKNontpNj49M1LpukxacsgE9zcPLgPJcyl2IH/AOur9FAGNpPhjT9JF0LfzWF0Nr+YQcDngYA45qXQdAtNBhljtGlcStuZpSCfpwBWpRQBW1Gyj1Gwms5mdY5l2sUIBA9s1SuPDtjc6LDpcvmtDAB5b7gHBHfOMfpWtRQBlHw9aS6X9gu5bi7jDblknl3SKfZu1MsvDsNpdRztf6hcmI5RLi4LKvGOlbFFAGVZeH7Syt76GKSYrfMzSFmGQTnOOPf3qN/DNk/h9dGMs/2dTkMGG/rnrjH6Vs0UAZV7oMN2Iit5e2zxRiMPbTbCQPXjmpdJ0W00gSm38x5ZjmSWV9zufc1oUUAFFFFABVHW75dN0i5uiwDIh2e7HgfrV0kAEk4A6k1weuX0virWotK05s20bZZ+xI6t9B0Hr+NAFrwPo8FzotzLeQrKlzIAA47L3H4k/lUd/wCFb/SJze6BcSHHJiz8wHp6MPY/rXY2ltHZ2kVtCMRxKFUfSpqAOT0bxpFK4ttXT7LODgyYwpPuP4TXVqyuoZSGUjIIOQay9Z8P2GsITPHsmxhZk4YfX1H1rlTHrvg99yH7VYZ56lfxHVT+n1oA7+isfRfElhrChY38q47wuefw9a2KACiiigAooooAKKKKACiiigDiP+aqf5/54V29cR/zVT/P/PCu3oAKKKKACiiigArkfHWquI49ItctNcEeYF64zwv4n/PNdJqV9FpthLdzn5I1zjux7AfWuS8IafJq2pXGt343ZYiMHux6n6AcD/61AD59QsPDfht9NtrmOTUHQhxGckOepJHTA6fQVc8A2MlppMs80Ww3DBlYnlkA4+neuX1XRIV8RnSNH3EEglZGyFbGTzjOAPr3rvdKa4utOkttRsBaFB5RRX3Ky46qR2oAgv8AxRp9rN9ngZ726PAgtV3nPuRwKi1DU9Ti8MXV7LapZ3AztRpASi+ue59qrxeHL7RGeTw/dR7GOWtrpcg/RhzVu5kn1Dw9OupaTL5hOx7aNwWYZHzKf1oA5/wPJBayiW5s737TdnCXLwHysH0b39a6O+8TWdndSW6Q3V3JDzKLWHeI/wDePauc0a01OHWLVdKXV4bFDiZNQAVAvoo7/hTLjSLvTtXvnnXWmt7mQyI+lv1yTwy/jQB09z4m0+DR4tTUyTW8rhB5ajIPuCRTbrxNb2lrNdS2V+IImVS5g2hs9xuIyP8AGucv9Jlj8IR29lY34zeBxHMA8mPUhRwK7G/sl1DSZbOQcSxbfoccfrQBBf67a2P2LcssrXrBYliAJOe5yRxzVWzuLdvFd7AtzftMkYZopJAYFHH3R1B/+vWH4V0/UrnV7d9UtZYo9LhMcRkQgO2TyCevH9K0LWxuG8aarI0MqQzWwRZihCk4HQ9KAK3iTVNM1u1ltoLe8uXtydtzbwF0jb0J9DUfhzXZ9KsxYX9tcTyLzBDAm+XZ3yPT05qTw/PfeG7J9NudHvZ3EjNHLbIGR8+pzxUWt6Xex+IW1LZqX2e4iAY6dJiVGAHBHcUAdLY6xFqunzTacC00eV8qUbSr+jCqMPiqKGVYNZtZtNmPAMg3Rt9HHFQeGbYWEN/dQWmp5kAfF8R5krAHoAP50s1jruvxmPUHh02zfrBGBJIw92PA/CgDdnuJHsHm08R3Em3MY3ja59M1k2/iq2WYW+rQS6ZcHtOPkP0fpVy1sYvD+jPFp1vJN5YLCPdlnb61lz6XrWvx7NWmisbRuTbQAO5+rHgfhQB0qOkiB42DKwyGU5Bp1VNM0630qxS0tFKxJnG45PJyat0AFFFFABRRRQAUUUUAFFFFABRRRQAUUUUAFFFFABRRRQAUUUUAFFFFABRRRQAUUUUAFFFFABRRRQAUUUUAFFFFABRRRQAUUU13WNCzsFUdSTgCgDiv+aqf5/54V29ed3urWtp4/k1Hf51uneIhs/utvHbrV2XxnqWoOYtH00k9NxBkP5DgfjmgDt+lZV/4k0mwyJrxGcfwR/Of06fjXN/8I/4k1nnVL3yYz1Rmz/46vFalh4I0u2w1x5l04/vnav5D/GgChc+OpZ5PJ0nT3kc9DJlif+Ar/jUP9n+LNa/4+rg2sLfwltgx/urz+ddpbWtvaR+XbQRwp6IoX+VTUAcpY+A7CHDXk0ty3dR8i/pz+tdDZabZWC4tLWKH3VeT9T1NWqKACiiigAooooAKKKKACsrxBoUGt2ex8JOn+qlx0PofatWigDhNI1288OXP9ma3G/kLwj4yVHt6r/L9K7a2uYbuBZreVJY26MpyKh1LTLTVLfybyESL/CehU+oPauPudD1jw1O13o8zz2/Vkxk4/wBpe/1H6UAd3RXLaV44sbkLHfKbWXoW6oT9eo/GulhmiuIhJBIkiN0ZGBB/GgCSiiigAooooAKKKKACiiigAooooAKKKKACiio5poreIyTyJHGvVnYAD8aAJKiubmC0gaa5lSKNerMcCub1XxxY2waOwU3UvQN0QH69T+FZttoWseJZ1u9ZmeC36qmMHH+yvb6n9aADV9dvPElz/Zmixv5DcO+MFh7+i/z/AErpvD+hQaJZ7Ew878yy4+8fQe1WtN0y00u38mzhEa/xHqWPqT3q3QAUUUUAFIQCCCAQeoNLRQBy2t+DLe6Y3GmsLW4zu2jhCf8A2X8PyrPs/E2p6FcCz16CSRP4ZP4seuejCu5qC8sra/gMF3CssZ7MOn09KAG2N/a6jbie0mWVD6HkexHarNcPfeFtQ0a4N7oE8jAcmLPzY9PRh7fzq7ovjSGdhbaqn2WcHG/GEJ9/7tAHV0UisGUMpBBGQR3paACiiigAooooA4j/AJqp/n/nhXb1xH/NVP8AP/PCu3oAKKKKACiisnxNq40fSXlUjz5PkiH+16/h1oA5zxTdS67rsOiWTfJG/wC8YdN3cn2Uf1rpprrT/D2mLC00UYhiJjiZwGfHoO5J/nWR4F0g21m2pXAJnuh8pbqE9fx6/lXJeLNQGpeIbiQNmOA+THzxx1P50AdH4DtHurq81i55d2KKT3J5Y/yH512lchbah9k+HK3Wmv5UkUf3sA4fd83Wn63rOoWugaPcwXG2a5kjWVtincCuTwRx+FAHTNdW6XC27zxLO4ysZcBmHsOtRS6naQ6jFYSTYuZlLIm08j64x2rktbtr6Tx7ZrDqPkvJETE/kK3lDByMH73fr61LqsV2PGulRpcIbkWxBmePIJ5ydoI/LNAHZ0Vy+jaxfxatqthqU63Qsk8xZVjCEjGcYH1rCfxneS273i6tDBKGOzT/ALKWDDPd/X8aAPRaK5PUtev5G0F7CVYBqGC6sgYc44Pf8iKks9Q1WHxVLo93epcLJAZI5RCE8s/Tv+JoA6KC6t7lpFt54pTGdriNw20+hx0NQWOq2WozTxWk3mPbttlGxhtPTuOenauR8F2t+2p6iyaltSK6InTyFPnnJ5z/AA/hV+y8Q3cSa/PdP5yWMmIk2hcDnAyB9KAOsormdH/4SDUba31J9TgSObD/AGUW427c/wB7rnFV/EGrT2d5PjxJbWmzlLZbYSt06MeSOaAOpuLiG1hMtzNHDGOryMFA/E1Fe6jaWFiby5mCW4x+8ALDnp0zXFazqV3rfw+F7LIsZWULMipxJhgB9PWtOeXVNH8GyXR1LzpfLjMJ8hV8sccd8/U0AdRbzx3MEc8Lbo5FDKcYyDUlcrf65fk6Pp9nIiXV/GrvO6A7eOSB09al0zVNQtfEraJqU6Xe6LzI51jEZ+hA4oA6WiuJsNS17UNO1SePUo4vscr7c26sSAM4z0A/Amuj8N6hLqmh213OFErg7tvAJBxmgDTooooAKKKKACiiigAooooAKKKKACiiigAooooAKKKKACiiigAooooAKKKKACiiigAooooAKKKKACiiq93fWtkm+6uI4R/tsBn6UAWKK5e/8dabb5W1jkumHcDYv5nn9Kzv7Y8Ua1xYWht4m6Oq44/3m/pQB2s88NtGZJ5UiQdWdgo/WsG/8aaTa5WJ3uXHaJePzP8ATNZcHgi8vJBNq+oszHqEJc/99Hp+Vb1h4X0ixwUtFlcfxzfOfyPH6UAc8fE+vauSukWHloeN4XeR/wACPy0qeEtY1NxJrGolR12bjIR+HQfhXbgBQAAAB0ApaAPObPR7W18ex6ay+fbp1EoB3fut3P416HFFHCgSJFRB0VRgCuL/AOaqf5/54V29ABRRRQAUUUUAFFFFABRRRQAUUUUAFFFFABRRRQAUUUUAZep+HtN1TLXFuBIf+Wsfyt+ff8a5ubwnq+kymbQ75nH9zdsY/X+E/jXcUUAcMPFWu6Wduq6dvUfxlCmfxGR+lall440q4wJ/Ntm/213D8x/hXSEAjBGQazLzw5pN7kzWUYY/xRjYf0oAmg1rTLn/AFN/bsT28wA/kauqwYAqQQe4rlp/AWmvzDPcRH0yGH8v61SbwLeW5LWOq7T7qU/UE0AdvRXEf2D4si+5qu7H/Tw5/mKPsHjOL7t3u/7aKf50AdvRXl3/AAlWu+Z5X9oDO7bnYmPzxW19g8Zy/eu9v/bRR/KgDt6RmCgliAB3NcT/AGD4sl+/qu3P/Tw4/kKF8C3lwQ19qu4+yl/1JFAHUz61plt/rr+3Ujt5gJ/IVkXvjjSrfIg825b/AGF2j8z/AIVFB4C01OZp7iU+m4KP5f1rWs/Dmk2WDDZRFh/FIN5/WgDmj4q17VDt0rTtin+MIXx+JwP0pYfCeratKJ9cvmUf3A29h9P4R+FduAAMAYApaAMzTPD2m6Xhre2UyD/lrJ8zfn2/CtOiigAooooAKKKKACiiigAooooAKyda8PWGsKTNHsnxxMnDfj6itaigDgMa74PfI/0qwz7lf8VP6fWuo0XxHYawoWJ/Ln7wvw34etaxAZSGAIPBB71y2teC4LljcaWwtbgHdsHCE+3938KAOqorh7LxPqWiXAstegkdRwJcfNj1z0YV2FlfW2oW4ntJlljPdT0+o7UAWKKKKAOI/wCaqf5/54V29cR/zVT/AD/zwrt6ACiiigBCQASTgDqTXBOW8X+Kwoz9gtf1UH+bH9PpWv441g2diLC3Y/aLoYOOoTv+fT86v+FtHGj6SiOP9Il+eU+/Yfh/jQBpzIfszxxOIjsIVscLx1x7V5x4R0aG/wBdlEmLi1t9zMzrxJkkDI569fwrsPGOo/2foMoVsS3H7pPx6n8s0zwVp32DQkkdcS3J81vp/CPy5/GgBlj4US10q+02S7aS2umLIAm0xfTk57flUEvhC5nsbW1n1mSRLWQNGDAuAB24Oc+5J+ldTRQBiazoD6hf21/aXz2d3bqVVxGHBH0NOfQpJNbstTlvN8lrF5bDygPMPPPB469MVs0UAY9roKwa7f6k0/mLeIEMJTG0YA6556elVYPDV7YAw6VrctraFi3ktAkm3PoT0roqKAMW88Ptd3GlyteuWsG3Eum5penU5GOlSHRM+JxrP2jpD5Xk7P1zn+la1FAGDZ+HZtP1ia7stSeK3uJPMmtjCG3H/ePTrT7Lw3Fbtqgnm8+LUXLMmzbtHPGcnPWtuigDn7Hw7fWHlwQa5OLGNgRAYV3YznG/rimHwvNFqV1c2WqyW0d2SZYxCrk59GPT8q6OigDn7bwrFF4Yk0Wa5aRXYt5qptIOcjjJ9KH8O3c+gTaXdaqZ1cKI5DbgeWo7YB5/E10FFAGHfeG0urex2XTwXdioWK4RQeg7qadpfh82mpPqV7ePe3rrs8xkCBR7KK2qKAMPTPDn9n2Go232rzPtrs27y8bNwx0zz+lXdD0z+yNKhsvO87ys/Pt25yc9Mmr9FABRRRQAUUUUAFFFFABRRRQAUUUUAFFFFABRRRQAUUUUAFFFFABRRRQAUUUUAFFFZt/4g0vT8i4vI94/gQ7m/IUAaVFcbdePPMfytLsHlc9DJ3/4CP8AGq/2bxdrf+ukNnC3Yny/0HzfnQB119q1hp4/0u7iiP8AdLZb8hzXO33j21Q7LC2knboGf5R/if0pbHwFaRkPfXMlw3UqnyL/AI/yrobHSrDTx/olpFEf7wX5vzPNAHI/aPF2t/6pDZwt3A8r9T835VYtPAYd/N1O+eVzyRH3/wCBHr+VdlRQBm2GgaXp+Db2cYcfxuNzfma0qKKACiiigAooooA4j/mqn+f+eFdvXEf81U/z/wA8K7egAooooAKKKKACiiigAooooAKKKKACiiigAooooAKKKKACiiigAooooAKKKKACsDxnqv8AZujNHG2J7nMaeoH8R/L+db9cD/yNfjL+9ZWv5FQf/Zj+n0oAP+EV/wCKN8/Z/pv/AB8dOduPu/lz9a3/AAZqv9paMscjZntsRv6kfwn8v5Vj/wDNVP8AP/PCoP8AkVPGX92yuvyCk/8Asp/T60Ad9RRRQAUUUUAFFFFABRRRQAUUUUAFFFFABRRRQAUUUUAFFFFABRRRQBXvbG21C3MF3CssZ7MOn0PauPvfDGpaJcG90GeR1HJi/ix6Y6MK7iigDldF8aW9ywt9TUWtwDt3nhCff+7+NdSCGUFSCDyCO9ZOteHLDWFLSp5c/aZOG/H1rl8674PfB/0qwz7lf8VP6fWgCx/zVT/P/PCu3rz3StQj1T4hQ3sSMiSg/K3UEQkH9RXoVABUN3cxWdrLczttjiUsxqauK8aX8uoX8GhWPzMzAyYPVuw/Dqf/AK1AEXhq2l8Q+IJtZvFzFE/yKem7+EfgMH64ruqqaXYRaZp0NpD92Mcn+8e5o1S9TTtNnu3xiJCQD3PYfnigDkPEBOv+MbfTEJMFudr4/Nz+Qx9RXcqoVQqgAAYAHauP8AWTOLrVZ/mkmYorHvzlj+Jx+VdjQAUUUUAFFFFABRRRQAUVU1HVLLTIhJe3CxA9AeSfoBzWI3jvSQ+0JcsP7wjGP50AdNRWZpev6bqrbLW4Blxny2BVv16/hWnQAUUUUAFFFFABRRRQAUUUUAFFFFABRRRQAUUUUAFFFFABRRRQAUUUUAFFFFABRRRQAUUyWWOGMvLIsaDqzHAFYd/4y0izyEma5cdoRkfmeKAN+kZgqksQAOpNcQ/izWdUYpo+nFR037TIR+PQfjSL4W13VmD6vqHlqedhbeR+A+UUAdBf+KdIsch7pZXH8EPzn8+n61hTeNr29kMOkaczN2LAufyHT861bDwXpNphpY3uXHeVuPyH9c1uwwRW8YjgiSJB0VFCj8hQBxP9i+J9a51C7NvE3VGbH/jq8fnWnYeBdNt8NdPJdMOxOxfyHP6109FAEFpZWtkmy1t44V/2FAzU9FFABRRRQAUUUUAFFFFABRRRQAUUUUAcR/zVT/P/ADwrt64j/mqn+f8AnhXb0AFFFFABRRRQAUUUUAFFFFABRRRQAUUUUAFFFFABRRRQAUUUUAFFFFABRRRQBR1uK6n0e6iscfaHQqmTjr159cZq6xCqWYgAdSe1LXJeI9F1W61I3JJ1DTxz9hEpiI/oaANy21zT7zUTZWtwJ5lUsxj5VQPfpV93WNC7sFUDJJOAKxfD+p6bIxsLW0ewuEXc1tJFsOPX3rK17RdTl1RrudG1WwByLNZjGU/Dof60AdDZa1YaheSW1nOJ3iXc7IMqPx7/AIVHpt/M6Xcl/d6a0cLkBraQkIP9sk8Go9A1TTrpWtLK3azlhGXtni8sp/SuW03/AJF3xV/11f8ArQB3A1GxZolF5bkzDMYEq/OPbnmppporeMyTSJGg6s7AAfia871SxtYfh9YXkVvElzlCZlUBz179a0fEpjPiTRzqn/INKc7/ALm/H8X6UAb+sa2ltoNzf6dNb3LQgYw29euOcGrFpqcTabZ3F5NDA9yikBnChmI6DJrA17+x/wDhGdU/sj7LnYnmfZsbevHTjPWqXiEiPQPDczcRxyRlm7AYFAHatdW6XC27zxLO4ysZcBmHsOtR3moW1qGSS5gSbaSkbuAW49M5Ncxc3lte/EDTHtLiKdBCwLRsGGee4rP0k6ab3XG10232wSMEF1t6c425/Dp7UAdR4W1ebWNFF7drEj72U+WCFAH1JrRt7+zunZLa6gmZfvLHIGI+uK88j+0f8K0XyM7PtJ83GfuZ747ZxViygL6tpt1Fd6BAY3ACWLsHkB7Fccn60AdjJr2nQ6k1hPcLDcLjAk+UNn0PStEHIyOlc/4g1PTHlOmy2D6ldYz9njiyVz33dvqKr+FtG1Wxu2mmk+y2TA7bHzTLt/E9PwoA1217To9SewmuVhuEx8svyhs+h6GtLr0rnfEGp6ZLK2myae+p3QH+ojjztz3LdvqKh8LaPqthctLcTfZ7Ngdlj5hl2enJ6fhQB1FFFFABRRRQAUUUUAFFFFABSMoZSrAEEYIPelooA8z1XSTL41m0/TQluThowDtCkRhuMdOc1qWPinUNGuBZa/BIwHAlx82PX0Ye/wDOl/5qp/n/AJ4V119YWuo25gu4VlQ+o5HuD2oAo6j4hs7fQ5NQt5kmBG2MA9XPQH09fwrG8DaW7mXWbzLTTkiMt1wT8zfif61yt3pvnavdWujpLcxQkkcZOB1+vPArr/D/AIvs5I47K9jWyljARe0fHGP9n8fzoA6uuN8fXryvaaTb/NJKwdlHfnCj88/pXYF1WMyFhsA3Fs8Y9a4fw4ra94uudVkBMUJymex6KPyGaAOx02zTT9OgtI+kSBc+p7n8TmrNFFABRRRQAUUUUAFZPiTWU0XTGm4M7/LCp7t6/QVrVw3iRf7S8cWVjJzEgUFfUH5j+lABonhqbWyuqa3O8iy8rHnBcdsnsPYV06eH9ISPYNOtse8YJ/M81ogBVAUAAcADtS0AclrXguFx9p0cm2nT5hHuO1j7HqDU/g7X5NQjexvmP2yHoW4Lr/iK6auG16MaX47sbqEbROyM+PUkq36UAdzRRRQAUUUUAFFFFABRRRQAUUUUAFFFFABRRRQAUUUUAFFFFABRRRQAUUUUAR3E8drbyTzOEjjUszHsK4i41zV/El2bXRY3t4AeZM7Tj1Zu30H61Z8d3c091Z6NbnmchnHqScKPzBP5V02k6dDpWnxWkHRBy3dj3JoA5P8A4QG5mXdcaoDJ3/dlv1JrMutDv/DVyt3LbQXtup5JTcv4g9PrXpdIyhlKsAQRgg96AM7QdWtdXsBLap5Ww7Wi4+Q/h2rSrgkjbwt40jiiY/ZLsgYPTaxxj8D+ld7QAUUUUAFFFFABRRRQAUUUUAFFFFABRRRQAUUUUAFFFFAHEf8ANVP8/wDPCu3riP8Amqn+f+eFdvQAUUUUAFFFFABRRRQAUUUUAFFFFABRRRQAUUUUAFFFFABRRRQAUUUUAFFFFABRRRQBknXLI+IhpJhlN2BgSbV2j5d3XOentWtXEf8ANVP8/wDPCu3oAbsXfv2jfjG7HOPSoVsLNI5Y1tIFSY5lURgBz7jHP41YooArvYWclqts9pA1uv3YmjBQfQdKklghmi8qaJJI/wC46gj8qkooAqrptilu1ullbrC/3oxEoVvqMYqR7S3ktvs728TQAY8pkBXHpjpU1FAFdLCzSSORLSBXiG2NhGAUHoD2oksbSWcTyWsDzAY8xowWx9asUUAQwWtvbQ+TbwRRRc/JGgVfyFRw6ZYQTebDZW0cn99IlDfmBVqigBqoiszKqhm5Ygcn606iigBqoiliqqCxyxA6n3p1FFABRRRQAUUUUAFFFFABRRRQAUUUUAcR/wA1U/z/AM8K1/GWs/2XpZiibFzc5VMdVHc/0/GsWWVIPie8srBY0UszHoAIKZpUT+K/FEl/cKfsdsQVU9MD7q/1NAG74N0b+y9LEsq4ubnDPnqo7D+v41Y1rw3YawpaRPKuO0yDn8fWtiigDzXU11rw3bSafJcB7O5UqhzkY747rx26c10PgK4sF0oW0My/a2YvKh4b8PUYxWbqn/FReN4rIfNbWp2v6YHLfmeKv6z4Lilc3OkP9lnByI84Un2P8JoA6yiuIsPFV/pE4stft5DjgS4+YD19GHuP1rsLO8t76AT2syyxn+JT/nFAE9FFFABRRRQAVw/isnS/FtjqbKTE23ccehwR+RFdxWfrmlRaxpslrJgMeY3I+43Y0AXYpEmiSWJgyOAysOhBp9cDp+sal4UlXT9Vt2ktQfkZeSB/snoR7H9K6BPGWhtHuN0yn+6Ymz+goA3q4TUpV1vx7aQ253x2zKGYdPlJZv8ACpdU8X3GouLLQYJC8nBkK/N/wEdvqa1/Cfh/+xrVpLjabub75ByFH90f1oA36KKKACiiigAooooAKKKKACiiigAooooAKKKKACiiigAooooAKKKKACiiigDh/ERFv4906aX/AFZ8s5PQfMRXcVz3jPRW1TThPACbm2yygfxL3H14yP8A69Q+FfFEF9bxWl7LsvVG3L8CT0OfX2oA6eiis7WNbs9Gg33Mn7wjKRL95v8APrQBzHjUibxJplvHzJ8vTry/H8q7iuI8KWU+s6xLrt9kqrHyx2Le3sBXb0AFFFFABRRRQAUUUUAFFFFABRRRQAUUUUAFFFFABRRRQBxH/NVP8/8APCu3riP+aqf5/wCeFdvQAUUUUAFFFFABRRRQAUUUUAFFFFABRRRQAUUUUAFFFFABRWXqfiLTNLytxcBpB/yyj+Zv/rfjXNy+K9X1eUw6JYsg/v7d7D6k/KPxoA7ckAEk4A71mXniPSbLImvYyw/hjO8/pXNjwprmpkNqupbVP8BYuR+HArTsvA+lW+DP5ty3+22B+QoAin8e6anEMFxKfXAUfz/pVJvHV5cErY6VuPuxf9ABXUwaNplv/qbC3Ujv5YJ/OrqgKAFAAHYUAcT/AG94sl+7pW3P/Tu4/maPt/jOT7tpt/7ZqP5129FAHnX9leKv7V/tX7N/pf8Af3R/3dvTOOlXvt/jOP71pu/7Zqf5V29FAHEf294si+/pW7H/AE7uf5GhfHV5bkLfaVtPsxT9CDXb0jKGBDAEHsaAOWg8e6a/E0FxEfXAYfz/AKVrWfiPSb3AhvYwx/hkOw/rU0+jaZcf66wt2J7+WAfzrIvfA+lXGTB5ts3+w24fkf8AGgDpAQRkHINLXDnwrrulndpWpb1H8AcoT+ByKIvFmr6TKIdbsWcf39uxj9P4T+FAHcUVl6Z4h0zVMLb3AEh/5ZSfK35d/wAK1KACiiigAooooAKKKKACiiigAooooAKKKKACiiigAooqpql/FpmnzXc33YxwP7x7CgDzvxdHJL4xuooQzSSGNVVepJRRiu/0LS00jS4rVcFx80jD+Jj1P9PwrgvC9xJfeNLe4uCHklaR2PvsavTaACqOtX40zSbi7ONyL8gPdjwP1q9XFeO7qS8vrPRrY5dmDMB6nhR/M/jQBP8AD+wZLSfUpcmS4bapPXaDyfxP8q66oLK1jsrKG2i+5EgUe+O9T0AVr/T7XUrcw3kKyp2z1HuD2rjrzw3qmgXDXmhTvJH1aP8Aix6EdGH613VFAHMaJ4ztrwi31AC1uOmT9xj/AE/H866YEEAg5BrH1vwzYawC7r5Nx2mjHP4jvXNLPrvg9wky/arDOAckr+B6qfbpQB31FZeja/Y6wn+jybZQPmhfhh/iPpV+5nitbeSedtsUalmbBOAPpQBLRWH/AMJhoX/P9/5Bf/4mj/hMNC/5/v8AyC//AMTQBr3FtBdRGK5hSWM/wuoIrgdY0qxg8aWVlFbhbeXZvjBODknPeun/AOEw0L/n+/8AIL//ABNctq+sWFz4xsr+GfdbRbN77GGMEk8YzQB3dlp1np67bO2jhz1Kryfqepq1WH/wmGhf8/3/AJBf/wCJo/4TDQv+f7/yC/8A8TQBuUVh/wDCYaF/z/f+QX/+JrR07UrTVIGnspfNjVthbaV5wD3A9RQBbooooAKKKKACiiigAooooAKKKKACiiigAooooAKKKKACiiigAooooAK5/XPCVlqrmaM/Zrg9XRchvqP610FFAHmd9aaxpeq2+lDVJc3G0IUmcKAzFRkfhW9pvgeNJxcarcm6fqUGcE+5PJ/Sq3ij/kfNI/7Y/wDo0129ADY0SJFSNVRFGAqjAAp1FFABRRRQAUUUUAFFFFABRRRQAUUUUAFFFFABRRRQAUUUUAcR/wA1U/z/AM8K7euI/wCaqf5/54V29ABRRRQAUUUUAFFFFABRRRQAUUUUAFFFFABRRWT4h12DRLTe+Hncfuos9T6n2oAt6lqdppdv515MI1P3R1LH0A71x1zrmseJp2tdHheC36M+cHH+03b6D9aXR9Bu/EVz/amtu/kvyiZwXHt6L/P9a7a2t4bWFYbeJIo16KowKAOc0rwPY2oV75jdS9x0Qfh1P410sMMUEYjhjSNF6KigAfhT6KACiiigAooooAKKKKACiiigAooooAKKKKACo5oYriIxzRpIjdVdQQfwqSigDltV8D2NyGexY2svUL1Q/h1H4VmW2uax4ZnW11iF57for5ycf7Ld/of0rvKiubaG7haG4iSWNuqsMigCHTdTtNUt/Os5hIo+8OhU+hHardcJq+g3fhy5/tTRJH8heXTOSg9/Vf5frXS+Htdg1u03phJ0H72LPQ+o9qANaiiigAooooAKKKKACiiigAooooAKKKKACuF8S3MviDxBDo1m2Yon+dh03fxH8BkfXNdF4p1gaPpLuh/0iX5Ih79z+H+FUPA2jmzsTf3Cn7RdDIz1Cdvz6/lQBlWltFZ/EqK2gXbHEoVR/wBsK7yuI/5qp/n/AJ4V29ADJZEhieWQ7URSzH0A61xPhKN9Z8SXeszr8qE7AexPAH4L/StPx5qP2TRhbI2JLptv/ARyf6D8a0PC+nf2ZocETDErjzJP94/4DA/CgDWooooAKKKKACmuiuhR1DKwwQRkGnUUAclrHguN5DdaPJ9mnHIjyQufY9VP6fSqljr94k39i+IbOSXzv3WRw5zx26j3H61ueI/ElvosXlriW7YfLHnge7e1Yuh+HrvVrwavrbudxDJGeC3pn0HtQBtf8IfoX/Pj/wCRn/8AiqP+EP0L/nx/8jP/APFVuUUAYf8Awh+hf8+P/kZ//iq5bV9HsLbxjZWEMG22l2b03sc5JB5zmvRa4jXv+Shad/2y/wDQjQBt/wDCH6F/z4/+Rn/+Ko/4Q/Qv+fH/AMjP/wDFVuUUAYf/AAh+hf8APj/5Gf8A+KrR07TbTS4GgsovKjZt5XcW5wB3J9BVuigAooooAKKKKACiiigAooooAKKKKACiiigAooooAKKKKACiiigCC+ilmsLiK3fy5niZY3yRtYg4ORyOa4//AIRrxT/0Gv8Ayal/wrt6KAOI/wCEa8U/9Br/AMmpf8KP+Ea8U/8AQa/8mpf8K7eigDy3VNN1W2160tbu9828l2eVN5rNsyxA5IyMHJ4rb/4RrxT/ANBr/wAmpf8ACjxR/wAj5pH/AGx/9Gmu3oA4j/hGvFP/AEGv/JqX/Cj/AIRrxT/0Gv8Ayal/wrt6KAMnw5Yajp9pLHqd39pkaTcreYz4GBxlq1q57xHoV/qt5FNZ332dUj2kbmGTknPFZP8AwiviJP8AV6z/AOR5B/SgDt6K4j/hH/Fafd1fd/28uf5ij+yvGCfdv93/AG2z/MUAdvRXEfZfGqfdn3f8DjP86M+OU/2h/wBsTQB29FcR9r8ap9633f8AAEP8qP7W8YJ97T93/bHP8jQB29FcR/wkPitPvaPu/wC3aT+ho/4SvxCn+s0b/wAgSD+tAHb0VxH/AAmmqp/rNI/Rh/Sj/hPbhP8AWaV/5EI/9loA7eiuJX4hr/FphH0nz/7LUi/EK3/isJR9JAf6UAdlRXIr8QLH+KzuB9Np/rUq+PtLPW3ux/wBf/iqAKP/ADVT/P8Azwrt681Gu2Z8cf2uRILb3X5v9Xt6Z9a6lfG2inrLKv1iNAHQ0VhL4y0M9bsj6xP/AIVIvizQ26X6/ijD+lAGzRWUviXRm6ahD+JIqRdf0humpW34yAUAaNFUl1jTG+7qNofpOv8AjUi6hZN928tz9JV/xoAs0VEtzA33Zoz9GFSBg3Qg/SgBaKKKACiiigCG8uY7O0luZjiOJSzH6VxGhWMvinWZdV1Fc20bYWPsSOi/Qd/X8a0PiJeGLTLe0UnNxIWPuF7fmR+Vb+i2K6bpNtahQGRBv92PJP50AXQAAABgDtS0Vj6t4lsdI1GCzulm3zgEOqgquTjnnP6UAbFFZOveIbLQY4nuxK5lJCrEATx35I4rThkE0KSqCFdQwz1waAH0UjHahb0GazPD2s/23Yvc+R5G2Qx7d+7OO+cCgDUooooAKKKKACiiigAooooAKKyp9a8nxJBpH2fPnRGTzd/TGeMY9vWtWgAooooAKKKKAEIBBBGQe1cHrtjL4W1mLVdOXFtI2GTsCeq/Q9vT8K72qOtWK6lpFzalQWdDs9mHIP50AWLO5jvLSK5hOY5VDKfrU1cl8O7wy6ZcWjE5t5Aw9g3b8wfzrraACiiigAooooAKKKKACiiigApGIVSzEAAZJPalrlfHWrm2s1063JM90PmC9Qnp+PT86AMtA3i/xWWOfsFr+qg/zY/p9K70AAAAYA6AVleGdIGj6SkTAefJ88p/2vT8K1qAOI/5qp/n/nhXb1xH/NVP8/8APCul8Q6j/Zei3FyDiTbtj/3jwP8AH8KAOWn/AOKj8drH961szg+hCnn824+ld3XK+ANO8jTJL6QfvLpvlJ/uj/E5/SuqoAKKKKACiiigArmfE3ipdOY2dhiW9bgkDIjP9T7VV8ReKZZLj+zNEzJO52NKnPPov+NXfDXhaPTMXd5ia9POTyI/p6n3oAqeHfCr+cNS1kmW5c71jc52n1b1Pt2rrqKKACiiigArh9fIHxB07JA/1X/oRrqNc1aHR9Oe5lwW6Rpn77dhXBpoepazp9zrTsTMzb0XHMgHUj0xxj6UAemUVz3hDXxq1n5Fw/8ApkI+bP8AGv8Ae/x/+vXQ0AFFFFABRRRQAUUUUAFFFFABRRRQAUUUUAFFFFABRRRQAUUUUAFFFFABRRRQAUUU13WNGd2CqoySegFAHFeKP+R80j/tj/6NNdvXmGt6xLqWuf2paRHybIoEYjjAYkFvqc16Fo+pwavp6XUBxnh17o3cUAXaKKKACiiigAooooAKKKKACiiigAooooAKKKKAGsit95QfqKja1t2+9BEfqgqaigCq2m2Lfesrc/WJf8KjbRtLbrptof8Atgv+FXqKAPP20+zb4j/YjbR/Zv8AnkFwv+pz0+vNdU3hjRW66fF+GR/Wue/5qp/n/nhXb0AYreEtDbrYD8JHH9ajbwboZ6WrL9JW/wAa3qKAOdbwRox6RzL9JDUbeBNIPR7lfpIP8K6aigDlW8AaYfu3F2Pqyn/2Wo2+H9l/DeXA+oU111FAHGt8PYP4dQkH1jB/rUZ+HnddTI+sH/2VdtRQBxH/AAgd2n+r1b/xwj+tH/CG6un+r1f/AMecV29FAHEf8It4jT/V6z/5MSD+lH9geLE+7q27/t5c/wAxXb0UAeX65a6rZ3ln/bU/nAt8h37sAEZ/pXqFcv8AECxNxo8dyi5a2fJx/dPB/XFavhzUV1PRbecNlwoST2Ydf8fxoA064nxTYR6n4xs7OQcS2rgH0PzYP5121VJdMtJtRiv5Ic3MKlUfceB9M470AedaxaahPoU19q8Txy2xjtoQ6kZA6tz1z610euzWEkOlWVzZz3txLEPKt45fLVuByTkeldHqOnWuqWptr2LzYSQxXcV5HuCKh1DQtN1KGKK8tVlWEYT5iCo9Mg5oA5fwkZrXxBqViYZLSFYdwtWm80RnjofxrAtbif8AsaK1uFeHSpL0i4nQ8npx7CvRrHQdM06d5rO0WF3TYxVjgj6ZxQmg6ZHp0mnraj7LK254y7HJ9c5yKAOZ8WSPBd6TplpAXsJFOII5vJWX0G/tVjwxZ6jp+uyI1ibCwmiJW3a7WbawxyOc/pXQSaNp82nx2MtsslvGMIjksV+hJz+tM0zQNL0mUyWNosUhGC24scemSTQBV8a/8ire/wC6P5iuW1eyg03RNI1KyeVNRcxgHzmJcY6YJ4H0rsPFFnPf+H7q2tY/MmkUBVyBnkdzxVbRvDGm2kVrcS2Ea3qRruJOcNjk4zjPvQBnlsfEuEv8pay6H15qHRiDrnikg5G3+jV0uo6JpuqSRyX1okzx/dJJH4cdR9aS00TTrJ7hrW1WI3I2yhWOCPpnA69qAOe8D6bbTaBbX0kbvcQPIYsyNtU5PRc4/Sq3hnT7XxFFd3usvJNdpMRtMzL5I9gCMf8A1q7HT9PtdMtFtrKLyoVJIXcW5PXknNUrzwzo19cm4uLCNpSclgSuT74IzQBg39pDceONOtzJI8Js8blkILDB/iGOtO8NbNM8Ra5Zxu6WVuocIWLbe5PNdL/ZNiL6G8EAFxCnlxsGPyr6Yzilh0uygvbi8jgAnuRiVixO4fQnFAHnmpLbS6U+p6Vpd1GEfjUJLvDZz/dz/KtzXbXU9VtdLkgAu4xCr3Fp53lmTI6nkcVsHwhoJMhOnJ+86/O3H054/CrF74e0q/iijurRZFhUJH8zAqo7ZBzQBylnqUdroOsLplnPYXVuqh4jKZFTnGVJ6HrVO2sdRNraahp+mvDMpV5L5tRVvNHfcCeK76x0qx0+3aC0tY4on+8oGd31z1/GqQ8J6EtwJxp0YcHI+Ztv/fOcfpQBsKSVBPXFLRWZ4j1FdM0S4nLYcrsj92PT/H8KAOb+H/Opamyf6vj+ZxXb1y/w/sTbaPJcuuGuXyM/3RwP1zXUUAFFFFABRRRQAUUUUAFFFFAEF7dRWNnLcztiOJdzVxvha1l13XZtbvV+SN/3anpu7AeyjH6U/wAY30uqanBoVidx3jzMd27D6Acn/wCtXWabYxabYRWkA+SNcZ7se5P1oAtUUUUAcR/zVT/P/PCjxrO+p61Z6LbnkMC/szdM/Qc/jUdzPHa/EuSeU4jiUsx9hBUngqCTU9ZvNauByGIT2ZuuPoOPxoA7K2gjtbaOCIYjiUKo9hUtFFABRRUVzcQ2kDz3EixxIMszHgUAPd1RC7sFVRkknAAriNa8QXeu3n9laGGMbcPIOC4789l/nUN9qGoeL7/7DpytFYqfmY8Aj1b+grr9G0a10a1EVsuXP35D95z/AJ7UAVvD3h220SHcMS3TD55SP0HoK2aKKACiiigApk00dvC80zhI0BZmPQCn1w/ifUptb1NND0w7k3fvWHQkf0FAEESzeNPEBkkDJp1twPp6fU13saLFGscahUUAKo6ACquk6bDpOnx2lv8AdXlmPVm7k1coA4XxRpk+h6mmt6Z8kZfMijorH+hrrdH1ODVtPS6gPXh17o3cGrM8MdxA8MyB45BtZT0Irgomn8F+IPLkLPp9xznrlfX/AHh/nrQB6DRTIpEmiWSNgyOAVYdCKfQAUUUUAFFFFABRRRQAUUUUAFFFFABRRRQAUUUUAFFFFABRRRQAUUUUAFcX4u1aW/vE0HTcs7sFlIPU/wB36Dqf/wBdavi3Xho9j5cLf6XOCI/9gd2/wqHwdoJ0+3N7eLm8nGfm6op7fU96ANHStCtdP0f7AyLIJF/fEj75PX/61clE8/gvxCY5Cz2Fx39V9fqP89a9BrO1zSYtZ057aTAfrG+PuN60AXopEmiWSNgyOAysOhFPrifCWrS6ZfPoepkoVbbEW/hb+7n0PUf/AF67agAooooAKKKKACiiigAooooAKKKKACiiigAooooAKKKKAOI/5qp/n/nhXb1xH/NVP8/88K7egAooooAKKKKACiiigAooooAKKKKACiiigBk0STwvDKoaORSrKe4PWuCtJ5vBmvvbXBZ7CfkNjt2Ye46H/wDVXoFUdX0q21eya2uV90cdUPqKALcUqTRLLE4dHGVZTkEU+uAtb3UvBl39lvUaewcnaV6fVT2PqP8A9ddnpuqWeqQebZzLIO69GX6igC5RRRQAUUUUAFFFFABRRRQAUUUUAFFFFABRRRQAUUUUAFFFU9S1Sz0uDzbyZYx/CvVm+goAsyyxwRNLK4SNBlmY4AFcFdzzeNNfS2tyyWEHJbHbux9z0H/66W6vNT8Z3f2ayRoLBCNxbp9WPc+g/wD112OkaVbaRZLbWy+7uern1NAFuGJIIUhiULHGoVVHYDpT6KKACiiigAooooAKKKKACs3xBqqaPpUlycGQ/LEp/iY9P8fwrSrgtQkfxb4qSzhY/YrYnLDpgfeb8eg/CgC/4F0pwkmr3eWmuCfLLdcZ5b8T/nmuupscaxRrHGoVEAVQOgAp1ABRRRQB5d4zJHiu825ydg4/65rXf+HtO/svRbe2IxJt3Sf7x5P+H4VxkTwax8RA2MxGbI9G8tOPwJWvRaACiis7WtatdFtvNuGy7f6uJT8zn/D3oAn1HUbbTLVri7kCIOg7sfQDua4nGpeNtQyd1vp0TfgP8W/lTrDTNQ8XX4v9SZorJT8ijjI9F/qa7q3gitYEhgjWONBhVUcCgCLT9PttNtFt7SMJGv5sfUnuas0UUAFFFFABRRVLWNQXS9Mmu2Rn2DhQM5PbPoKAMjxhrx062FnaNm8nGOOSinv9T2qXwjoI0iy86cf6ZOMvn+Af3f8AH/61ZXhLSptRvW17U8s7NmEEdT/e+g6Cu0oAKKKKACs/XNJh1nTntpcB+sb4+43rWhRQBxPhLVptMvn0PUyUKttiLfwt6Z9D1H/167aua8Y6AdStheWi/wCmQDPHV19PqO1TeD9afVtOKzhjPBhWfHD+hz60Ab9FFFABRRRQAUUUUAFFFFABRRRQAUUUUAFFFFABRRRQAUUUUAFU9V1GHSrCS7uD8qDhR1Y9gKtO6xozuwVVGST0Arg53m8aeIBDEWTT7Y5J9vX6ntQBN4Z06bXtUfXNSG6MN+6Q9CR0/Afz/Gu4qOCGO3gSGFAkaAKqjoBUlABRRRQBzXjLQDqNsL20XF3AMnb1dR2+o7VJ4Q18atZ+RcP/AKZCPmz/ABr/AHv8a6GuG8UaZNompJremfIhfMijorH+h/n9aAO5oqjo+qQ6vp6XUB68OvdW7ir1ABRRRQAUUUUAFFFFABRRRQAUUUUAFFFFABRRRQBxH/NVP8/88K7euI/5qp/n/nhXb0AFFFFABRRRQAUUUUAFFFFABRRRQAUUUUAFFFFAEVzbw3cLQ3ESSxt1VhkVx+peEbrT5/tvh+d1ZefK3YYfQ9/of1rtaKAOMsPG8lu/2fWrN45F4Z0XB/FT/T8q6iw1Oy1KPfZ3CSjuAeR9R1FOvdPtNQj8u8t45l7bhyPoeorl77wKEk87SLx4JAchZCePow5H60AdjRXDef4w0j/WRm8iHqok/UfN+dWLXx9GG8vULGSJhwTGc/ocYoA7GisODxfos3H2vyz6SIw/XGK0YNUsLnHkXtvIT2WQE/lQBbooooAKKKKACiiqk+qWFt/r723jI7NIAfyoAt0Vhz+L9Fh4+1+YfSNGP64xWTdePoy3l6fYySseAZDj9BnNAHZVUv8AU7LTY995cpEOwJ5P0HU1yPn+MNX/ANXGbOI+iiP+fzVYsPAoaTztXu3nkJyVjJwfqx5P6UANv/G8lw/2fRbN5JG4V3XJ/BR/X8qbpvhC61Cf7b4gndnbnyt2WP1Pb6D9K6yy0+00+Py7O3jhXvtHJ+p6mrNAEVtbw2sKw28SxRr0VRgVLRRQAUUUUAFFFFABRRRQAUUVHPNHbwPNMwWONSzMewFAGD411n+zdL+zwti4uQVGOqr3P9P/ANVSeD9G/srSg8q4ubjDyZ6qOy/57msHRYZPFHieXU7lT9ltyCqn2+6v9T/9eu8oAKKKKACsnxRqP9maHPKpxK48uP8A3j/gMn8K1q4bxbI+s+JbTRoG+VCN5HYnkn8F/rQBj+DUaPxZZBwQSGOD6GNiP0Neo1w0UaQ/E9IoxtRFCqPQCDitTxL4qTTSbOxxNenjjkR/X1PtQBb8ReJLfRYtgxLdMMpED0929B/OsHRfD11rV3/auulij/MkTcFx247L7VZ8O+FpDP8A2nrWZbhzvWJ+cH1b39u1dfQAiqqKFUBVUYAAwAKr3WoWVkVF3dwQFuVEsirn6ZNWa5f4hwQt4bknaJDKjqFkKjcoJ5APagDora7tryMyWtxFOgOC0Thhn6iorzU7SxmgiuZtj3DbIhtJ3H8Bx+NYF5qC+HfB9rNYW8SzTKiqAgALEcscdTWbrEGpRajoTalfJdM9wCAsITYeOMg8/lQB3lFcbrvid4tcl05NRTTIoFG6c25mZmIzgDoBzUdt4pvbnwvqc6zIbmzYBJ0jwHBPB2kUAdtUEtzarMtrNNCJZQdsTsNzjvgd65K91fW9PtNK1CS+hmiumRHgEAXqM53Zzn6YqPxFb3snjrTlhv8AynlQmF/JVvJ4OeD97PPX1oA6qXUrCxvLbTnkEc0wxDEEOCBx1AwKsR3VvLPJBHPE80f341cFl+o7Vz99qGo2XiPRdPN55iTIRO3lKPMIzz04/CsnR7PUX8aaqkWqeVJGVMr/AGdW81eOMdvqKAO8orlrfXbmw1fV7PVJ/MWCMz25Khcp6cAZ7Vo+FZ7+70WO61GXfLOS6jaBtXsOAKAL91qFlZFRd3cEBblRLIq5+mTTrW9tbxSbW5hnA6mKQNj8q5DxvJaw+JNGkvgptl3GQOu4YyOo703S0tr7xpFeaBCYrCOIieRIzHGx54AwPb8qAO4pkUUcKlYkVFJLYUY5PU1y2g3ms6xLfr/aSRJbXRQZt1YlQfujoPxwTSpqOr63rN/badeR2MFidu4wiQyN756DigDq6K4weINVvvCl1d27rDe2Mu2UqgKuo68HP+RVqfXbq/1HRrXTJvL+0p59wQqthPTkcdDQBu2+q2V1fz2UM264t/8AWJtYbfxIwamu7qGytZLm5fZDENztgnA+grAsNYum8Sa1BcS77WzQPGgUDHGTzjJ/Gsee81jWvCt/qct5FFaMrKtqIQcgH+9nIP50Adxa3MN5ax3Nu++KVdyNgjI+hqWuIk199H8MaJBDIkL3MQzM6FxGoxk4HU81N4d8SzXGvDTn1BNShkjLJOLcwsrDtigDsaK5Pw7eazrP2snUkiS3uyvNurMVH8OeAPrgmusoAKKKKACiiigAooooAKKKKACiiub1PVtQufEA0XSHjhdU3zXDpu2D2HT0oA2tTsI9SsJbSV3RZBjchwR/j9Kh0PSYdH05LaLBbrI+Pvt3NQWSavYSSnUbyO9tViLiRYhG4I7YBx0pIvElnL4ffWVjn+zoSCpUb+DjpnH60AbFFZF34jsbS1tZnEzvdqGhgjTdI34D/GoLjxGH0i8nhsr+GeBP9XJb4cZ6Ng8EDqaAHeLLrVLPT1m0xAQjBpW6sAOenp61L4e1+31u2yuI7lB+8iz09x6iqPhXxDLf6YDqEVyGRGeS6khCxMAexHH6Vyus3NrDfrquhJd28e//AFphKxFv9k+/oR/hQB6fUc8MdxC8MyB43BVlPQiuY0vxza3CwQ3VvOLl8q3kx71z64Bzz6YNXoPFljOZ0W3vRcQfetzbnzD7hR/XFAEvh/w/DoYn8uWSQysep4C54GPXHetisyw1+wv9Mlv0kaOGEkS+aMFCOxFVIPFthLcRRvDeQRznbFPNCVjkPbBoA3qKyLvxFaWuqvpzQXUk6x+Z+6i35HoAOc/hWlaz/abaObypYt652SrtZfYjsaAJaKKKACiiigAooooAKKKKACiiigAooooA4j/mqn+f+eFdvXEf81U/z/zwrt6ACiiigAooooAKKKKACiiigAooooAKKKKACiiigAooooAKKKKACq91Y2t4u26toph/toDirFFAGHP4Q0Wbn7J5Z9Y3YfpnFZ0/gCxbPkXdxH/vYYf0rraKAOI/4QG4j/1Wq4/7Zkf+zUf8IdrMf+q1jH/A3FdvRQB5n9n1v/hIP7F/tWbzv73nvs+5u+vT2rV/4Q7WJP8AW6xn/gbmj/mqn+f+eFdvQBxH/CA3En+t1XP/AGzJ/wDZqtQeALFcefd3Eh/2cKP611tFAGHB4Q0WHn7J5h9ZHY/pnFalrY2tmu21tooR/sIBmrFFABRRRQAUUUUAFFFFABRRRQAUUUUAFFFFABXHeONTkmli0Szy0sxBkC9efur/AF/Kul1fUYtK02a7l5CD5V/vN2Fcv4J06S8u5tcvfmd2IiJ7k9W/oPxoA6XRNMj0nTIrRMEqMuw/iY9TV+iigAooooAgvbqOysprmX7kSFj747VyPgS1kvL681m55d2Kqfc8sf5D8an+IOoGOyh0+M/PcNucD+6On5n+VY/9pXM9pb+H9CUkBcSzLwXJ+8c9lyetAEOuXcz+NLibSnLzMRHG0fJz5YU4/Wun8NeFU00i8vSJr0888iP6ep965/Q9POlePbeyaQSNEDlgMAkxEn+dei0AFFFFABWL4l0O4123W3TUPs1v1ePyQ+85yDnIIxW1RQBgv4ba60A6XqN8bjaR5UqxBDHgYAwDzUDeF7ueexlvNZkuDZyBlDQKAQMccHOeOpzXS0UAYuoeH2m1I6jp99JYXbLsdlQOrj3U02fQbq70e6s7zVZLiS4AHmtEAEweygj+dblFAGFqXhv7fpWn2X2vy/sTq2/y879ox0zxT9b0BtSvbW9tr1rO7tgQkgjDjB9jW1RQBiz6DJcarpt/Nfb5LJCrfugPNPrwePyqOXw7Mmuy6nYak9q0+POj8oOHx9enSt6igDh/G1jHqPiPS7SEkXEwKyY/5557/rXaxRrDEkcYwiKFUegFPooAyNU0P+0NZsNQ+0eX9jJPl7M7/wAc8Vr0UUAZOg6J/YzXh+0ed9qmMv3Nu326nNVrnw1KNRnvdL1KSwkuf9coiWQN9M9DW/RQBmaTodrpemPZR7pFlyZXfq5PBzVHw54Vj0K6muDdG4Z12JuTb5a5zjqa6GigDHs9BW21rUL95/MW+UKYtmNo+uefyrOXwfPFY3Nhb6zLHYzZKw+SrbSfVjyR9MV1NFAGFL4Yim0mxtDcyJPYgeTcxjBBHt6e1T6fpupQXSy32tSXarnbGIFjH4461rUUAZPh/RP7FW6H2jzvtExl+5t257dTmtaiigAooooAKKKKACiiigAooooAK5XUbS+0nxSdZtbSS8tp49k0cXLr7gd+ldVRQBjW2oXerCeJdMubS3MLAPdKEYseANuelctBFqMPgy60ZtIvTOjH5xH8hBYHjnJ/AGvQqKAOM1Swjk0vSxdabqbSQwLiayX95G3HykGpfD9prMmn6nFdtcm3ljK2wvD+9yQevPFddRQBxmiw3dz4Wn0Gawu7a4WJwJZY8RsSeAG71Unj1K58LxeHl0e7S5QqrSsgEWA2c7s131FAHnmv6BdWGo2T6VbTtIIg0kkKEqHXvnsTU3g/UWvfFdzcXRVJpoAuOm5hjPH4Zrva5bxR4YN2x1DTP3d4h3MqnG8+o9G/nQBm6fol9d+HdbtDDJBLNdF4xKpTeAQe/Y4qtFprzx29teWviWSaIqdjyKYFYdwxHArc8LeKPtxFhqJ8u9X5QzDHmY/k3tXUUAcwlpcD4iNc+RL9n+ybfN2HbnjjPTNdPRRQAUUUUAFFFFABRRRQAUUUUAFFFFABRRRQBxH/ADVT/P8Azwrt64j/AJqp/n/nhXb0AFFFFABRRRQAUUUUAFFFFABRRRQAUUUUAFFFFABRRRQAUUUUAFFFFABRRRQAUUVkan4ksdPuDajzLm87W9uhdvx9KAKn9gXX/Ca/2x5kP2f+7uO//V7emMdfeuirI0qfWru7M19bQ2dptO2HdukJ7EnoPpTdR8TWVncm0gWW9vBx5Fum4g+56CgDZorK0mXWLid5tSghtYCv7uBW3OD6sen5VkaNqdlaafrd5Z6b5JtZW8xfPZvNIzzkj5aAOsorlpPGEsNha382kSpZz4DTecp2k+g6kfXFaOseIItOmt7aG3ku7u55ihQgZHqSelAGxRXKeIb28u/Cmoi+057KRFXAMgkDAnsRU39t/wBjaJog+z+d9qCRff27eBz0OaAOlorKuta+z+IrXSvs+77RGX83fjbjPGMc9PWqFx4kku7i8tNN02W7jtwyzTCVUCnB6A9fzoA6SiuL8J6pBo/ggXVxuKiZlVUGSzE8AVq2/iSddRt7TU9LksftXEDmVXDH0OOlAG/RWLqN1rdjePNb2kV9YnH7tG2ypxz7H+dS6V4hsNUlMEbPDdKPmt5lKOPwoA1aKxNQutbsLx5YbOO+sTghI22ypxz7H+dT6V4gsNUkMMTvFcqPmt5lKOPwoA1KKKxfFmsf2RpLGNsXE2Ui9vVvw/woA57xDcSeJPEcOkWjfuIG+dh0z/E34Dj6/Wu2treO1to4IV2xxqFUewrn/BGjmx043k6/6RdDPPVU7D8ev5V0tABRRRQAVHcXEVrA808ixxoMszHgVFqGoW2m2jXF3IERfzY+gHc15tr+s3uthrhlaKxR9saZ4z/U4/L+YA+5S68XeJJWtVPlk4DN0jQcAn+ePeu+0XRbXRrbyrdcu3+slYfM5/w9qz/BGm/YdDWV1xLdHzD/ALv8I/Ln8a6GgDiP+aqf5/54V29cR/zVT/P/ADwrt6ACiiigAooooAKKKKACiiigAooooAKKKKACiiigAooooAKKKKACiiigAooooAKKKKACiiigAooooAKKKKACiiigAooooAKKKKACiiigAooooAKKKKACiiigDm/E/hdNTzeWWIr1eeOBJj19D71X8NeKGklGmavmK7Q7Fd+Nx9G9D/P+fWVgeJ/DUWsxGaHbHeIPlfs/sf8AGgDforjfDfiWW2n/ALJ1vdHKh2JLJ1+jf0NdlQAUUUUAFFFFABRRRQAUUUUAFFFFABRRRQBxH/NVP8/88K7euI/5qp/n/nhXb0AFFFFABRRRQAUUUUAFFFFABRRRQAUUUUAFFFFABRRRQAUUUUAFFFFABRRRQBR1tLqTR7pbGRkuNhKMvX6D3I4/Gq2peHLG/uDdL5lredri3co349jWvXJa7rOpaJ4jgM05fTZiDs8teB0YZxnjr+VAGtpcGtWl2Yb65hvLTads23bID2BHQ03UPDVnd3LXcDy2V4efPt22kn3HQ1U+36t/wmHlfvf7Ixu3+SPLx5Wc78f3veq2hazqWt+I5zDOU02Ek7PLXkdFGcZ56/nQBsaTFrFvO8OpTwXUAXMc6rtcn0YdPyrDsdD1GLRtft3t8S3kjtAu9fnBzjvx+NdjRQBx+p6HqM/gS006K33Xce3dHvUYxnPOcfrVvWdHv/7UsNW05Y5Z7ZNjwO23cPY9O5rpaKAOb1OPWdY8P30E2mpbSuqiKITq5bnnLcCoNZ0O/udB0lbaJWurEo7Qs4G4gDIz07V1dFAHLCx1e78V2GpXVikEUURVwk4faeevT17A1DY6ZrOjXeowWllFdW14xdJWnCbM56jBJ6119FAHFW3hW9uPBS6dcKsF3HMZVV2BU+xKk9aTTPDzx31ux8Mw2zROrNcG/Zxx1IXP867aigDF1G11u+vHht7uKxsRj94i7pX459h/OpdK8PWGlymeNXmumHzXEzF3P41q0UAYmoWut3948UN5HY2IwA8a7pX459h/Op9K8P2GlyGaJHluWHzXEzF3P41qUUAIzKiFmIVVGST2FcFbq3i/xW0zgmwtux6FQeB9WP6Vp+OtWaG2TS7Ykz3P3wvUL6fia1vDekro+lRwEDzm+eUjux7fh0oA1AMDApaKKACs/WdZtdGtTLctlz9yMfec/wCe9VvEPiO20SHbxLdMPkiB/U+grn9F8P3eu3n9q64WMbcpGeC47cdl/nQBFY6dqHi+/wDt2os0Vip+VRwCPRf6mk1qGPU/E1nodmgS1tflKp0Hdz+Qx9a7TULqLS9LmuCoWOCPKqBgew/PArmPANk8r3erXHzSSsUVj35yx/PH60AdiiqiBVACqMADsKWiigDiP+aqf5/54V29cR/zVT/P/PCu3oAKKKKACiiigAooooAKKKKACiiigAooqrqV/DpthLdznCRjOO7HsBQBZJwMmqrapp6vsa/tg3oZlz/OuLUa14zm3Fvsung44+7/APZH9PpWknw/sBHh7u5L+o2gflj+tAHVo6SIHjZWU9CpyDTq4K50LV/DEhvNKuGngHLqF6D/AGl7j3H6V0/h3XYtcsjIFEc8ZxJHnOPQj2NAGtRRRQAUUUUAFFFFABRRRQAUUUUAFFFFABRRRQAUUUUAFFFFABRRRQAUUUUAFFFFABRRRQAUUUUAFFFFAGL4i8O2+twbuI7pB8kuOvsfb+VYeheIbjSLr+yddDIEO1JW/h9Mnuvof8jtqytf0K31u12SYSdB+7lA5X2PqKANQEEAg5B6EUtcJomt3Xh28/snWgwgBwkh52DsQe6/yrukZXQOjBlYZBByCKAFooooAKKKKACiiigAooooAKKKKAOI/wCaqf5/54V29cR/zVT/AD/zwrt6ACiiigAooooAKKKKACiiigAooooAKKKKACiiigAooooAKKKKACiobm7trRN9zPFCvrI4X+dYd5410i2yInkuGH/PNOPzOKAOioripPH0krbLPTCzdtz5P5Af1pn9t+Lb3/j307yQeh8kj9WOKAO4rH8VaV/aujSRouZ4v3kXuR2/Ef0rA8jxvL96XZ/wKIfyo/snxhJ97UNv/bbH8hQBm/8ACTP/AMIj/ZuW+058rd/0y/z8v0rsfCulf2Vo0cbrieX95L7E9vwH9a5P/hBtY8zzftFr5m7dnzGzn1+7V3+yfGEf3dQ3f9ts/wAxQB29FcR5HjeL7su/H+1Ef50n9t+LLL/j407zgOp8kn9VOKAO4orio/H0kTbLzTCrd9r4P5Ef1rTs/GukXOBK8lux7Spx+YzQB0VFQ213bXab7aeOZfWNw38qmoAKKKKACiiigAooooAKr395FYWUt1OcRxLuPv6D8asVxHi69l1jV4NCsTna48wjpu/wA5//AFUAJ4Ts5da1mfXL0ZCv+7B6bu2PZR/Su4qvp9lFp9jFawDCRLge57n8TVigArm/EvimPTM2lnia9PGByI/r6n2qr4i8VP5x03RgZblzsaVBnB9F9T79qseGfCq6cwvL/Et63IBORGf6n3oAq+HfC0klx/aet5knc71ifnB9W9/auwopGYKpZiAAMkntQBx/j+9Zxa6VB80kzB2Ud+cKPxOfyrptLsk07TYLRMYiQAkdz3P55rkPD4Ov+MbjU3BMFudyZ/JB+Qz9RXdUAFFFFAHEf81U/wA/88K7euI/5qp/n/nhXb0AFFFFABRRRQAUUUUAFFFFABRRRQAVxHjJ5NS8QWOjoxWMlS31Y9fwH867euH11hY/ECyuZeI5Nh3HoOq0AdlaW0Vnax20C7Yol2qKmoooAQ8jBrhHi/4Rzx1AtuSttdkfIOmGOMfgea7yuH8TsLzxtp1tFy0ZjD47fNuP6c0AdxRRRQAUUUUAFFFFABRRRQAUUUUAFFFFABRRRQAUUUUAFFFFABRRRQAUUUUAFFFFABRRRQAUUUUAFFFFABRRRQBn61o1rrNoYbhcMP8AVyAfMh/z2rktN1S98JX/APZ2qKz2ZPyOOdo/vL7eorvapatpdtq9m1vdJkdVcfeQ+ooAtQyxzwpLC6vG4yrKcgin1wFnd3/gzUPsl6GmsJDlWXp/vL7+o/8A113VtcQ3duk9vIskTjKsvQ0AS0UUUAFFFFABRRRQAUUUUAcR/wA1U/z/AM8K7euI/wCaqf5/54V29ABRRRQAUUUUAFFFFABRRRQAUUUUAFFFFABRRRQAUjEKpZiAAMkntWZrWv2Wixj7QxaVhlYk5Y/4CuUzrvjCTA/0Wwz7hf8AFj+n0oA3dT8Z6ZY5SFjdyjtF93/vr/DNY32/xP4i/wCPOM2ls38a/IMf7x5P4V0GleFdM00K3kieYf8ALSXnn2HQVt0AcZbeAvMfzNS1B5GPURjn/vo/4VuWXhjR7LBSzSRh/FL85/XiteigBscaRLtjRUX0UYFOoooAKKKKACiiigAooooAbJGkq7ZEV19GGRWVe+F9Hvcl7NI2P8UXyH9OK16KAOMufAXlv5mm6g8bDoJBz/30P8Kr/wBoeJ/DvF7Gbu2X+NvnGP8AeHI/Gu7ooA57TPGemX2EmY2kp7S/d/76/wAcV0CkMoZSCDyCO9Yuq+FdM1IM3ki3mP8Ay0iGOfcdDXN7td8HyYI+1WGfcr/ip/T60Ad/RWXouv2WtRk27lZVGWifhh/iK1KACiiigDL8Rasuj6VJcZBlb5IlPdj/AIdax/AuktHA+q3QJnuc7C3Xbnk/if8APNZt2zeLvFa28bE2FtnJHQqDyfqTwPwruJJILK1LyMsUES8k8BQKAJWYIpZiAoGSSeAK4nWvEV1rN1/ZWhKzK/yvKvBYd8HsvvUOoapf+Lb46fpatHZg/Ox4yPVvb0FdXomiWui23lwDdI3+slYfM3+A9qAK3hzw3b6LF5jYlu2GGlx09l9v51t0UUAFYHjXUfsGhPGjYluT5S/T+I/lx+Nb9cJrBPiHxrDYLzb2x2v+HL/4fhQBv+DtO/s/QYiy4luP3r/j0H5YrcpAABgDAFLQAUUUUAcR/wA1U/z/AM8K7euI/wCaqf5/54V29ABRRRQAUUUUAFFFFABRRRQAUUUUAFYXi7RP7X03dCv+lQZaPH8Q7r/nvW7RQBx/hrxZEIk0/ViYZ4/kEsnAOOzeh+tdaksbpvR1ZP7wORWZrPh3T9Y+e4QpMOBLHw34+tcJqPh5bPxHb6WtyzLPt/eFOVySOmeaAOy13xZZaXGyQOtzckcIhyFP+0f6daz/AAZo8zTSazqIYzyk+WHHPPVvx6D2q/pPg/TtNlWZ91zMvQygbQfUD/HNdBQAUUUUAFFFFABRRRQAUUUUAFFFFABRRRQAUUUUAFFFFABRRRQAUUUUAFFFFABRRRQAUUUUAFFFFABRRRQAUUUUAFFFFAFbULC31K0e2uow8bfmp9QexriFfUPBOpbH3T6dM3Hofp6N/OvQKgvbOC/tXt7qMSROMEH+Y96AEsb231C1S5tZBJE44I7ex9DViuAkh1DwTqPmxbp9OlbBB6H2Po3v3rtdN1G21S0W5tJNyN1HdT6EetAFqiiigAooooAKKKKAOI/5qp/n/nhXb1xH/NVP8/8APCu3oAKKKKACiiigAooooAKKKKACiiigAooooAKwPFPiNNGg8qHD3kg+ReyD+8f8K1dTvo9N0+a7l+7Eucep7D8TXI+E9Nk1nUJdc1L95h/3anoWHfHoO3/1qAJfD3hZ7qT+09czLJJ8ywyc592/w/8A1V2SqFUKoAAGAB0FLRQAUUUUAFFc34q1O8ivbDStPl8ma9b5psZKr7e9WbTQ7uyuoZotZvZ0Dfvo7lw6uMduOKANuiucl8UyyT3K6Zpct7DaEiaYSqgGOuAetPu/FVvF4bXWLaEzozhPLZthBzg5ODQB0FFc7J4pkgv7a3utJuIkux+5fzFYsfTAPH4mp9N8QPdazLpd3YSWdwieYoaQPuX8OB+tAG3RXLQ+Lru5t7ua20SSVLSQrIwuFAwO/Izn2ANUvFWpw6v4YsL23BCSXK/K3VSM5FAHbUVjalrps7yLT7O0e9vpE3iJXCAL6lj0qr/wkU17pmpJFZSRahaKRJAZQCuR94N7daAOjorkfB+s339hibUYXa0iR3N9JcBy2D029f8A9VTt4uljgjvZtImj02VgFuTKpPPQlOuPxoA6eikVg6hlOQRkGloAKRlDKVYAqRgg9DS0UAcZ4h8LSWkn9p6Huikj+ZoU7e6/4f8A6q1fC3iOPWYPKmwl5GPnXs4/vD/Ct6uH8WabJo2oRa5pv7vL/vFHQMe+PQ9//r0AdxXN+NtY/s/TfskLYuLoFeOqp3P9PzrWtdVt7jR11LcFhMe9sn7uOo/A8VwUOow3utTa5qf+phb9zD3dh91R9OpP+NAHT6Fa23hfw+bm/YRyy4eXPXPZB6n/AOvWGX1LxtqGxc2+nRNz6D6+rfypbKw1Dxjf/bdQZorFD8qjgY9F/qa7q1tobO3SC2jWOJBhVWgCHTdNtdLtFt7SPYg5J7sfUnuat0UUAFFFFAFLWL9dM0q4u2xmNPlB7t0A/Oud+H9gwt7jU5smS4YopPUgHJP4n+VRePLt7q6s9HtuXdg7AdyeFH8z+VdZYWiWNjDaxfciQKPf3oAsUUUUAFFFFAHEf81U/wA/88K7euI/5qp/n/nhXb0AFFFFABRRRQAUUUUAFFFFABRSFgoySB9ap6ikN9Yz2f2mNGnQxg5BIz7Z5oAu0VxH/Cu/+op/5L//AGVH/Cu/+op/5L//AGVAHb1xGvf8lC07/tl/6EaP+Fd/9RT/AMl//sqxL/w79j8Q22lfat/n7f3vl425JHTPt60AepUVxH/Cu/8AqKf+S/8A9lR/wrv/AKin/kv/APZUAdvRXEf8K7/6in/kv/8AZV0Xh3Rv7DsHtvtHn75TJu2bcZAGMZPpQBq0UUUAFFFFABRRRQAUUUUAFFFFABRRRQAUUUUAFFFFABRRRQAUUUUAFFFFABRRRQAUUUUAFFFFABRRRQAUUUUAFFFFAEdxBFcwPDPGskbjDKw4IrhL6xv/AAdqP22wLS2LnDKemP7rf0Nd/TJYo5omilRXjcYZWGQRQBU0jVbbV7MXFs3s6H7yH0NXq4PVNJvfCt9/aekszWhPzoedo9G9R79q6rRNattatPNgO2Rf9ZETyh/w96ANKiiigAooooA4j/mqn+f+eFdvXEf81U/z/wA8K7egAooooAKKKKACiiigAooooAKKKKACiiigDj/iLdMtnaWi/wDLZy5/4DwB/wCPfpXTaZZrYabb2qgYijCnHc9z+ea5L4g/u9Q0yVuUG7j6EE/zrt+o4oAKKKKACiiigDA8S6Lc389pf6c6LeWbZVX+649KktLrX7q6hW402GygVv3rm4EhcY/hAHH41t0UAcfbaZrWhtqFtYWUV5BeOXSUzBDHkY5B6/hTLvwveweBxpduouLoyiRgrADrzgnFdFe6zb2WqWdhKkpluyQhUDaMevNaNAHN6zpV7dahocsMO5LRwZjuUbenqeenanrpl4PHbaj5P+iG28vzNw+96Yzn9K6GigDz7w/Jqn2LV4NNsEuPOuXUyNME8skYzg9fzq9eeGL2HwrY6fbIJ547gSy4YADrnGcV0UdpY6DZ3dxbwMkZzNKFYsWOOcZNTaXqEWqafFeQK6xyjIDgA9cdiaAOc8SeGZbzV49RjtI75PLCSWrzGInHQhhU+haI0Ed6BpEemefD5YH2ppmJ5684Arp6KAOR0XSdUXQp9BvrNYoCjhbtZlbJJyPl61mQeFZ4IhbzeG4LqUcfahfsit7lc5/KvQaqX2p2envAl3N5bXD+XGNpO5vTgcfjQBPAnlwRpgDaoGB0GBUlFFABRRRQAVV1OzW/024tWAxLGVGex7H88VapDwMmgDyIarcJojaUCRE03mN78D5fpkZrc8L+FHvtl5qSslqOUiPBk/wH86z9E0F/EF1dtDOsKxMDkqT94nH8q2/+FfSN/rNUz/2xz/7NQB2Ikt4ECB4o0UYCggACmNqFkn3ry3X6yqP61yq/D2Efe1Fz9IgP61Kvw/sh968uD9AooA6BtZ0tfvajaD/tsv8AjUbeIdIXrqNv+Dg1jr4B0sfeuLs/8CUf+y1KvgXSB1Nw31kH+FAF5vFOir11CP8AAMf6VE3jDQ1/5fc/SJ/8KjXwXoo6wSN9ZWrE8YaTo+j6YgtbULczvhGMjHAHJOCceg/GgDP0zWbRvFM2rakzgZJiULuOeg/IV0reO9IHRblvpGP8aXQfC2nppFu17aJLcOu9y+eM84/AVpr4f0hemnW34xg0AYzeP9MH3ba7P1VR/wCzVG3xBtB92ynP1YCuiXSNMT7unWg+kK/4VKtjZp921gX6RgUAcm3xDjH3dNY/WYD+lM/4T+Z/9XpX/kUn/wBlrtFijT7saL9FAp9AHlv9tXT+Kv7Ujs/9IPSDBP8ABt+vTmtv/hKfEb/6vRv/ACXkP9aP+aqf5/54V29AHEf274tk+7pW3/t3YfzNH9oeM5Pu2m3/ALZKP5mu3ooA4jf44k6Lt/CEfzo+y+NpPvT7f+Bxj+VdvRQBxH9keMJPvaht/wC22P5Cj/hHPFL/AH9Yx/28yf4V29FAHEf8Ihrj/wCs1jP/AG0c0f8ACDXr/wCt1b/x1j/Wu3ooA4kfD3Jy+qE/SD/7KrmneCIrC+guhfO7QuHA8sAHH411VFABRRRQAVxGvf8AJQtO/wC2X/oRrt64jXv+Shad/wBsv/QjQB29FFFABRRRQAUUUUAFFFFABRRRQAUUUUAFFFFABRRRQAUUUUAFFFFABRRRQAUUUUAFFFFABRRRQAUUUUAFFFFABRRRQAUUUUAFFFFABRRRQAjKrqVYBlIwQRkEVw2uaHdeH7z+1tFLCJTl4xzsHfjuv8q7qkIBGCMg0AZXh/XrfW7XcmEuEH7yInke49RWtXF6/wCHZ9Muf7X0IshQ7niT+H1IHceorY8N+I4Nah2NiO7QfPH6+6+38qANyiiigDiP+aqf5/54V29cR/zVT/P/ADwrt6ACiiigAooooAKKKKACiiigAooooAKKKKAOc8d6e15ofnRrl7VvM/4D0b+h/CrfhTUl1LQ4WJzLCBFIO+QOv4jBrXZVdSrAFWGCD3FcBOk/gvX/ADokaTT7jjHqPT6jt/8AroA9AoqCzu4L61S4tpA8UgyCKnoAKKKKACuN0j7b4nu76afVLu0jt5vLjhtXCY+vHNdlWJc+FrKW8kure4vLKSU5k+yzFA/1FAGN4gt5V8S+Hrc3UhlAZTPgbieOecjNT6VPd6f4wu9Me9uLu3Fv5w+0NuYHjofxrXfw9aPdafcGScNp4xENwIb/AHsjJqVNGt0119WDy/aHi8oqSNmOO2M549aAOITV9T1SCe7Vtc+0ByIVs4swL6BvX3rV1LWtVaw0W0Znsrq/bbPKybWXBA6HoTnNa8vhWzNxJLa3V9Y+a26RLWcorH3FWLnw/YXemxWM6O0cJyjlzvU+u71oApXekyado+oMdSvLpGtnBS5ffg46g9vpXMaPqNxdxaPo6zz2FuQWaZSUMxBPyqR2rsLfw7BDFPG97fXHnxmItPNvKqf7vHFMm8K2E2k22ns84W1bdFKrASKc564x+lAGdqM93qHi2PRI7ye0tY4PMZoXxI5x/ePNN0fULyK+1rSprqS4SzjLRTOfnHHc962NR8P2uovDNJLcRXUK7VuYZNkmPcgY/SpdL0Sz0uKVYVeR5/8AWyStueT6mgDmLS/vG+Gs1013ObgFsTGQ7x8/rnNVvEUD3Nv4cmkurnfOY0bEnQ8fMP8Aa561v/8ACGacLae2W4vVgmOfKE52IfZcY/PNXL7w7ZX2m21lM0wW2x5UiNh1IGM5xj9KALun2n2G0WD7RcXG0k+ZcPvc5Pc1ZqvYWn2G0WDz57jbn95O+9z9TVigAooooAKxvFepLpuhzMDiWYGKMd8kdfwGTWleXcFjavc3MgSKMZJNcNAk/jTX/OmRo9Pt+Meg9Pqe/wD+qgDd8Cae1nofnSLh7pvM/wCA9F/qfxro6RVCKFUAKowAOwpaACiiigAooooAK4S8/wCKj8dJbj5ra0OG9CFPzfm3FdXr+oDS9HuLrPzqu2P/AHjwKxPh/p5h06W/kB8y5bCk9do/xOfyoA6uiiigAooooAKKKKAOI/5qp/n/AJ4V29cR/wA1U/z/AM8K7egAooooAKKKKACiiigAooooAKKKKACiiigCG7uYrO1kubh9kUa7mNeaX15qOqX02vQRMsVrIoUgZ8sDp9ff61ra9fT+J9Zj0jTm/wBHjb537Ejqx9h29fyrsLLTray05bGKMGELtYEfez1J+tAEGg6vFrOnJcJhZB8sqZ+63+FaVefTxz+C/EImiDPYT8Y9V7j6jt/+uu9t547m3SeFw8cihlYdxQBJRRRQAUUUUAFFFFABRRRQAUUUUAFFFFABRRRQAUUUUAFFFFABRRRQAUUUUAFFFFABRRRQAUUUUAFFFFABRRRQAUUUUAFFFFABRRRQAUUUUAFcd4l8Mywz/wBq6LmOdDveKPg59V/qK7GigDn/AAx4lj1iMQXGI71ByvQP7j/CugrlfE/hgzudS0rMV4h3MiHG8+o9G/nUnhfxQuokWV/iO9XgEjAkx/I+1AGd/wA1U/z/AM8K7euI/wCaqf5/54V29ABRRRQAUUUUAFFFFABRRRQAUUUUAFFFFABVe/soNQtHtrpA8bjkdx7j3qxRQBwEkGq+C7xprfNzp8h5z0P1/un3/wD1V1WjeIbHWUAgk2TYyYX4YfT1FajKGUqwBUjBB6GuV1nwXFM5udJf7LODkJnCk+3900AdXRXCw+Jta0N1g1qzaVBwHPDH6MOGrpNM8S6ZqeFhuBHKf+WUvyt/gfwoA1qKKKACiiigAooooAKKKKACiiigAooooAKKKydT8S6XpmVmuBJKP+WUXzN/gPxoA1qyta8Q2OjIRPJvnxxCnLH6+grmpvE2ta47QaLZtEh4Ljlh9WPC1f0XwXDCwudWf7VOTnZnKg+/940AZcdvqvjS8Wa4zbafGeAOn4f3j7//AKq7exsoNPtEtrVAkaDgevufep1UKoVQAAMADtS0AFFFFABRRRQAUUVHPMlvbyTSnbHGpZj6Ac0Acb43uJNQ1Wz0W3OSWDP/ALzcDP0GT+Ndja28dpaxW8QwkSBF+gFcZ4NhfVdevNZuB91jsz2Zv8F4/Gu4oAKKKKACiiigAooooA4j/mqn+f8AnhXb1xH/ADVT/P8Azwrt6ACiiigAooooAKKKKACiiigAooooAK5XxnrrW8Y0uyLG7nwGK9VB7D3Na3iHWY9F05pm+aV/liT1b/AVh+DdGkllbW9Ry80xLRbuvP8AF/h7UAa3hfQl0WwxIFN1LzKw7eij2FbVFFAFPVtNg1bT5LS46NyrDqrdiK5HwzqU+g6q+i6l8sbPhGJ4Vj0I9j/nvXdVz/i7QBq9l50C/wClwA7P9sf3f8P/AK9AHQUVzHgzXjf2/wBguzi6gGAW6uo/qK6egAooooAKKKKACiiigAooooAKKKKACiiigAooooAKKKKACiiigAooooAKKKKACiiigAooooAKKKKACiiigAooooAKKKKACiiigAooooAKKKKACuZ8UeFxqBN7YYjvV5IBwJMfyPvXTUUAeaeH7qeXxtbTag22fJRy/wApyIyoz78CvS6838Q2EupeObm0gYLK4BUnpkRA/wBK1/DXiaWKf+ytazHOh2JK/Bz6N/jQB2NFFFABRRRQAUUUUAFFFFABRRRQAUUUUAFFFFABRRRQAySOOaMxyoro3VWGQfwrndT8Eabd5e1LWkh/ufMn/fJ/oRXS0UAcN/YXifSedPvvPjHRBJ/7K3FKvi/WNNYJq2mZHTdtMZP48g13FIyhgQwBB6g0AcvB4901+JobiI+u0MP5/wBK0YPFWiz423yKfSRSv8xVqfRdMuP9bYW7E9/LAP5is6fwXos2dsDxE945D/XNAGmmq6c/3L+1b6TL/jUy3du/3LiJvo4Ncy/gDTj9y6uh9Sp/pUTfD63P3L+UfWMH+tAHX71xncMeuaja7t0+/cRL9XArj/8AhXi5/wCQmcf9cP8A7KpV+H1uPv38p+kYFAHSvqunJ9+/tV+sy/41Tn8VaLB96+Rj6RqW/kKy18AacPv3V0foVH9KuweC9FhxugeUjvJIf6YoAqT+PdNTiGC4lPrtCj+f9Kot4v1jUmKaTpmB03bTIR+PAFdVBoumW/8AqrC3Ujv5YJ/M1dVQoAUAAdAKAOH/ALC8T6tzqF95EZ6oZP8A2VeK1NM8E6bZ4e6LXcg/v/Kv/fI/qTXS0UAMjjSGMRxIqIvRVGAPwp9FFABRRRQAUUUUAFFFFABXL+PtR+zaSlmh/eXTYOP7o5P64/WuorhF/wCKj8d5+9a2h/DCn+rfpQB1HhzTv7L0S3t2GJCN8n+8eT+XT8K06KKACiiigAooooAKKKKAOI/5qp/n/nhXb1xH/NVP8/8APCu3oAKKKKACiiigAooooAKKKKACobu5is7WS4nbbHGNzGpqrX9jb6jaPbXSb43/ADB9R70AcXp1vN4w15767UiwgOAhPB9F/qa7wAKAAAAOAB2qDT7KDTrKO1tl2xxjA9Se5PvVigAooooAKKKKAOK8X6RLYXa67puVdWDTBex/vfQ9/wD9ddHoOrxazpy3CYWQfLImfut/hWg6LIjI6hlYYZSMgiqGkaJZaOki2kZBkOWZjk47DPoKANGiiigAooooAKKKKACiiigAooooAKKKKACiiigAooooAKKKKACiiigAooooAKKKKACiiigAooooAKKKKACiiigAooooAKKKKACiiigAooooAKKKKAOI/wCaqf5/54Vt+JPDkGtQ71xHdoPkk9fZvb+VYn/NVP8AP/PCu3oA4vw/4in0y5/sjXQyMh2pK/8AD6AnuPQ12YIIyOQayvEGg2+t2u18JcIP3coHI9j6iub0PXbrQLz+ydaDCJThJDzsHbnuv8qAO6opFZXUMpDKRkEHIIpaACiiigAooooAKKKKACiiigAooooAKKKKACiiigAooooAKKKKACiiigAooooAKKKKACiiigAooooAKKKKACiiigAooooAKKKKAMvxNqP9l6HPOpxIw8uP/eP+HJ/CszwDp32XSGu3XEl02R/ujgf1P5VneMJX1fxDZ6NA3Ckb8dmPU/gvP4mu1hiSCCOGIbUjUKo9AOBQA+iiigAooooAKKKKACiiigDiP+aqf5/54VreLtVu7JLOz09hHc3svliQjOwcc/rWT/zVT/P/ADwrb8UaJNqsVvNZyLHd2knmRF+h9j+VACW+g3tpNDNFrd9K4YGVLhw6OO4Ax8tM/wCEjuJNWv8AT7TSnuJbTGCs6qGz67sY/Wn2934iuJoo5tMgtEDDzZjcB9y99qjpn3qPSNMvLbxZq17NDtt7gL5T7gd2Mdgcj8aAJbzxBNHeiwsdOe8vVjEksYlVFjz2LHvRaeJ7SfSrq9njktzZsUmibBZW9B61k674Xkl12XUU0+PUoZ1G+BpzCysABkHOO1Pi8NPcaBf2iabFpjz7SiC4aYkrz8xzj8qAM/xPq13quj2ksulyWtu9wjRStKrbxz26ity+ls18YafG9h5l20JaO484jZgHjb0Pf86ytQ0/xDqGiWVjJpcaG1kTLi5UlwBjIHQfnWve6ZeS+MdPvkhzbQwlXfcODz2znvQBk6Dq2syeJNSjNlLOnmqHie7G22GTyM8H8PSu0mJEEhBwQp5/CuZtLDVdK8UX1zDYpdWt86kyCYIYxnrg8nqa6aZS0LqOSVIFAHn+iQ3d74YudUm13UYpoC23NyTHwMjIPX8639H1rU5/DVpdfYHvbqVihCsEyBn5iTwOlUPDHgy2Sw3a3p4+1CQ4zKSNvbhWxWj4q0zULm1tI9LUmCJv3ttHL5W9ewz6UAS6b4hludTk028097O9WPzFjModWH+8KbY+KIrjR769nt/IksmZZId+45HTnA6/SsvQdAvLPxSl7/ZgsrUwEFRc+bhj6k85/SqGvaZI/jE6dbPiDUtks6L2AOT/ACoA37rxTJa6Zpt3Jpx3X7hREJeVB6HOOfpxTl8TTLqradPpE8dwyb4UEiMZB7nOB+dN8U6TdX39lLYwb0trhWcbgu1Rj1NPutMu5PG1pqCQ5tY4CjSbhwee2c96AJdJ8RpfNfR3ds1nNY8yozhgB65H0qm/i+VLYX50if8Aswtj7T5i564zs64ptpoN1JrGvm6jMdtfpsjkDA569gc/nWPB4UntYxbz+HYL1wSPtS37RqR2JXOfyoA6XUvEf2LUrG0hs2uvtqF1ZJAD7YB4P5ijTfEMt5fXdhNpz295bpvERlDBx2+YcDtVS70e8bxBodxFbr9ntI9spVxhOOgycmp7XTLuPxtd6g8OLWSAIsm4cnjtnPagDL8Hapq9xe3kctrLcRG5Ikkkugfs/X5QD1H0rpdduriz0a6uLNN88aEoMZ/HHtWLoNhqujaveRGySa0u5zJ9oEwXYDn+Hqa6DUftf2KT+z/L+0jBQSfdPPQ/hQBw+maja39vG8vim/t9SccrI2Ig30xjH411F/rbWElrYxW7X2oTJuEcbBQcDkljwBWHquk6lrcRgk8PWdnMzDdeecpPvgKM/nUmueE5Jp7K5hhS/FvCIZIJJTGZAOhDDoaANbTfEP2s3kNxZva3lmm+SBnDAjGeGHWo9I8Q3mr2sNxb6Q4icsHc3C7Vxn8T+VVNE0V7YXbpokenGSBowPtZmZifxwBV/wAHafdaZ4fitr2LypldiV3BuCeOQcUARWniqKfQLvUpbfyntGKPB5mTuHQZx3+lU9Tv7a6OhXGoaVumuZAYh9oYeScgg8Abu3BqpqvhjUZtfmjtkH9l3kqSzncowR14zn9O9a3iPSrq81DR3tId8VrNukO4DavHqeenagCS+8RsmqPpum2El/dRrukAkEap9WNOuvEJsrCGS6sJo7ueTyo7QEFmb69Me9UpdM1TSfEV1qmm20d9FdqN8JlEbKfYnim69ouoa/YWs89tDHdQSFjamUlWQ9tw78UAX9O8QST6p/Zuoae9jdMm9FMgkVh9R3rbrktB0Q22qxT/APCOx6eI85lN60pPHYZx+ddbQAUUUUAFFFFABRRRQAUUUUAFFFFABRRRQAUUUUAFFFFABRRRQAUUUUAFFFFABRRRQAUUUUAFFFFABRRRQBxH/NVP8/8APCu3riP+aqf5/wCeFdvQAVm65ottrVr5U42yL/q5QOUP+HtWlRQBwel6te+Fb7+zNWVmtc/I452j1X1Ht2ruYpUmiWWJ1dHGVZTkEVU1fSrbV7M29yvujj7yH1FcdY3194O1H7FfhpbFzlWHTH95f6igDv6Kjt54rmBJoJFkjcZVlPBFSUAFFFFABRRRQAUUUUAFFFFABRRRQAUUUUAFFFFABRRRQAUUUUAFFFFABRRRQAUUUUAFFFFABRRRQAUUUUAFFFFABUN5cx2dpLcynCRIXP4VNXJ/EDUDFYQ6fESZLlssB12joPxOPyoAq+BraS+1K81m5GWZiqn/AGjycfQYH4121UNC08aXpFva4+ZVy59WPJ/Wr9ABRRRQAUUUUAFFFFABRRRQBxH/ADVT/P8Azwrt64j/AJqp/n/nhXb0AFFFFABRRRQAUUUUAFFFFABRRRQAVTTS7NNTfUVh/wBLddhkLE8emM4FXKKACiiigAooooAKKKKACiiigAooooAKKKKACiiigAooooAKKKKACiiigAooooAKKKKACiiigAooooAKKKKACiiigAooooAKKKKACiiigAooooAKKKKACiiigAooooAKKKKAOI/5qp/n/nhXb1xH/NVP8/8APCu3oAKKKKACqupadbapaNbXce5D0PdT6g+tWqKAOAjm1DwVqPkzbp9OlbII6H3Ho3t3ruLK8gv7VLi1kEkTjII/kfekvrK31C1e2uow8bjkHt7j0NcOyah4J1Lem6fTpm59D9fRv50AegUVW0+/t9StEubWQPG35g+hHY1ZoAKKKKACiiigAooooAKKKKACiiigAooooAKKKKACiiigAooooAKKKKACiiigAooooAKKKKACiiigAooooAK4Sw/4qPxzJdH5ra1OV9MLwv5nn866LxbqP9m6DM6tiWX91H9T1P4DNVfA2nfYtDE7jEl0fMP+7/D/AI/jQB0dFFFABRRRQAUUUUAFFFFABRRRQBxH/NVP8/8APCu3riP+aqf5/wCeFdvQAUUUUAFFFFABRRRQAUUUUAFFFFABRRRQAUUUUAFFFFABRRRQAUUUUAFFFFABRRRQAUUUUAFFFFABRRRQAUUUUAFFFFABRRRQAUUUUAFFFFABRRRQAUUUUAFFFFABRRRQAUUUUAFFFFABRRRQAUUUUAFFFFABRRRQBxH/ADVT/P8Azwrt64j/AJqp/n/nhXb0AFFFFABRRRQAVFc28N3bvBcRrJE4wyt0NS0UAcBeWl/4M1D7XZFprCQ4ZW6f7reh9D/+quy0nVLbV7Nbi1fI6Mh+8h9DVqaGOeF4pkV43GGVhkEVwuo6XfeEr/8AtHSyz2ZPzoedo/ut7ehoA72is/RdYtdZtBNbthhxJGT8yH/PetCgAooooAKKKKACiio7i4htYWmuJFjjXksxwBQBJRXI6j46gV/K0u3a5kPAdwQv4Dqf0qkNK8S+Iju1Cc2tuf4G+Uf98D+tAHU3uv6VY5E97EGH8KHc35CsK78fWynbZWcszdAXO0fkMmrFl4F0yDBuHluW7gttX8hz+tbtnptlYjFraxRe6qAfz60Acj/wkfia8/49NL2KejeSx/U8UfZfGl7/AKycwKf9tE/9B5ruKKAOI/4RXxDJ/rdZ/wDI8h/pR/whGoyf63Vs/gx/rXb0UAcR/wAK/k+9/avzf9cT/wDFUf8ACEajH/qtWx+DD+tdvRQBxH/CK+IY/wDVaz/5HkH9KT7L40sv9XOZ1H+2j/8AoXNdxRQBw/8Awkniaz/4+9L3qOreSw/UcVZtPH1sx23tnLC3QlDuH9DXX1VvNNsr4YurWKX3ZRn8+tAFey1/Sr7AgvYix/hc7W/I1pVzF74F0yfJtnltm7AHcv5Hn9ayzpfiXw781hObq3X+BfmH/fB/pQB3dFcjp3jqBn8rVLdraQHBdASv4jqP1rqre4huoVmt5FkjbkMpyDQBJRRRQAUUVX1C7SwsJ7qT7sSFsep7D8TQBxvid21zxXa6TET5cJw5HYnlj+AFdwiLHGqIAqqAAB2Fcd4Cs3uJ7vWLj5pJWKKT3JOWP8v1rs6ACiiigAooooAKKKKACiiigAooooA4j/mqn+f+eFdvXEf81U/z/wA8K7egAooooAKKKKACiiigAooooAKKKKACobu5is7WS4nbbFEu5jU1cX43uZr3U7PRbdsCQqz+5JwM+w60AQTazrXie6Nvo6PbWwPzPnB/4Ew6fQfrTx4CunG+XVR5v+4T+ua67TbCHTLCK0gHyRjGe7HuTVqgDgXPiHwnIskkhvLLocsWUfnyv8q6/RtWt9Zshc2+Rg7XRuqn0q66LIjI6hlYYIPQiuFs0fwx41WzRj9kuyAAe4bIX8m4oA7yiiigAooooAKKKKACiiigAooooAKKKKACiiigAooooAKKKKACiiigAooooAKKKKACiiigAooooAKKKKACiiigAooooAKKKKACiiigAooooAKKKKACiiigDiP+aqf5/wCeFdvXEf8ANVP8/wDPCu3oAKKKKACiiigAooooAKa6q6FHUMrDBBGQRTqKAOE1rRbvw5ef2topYQA5ePrsHoR3X+VdNoGu2+t2u+PCToP3kRPK+49RWoQCCCMg9Qa4rXfD1xpF1/a2hFkCHc8S/wAPrgd19R/kAHbUVjeHfEVvrcGOI7pB88Wf1HqK2aACiiuY8W+I2sP+JfYZa9lABZRkoD0x/tGgCx4g8VWuj5hjAnuv+eYPCf7x/pWFb6LrPieZbrVpmt7bqqYwcf7K9vqf1rU8MeFUstt7qI828b5grciM/wBW966igCjpuj2GlxhbS3VGxgyEZY/U1eoooAKKKKACiiigAooooAKKKKACiiigAooooAKKKKAKGpaNYapGVu7dWbGBIBhx9DXJXGjaz4Xma50mZri26smM8f7S9/qP0rvKKAMHw/4qtdYxDIBBdf8APMnh/wDdP9K3q5fxP4VS93XunDyrxfmKrwJD/Rvel8JeI2v/APiX3+VvYgQCwwXA65/2hQB09cf8QL5jFbaXBkyTsHZR1IzhR+J/lXXkgAknAHUmuF0MHxB4zn1FxmC2O5M/kn+P4UAdfpFium6Xb2i4/doAxHdupP55q5RRQAUUUUAFFFFABRRRQAUUUUAFFFFAHEf81U/z/wA8K7euI/5qp/n/AJ4V29ABRRRQAUUUUAFFFFABRRRQAUUUUAFcPq5Fv8RbOSXhH2YJ6c5X+ddxXNeNdGbULFby3B+02oJwOrL3A9x1/OgDpaK5zwv4ng1K3itrqUJeqNuG48z3Hv7V0dABXD+LCJ/Gelwx8uvlg47ZfP8ALmul1rXbPRoC077pSPkiXlm/wHvXO+D7CfU9Tl16/wAklj5XuehP0A4H/wBagDtaKKKACiiigAooooAKKKKACiiigAooooAKKKKACiiigAooooAKKKKACiiigAooooAKKKKACiiigAooooAKKKKACiiigAooooAKKKKACiiigAooooAKKKKAOI/5qp/n/nhXb1xH/NVP8/8APCu3oAKKKKACiiigAooooAKKKKACiiigDjfEnhqW2n/tbRN0cqHe8UfUe6/1FafhjxLFrMQhm2x3iD5k7P7j/Ct+uT8S+F2eU6npGYrtDvaNONx9V9/5/wAwDe1rUU0rSprtsEoMIp/iY9BXN+CNKa4kk1u+JklkY+UW9e7f0/OsLWvEVxrOm2tlNHtnjkJlI4DHGBx2PJzXpFlbLZ2UNsn3YkCD8BQBPRRRQAUUUUAFFFFABRSE4UmsPwnrVzrVrdS3KRI0M5jXywQCMDrkn1oA3aKp6lqtjpUQkvrlIVPTOST9AOTRp2q2OqRGSxuUmVfvY4I+oPIoAuUVjS+LdChkkjfUY90f3sKx/Igc/hWrbzx3MEc8Lbo5FDKcYyDQBJRWQLo/8JQbX+1c4i3fYfs/T/a8z+lI/ivRIxIXv0Xyn8tgVbO76YyfqOKANiiora4hu7dJ7eRZIpBlWXoRUtABRRRQAUUUUAFcb430praSPW7EmOWNh5pX17N/T8q7KoL22W8sprZ/uyoUP4igDm9Z8RpL4NW5iO2a7Hk7R/Cf4/0z+Yq74M077BoMbOuJbn9630PQfl/OuC0e1fUNSttPlfEKylmBOAo43fmFAr1lChUBCuB0AoAdRRRQAUUUUAFFFFABRRRQAUUUUAFFFFAHEf8ANVP8/wDPCu3riP8Amqn+f+eFdvQAUUUUAFFFFABRRRQAUUUUAFFFFABRRRQBzut+ELPU3M8DfZbg9WRcq31Hr71yt1a6zYaxDpA1WXdNt2lZnCgE4Ga9MriNe/5KFp3/AGy/9CNAFvS/A8MU4uNTuDdv12AELn3PU11SKqIERQqqMAAYAFOooAKKKKACiiigAooooAKKKKACiiigAooooAKKKKACiiigAooooAKKKKACiiigAooooAKKKKACiiigAooooAKKKKACiiigAooooAKKKKACiiigAooooAKKKKAOI/5qp/n/AJ4V29cR/wA1U/z/AM8K7egAooooAKKKKACiiigAooooAKKKKACiiigDgvHtpDZ6pZX0UYUykmQgcMVI5+vNd4rBlDKcgjII71heM9NbUNCcxrmW3PmqO5A6j8v5UngzVV1HRY4mYefagRuM8kD7p/L+RoA36KKKACiiigAooooARvun6VwHg3xBpmkWt7Df3PkyPcsyjy2bIwB2B9K9AooA4vV7mJfEuma7Jvl0ow/LKIyRGeeSMZHUVFYxS6rrusahpiOtpNamNHKlRK5A5Gfoa7mkYZUjOMjrQB5tFqFpB4EutLaOSO+QnzI/Kb+91JxgfjXd6D/yArH/AK4J/Ksq58M399F9mvtemms8gmIQKrHHYv1NdDDEkEKRRjaiKFUegFAHLL/yU9/+vP8Awqp4ZVW0/wASblBzNIOR7Gu3ooA53wBz4Ttv95//AEI10VFFABRRRQAUUUUAFIzBVLMcADJJ7UtYHjPVV07RZIlYefdAxoM8gH7x/L+YoA5Hw9oC+Ip7yRpmgWNgQVXOdxP+Fa7fDwfwamR9YP8A7KtjwZprafoSGRcS3B81h3APQfl/Ot6gDiP+EEu0/wBXq2P+AEf1o/4Q/Wk/1esY/wCBuK7eigDiP+Ea8Tp9zWcj0+0yf4Uf2P4vj+7qW7/tuT/MV29FAHEfY/Gsf3bjd/wND/OjPjmPqNw/7Ymu3ooA4j7d40j+9a7v+2an+VH9t+Lo/vaZu/7d2P8AI129FAHEf8JP4lT/AFmjf+S8g/rR/wAJlq6f6zSMf8BcV29FAHEf8J7cJ/rNK/8AIhH/ALLTl+Iafxaaw+k2f/Za7WmtGj/eRW+ozQB5kviCL/hLxrLQOI/+eYIJ/wBXtrpF8f6afvWt0PoFP9aoNBE3xPMTRIYz/AVGP9TnpXXNpOmv97T7U/WFf8KAMVfHeknql0v1jH+NSL420Y9ZZV+sZrRbQNJbrptr+EQFRN4Z0Zuunxfhkf1oAgXxjobdbwr9Yn/wqVfFWiN0v0/FWH9Ka3hHQ262IH0kcf1qJvBeiHpbuv0lb/GgC4viLR26ajB+LYqVda0pumpWn/f5f8ayW8DaOeguF+kn/wBaom8A6Wek92P+Br/8TQBvrqVi/wB29t2+kqn+tSrcQP8Admjb6MDXLN8P7E/dvLgfUKf6VE3w9gP3dQkH1jB/rQB2QIIyDmq+owzXGn3ENtJ5czxlUfcRtPY5HIrkT8PWU5j1TH/bDH/s1WdO8H3ljqFvcHUvMjicMUwRkD8aAK3/AAjXin/oNf8Ak1L/AIUf8I14p/6DX/k1L/hXb0UAcR/wjXin/oNf+TUv+FYl/puqweIba0uL3zL2Tb5c3msduScfMRkV6lXEa9/yULTv+2X/AKEaAD/hGvFP/Qa/8mpf8KP+Ea8U/wDQa/8AJqX/AArt6KAOI/4RrxT/ANBr/wAmpf8ACui8O2N/YWDxandfaZjKWD+Yz4XA4y3PUGtWigAooooAKKKKACiiigAooooAKKKKACiiigAooooAKKKKACiiigAooooAKKKKACiiigAooooAKKKKACiiigAooooAKKKKACiiigAooooAKKKKACiiigDiP+aqf5/54V29cR/zVT/P/PCu3oAKKKKACiiigAooooAKKKKACiiigAooooAK4LV7O58Ka0NT05M2chwydhnqp9vSu9qOeGO4geGZA8bjDKw4IoAr6Vqdtq1mtzavkH7ynqh9DVyuFvtD1Lw1eG/0Rnltz96PG4qPQjuPfr/OtnQ/F1lqe2GfFtcn+Fj8rfQ/0P60AdDRRRQAUUUUAFFFFABRRRQAUUUUAFFFFABRRRQAUUUUAFFFc7rni+y0zdDb4ubkcbVPyr9T/QfpQBrarqdtpNm1zdPgD7qjq59BXHaPZXPivWjqmopizjOFTscdFHt60+w0PUvEl4L/AFtnigH3Y8bSw9AOw9+v867aCGO3hSGFAkaDCqo4AoAkooooAKKKKACiiigAooooAKKKKACiiigAooooA4j/AJqp/n/nhXb1xH/NVP8AP/PCu3oAKKKKACiiigAooooAKKKKACiiigAooooAK4jXv+Shad/2y/8AQjXaSypDE8srBEQFmY9ABXmWq6xNfa6dYtoD5Nq6KhK8YBJG7680AeoUVT0rUYdVsI7u3PyuOVPVT3Bq5QAUUUUAFFFFABRRRQAUUUUAFFFFABRRRQAUUUUAFFFFABRRRQAUUUUAFFFFABRRRQAUUUUAFFFFABRRRQAUUUUAFFFFABRRRQAUUUUAFFFFABRRRQAUUUUAcR/zVT/P/PCu3riP+aqf5/54V29ABRRRQAUUUUAFFFFABRRRQAUUUUAFFFFABRRRQAVga54TstV3SxAW1yed6Dhj7j+tb9FAHBi48T+GgFmT7XaJ35dQPr1H41saZ41028wlyTaSns/K/wDfX+OK6SsfU/DGl6llpLcRSn/lpD8p/wAD+IoA1YpY50DwyJIh6MjAin1xMvge8tHMulamUbsGyh/Mf4Uz7d4v0ji4tzdxjuUEnH1Xn86AO5orio/HzxtsvNMZW77XwfyI/rV+Dx1pMmPMW4hP+0gI/QmgDpqKxk8WaI/S/UfVGH9KlXxHo79NRg/FsfzoA1KKof25pOM/2laf9/l/xqJvEejp11GD8Gz/ACoA1KKxn8WaInW/U/RGP9KpT+OtJj/1a3Ex/wBlAB+pFAHTUVxUnj55G2WemFm7bnyfyA/rUf27xfq/EFubSM9wgj4+rc/lQB20s0cCF5pEjQdWdgBXPan4102zylsTdyj+5wv/AH1/hms2LwPeXbiXVdTLt3C5c/m3+Fb+meGNL03DRW4llH/LSb5j/gPwFAHNNP4n8TDbEn2S0fvyikfXqfwrd0PwnZaVtlkAubkc+Y44U+w/rW/RQAUUUUAFFFFABRRRQAUUUUAFFFFABRRRQAUUUUAFFFFAHEf81U/z/wA8K7euI/5qp/n/AJ4V29ABRRRQAUUUUAFFFFABRRRQAUUUUAFFFc94v1/+yrT7PbN/pk4wuOqD+99fSgDK8V6pNq1+mhaWd+WxMR0J9M+g6n/61dHp+h2llox04oHSRcSkj75PU/4elZ/hDQP7LtftV0n+mzjnPVF9Pr610dAHn1pLP4M8QNbzlnsZ/wCLHUdm+o7/AP6q79HWRFdGDKwyCOhFZ2v6PFrWnNbvhZF+aKTH3W/w9a57wdrEtndNoeo5R0YrEW7H+7/h/wDqoA7SiiigAooooAKKKKACiiigAooooAKKKKACiiigAooooAKKKKACiiigAooooAKKKKACiiigAooooAKKKKACiiigAooooAKKKKACiiigAooooAKKKKACiiigDiP+aqf5/wCeFdvXEf8ANVP8/wDPCu3oAKKKKACiiigAooooAKKKKACiiigAooooAKKKKACiiigAooooAKKKKAGSRRyrtkRXX0YZFUJ/D+k3GfM0+3ye6ptP6YrSooAwX8GaI3S1ZfpK39TULeBtHboJ1+kn+IrpKKAOX/4QLSs5867+m9f/AImpF8D6OvUTt9ZP8BXSUUAYK+DdDXras31lb+hq5B4f0m3x5en2+R3ZNx/XNaVFADI444l2xoqL6KMCn0UUAFFFFABRRRQAUUUUAFFFFABRRRQAUUUUAFFFFABRRRQAUUUUAFFFFAHEf81U/wA/88K7euI/5qp/n/nhXb0AFFFFABRRRQAUUUUAFFFFABRRTJZEhiaWVgiIMsx6AUAVNY1ODSNPe6nPThF7s3YVy/hbS5tY1F9d1QbwWzCp6Ejv9B2/+tVc+f408QYG9NNtj9OP/ij+gru4okgiSKJAkaAKqjoAKAH0UUUAFcv400E3sH9o2YIuoBlgvV1H9R/ntXUUUAYPhLXhrFj5cx/0uEAP/tD+9W9XCeJNOm8PatHrWmjbCz/Og6KT1B/2T/ntXX6VqMOq2Ed1AflYcqeqnuDQBcooooAKKKKACiiigAooooAKKKKACiiigAooooAKKKKACiiigAooooAKKKKACiiigAooooAKKKKACiiigAooooAKKKKACiiigAooooAKKKKACiiigDiP+aqf5/54V29cPdH7L8TopZPuy7dv4x7P513FABRRRQAUUUUAFFFFABRRRQAUUUUAFFFFABRRRQAUUUUAFFFFABRRRQAUUUUAFFFFABRRRQAUUUUAFFFFABRRRQAUUUUAFFFFABRRRQAUUUUAFFFFABRRRQAUUUUAFFFFABRRRQBxH/NVP8/88K7euHtT9q+J0ssf3Yt278I9n867igAooooAKKKKACiiigAooooAKp6rp8eqafJaSu6LIPvIcEH+v0q5RQBR0fS4NI09LWAZxy793buavVxWlXWv6xNqRh1kW62szIiNbIwIycc446e9aGg+JnudBkvL+Fmkgl8lhbpuMh4xgfjQB0tFYtj4ntLu/Sykt7yzuJBmNLqHZv8Apyasafrlrf3F5AqyxSWTYlWUAfiME8cUAaVFcrrHiZ5vCk2p6SZYCkwjV5EU7ucEgcjFVL/Udd0Oxs9Sn1OO+hnKh4Gt1QjIzwR1oA7C5giureSCdA8ci7WU9xWb4f0CHQ4pVjmklaVskseAO3HTPvS3+vxWMwi+w39y+wORbQbwoPqc1Vvtcg1LwpqF3p00iPFGwPVHjb+hoA6CisvwvLJP4csZZpHkkaIFndiST7k1qUAFFFFABRRRQAUUUUAFFFFABRRRQAUUUUAFFFFABRRRQAUUUUAFFFFABRRRQAUUUUAFFFFABRRRQAUUUUAFFFFABRRRQAUUUUAFFFFABRRRQBzfjDQJNUhjurMf6ZB0GcF164z6g9PxrNsPHElov2bV7SXzoztZkGG/FT3rtqhuLS2uRi4t4ph6SIG/nQBzn/CfaV/z73n/AHwv/wAVR/wn2lf8+95/3wv/AMVW3/Yulf8AQMs/+/C/4Uf2LpX/AEDLP/vwv+FAGJ/wn2lf8+95/wB8L/8AFUf8J9pX/Pvef98L/wDFVt/2LpX/AEDLP/vwv+FH9i6V/wBAyz/78L/hQBif8J9pX/Pvef8AfC//ABVH/CfaV/z73n/fC/8AxVbf9i6V/wBAyz/78L/hR/Yulf8AQMs/+/C/4UAYn/CfaV/z73n/AHwv/wAVR/wn2lf8+95/3wv/AMVW3/Yulf8AQMs/+/C/4Uf2LpX/AEDLP/vwv+FAGJ/wn2lf8+95/wB8L/8AFUf8J9pX/Pvef98L/wDFVt/2LpX/AEDLP/vwv+FH9i6V/wBAyz/78L/hQBif8J9pX/Pvef8AfC//ABVH/CfaV/z73n/fC/8AxVbf9i6V/wBAyz/78L/hR/Yulf8AQMs/+/C/4UAYn/CfaV/z73n/AHwv/wAVR/wn2lf8+95/3wv/AMVW3/Yulf8AQMs/+/C/4Uf2LpX/AEDLP/vwv+FAGJ/wn2lf8+95/wB8L/8AFUf8J9pX/Pvef98L/wDFVt/2LpX/AEDLP/vwv+FH9i6V/wBAyz/78L/hQBif8J9pX/Pvef8AfC//ABVH/CfaV/z73n/fC/8AxVbf9i6V/wBAyz/78L/hR/Yulf8AQMs/+/C/4UAYn/CfaV/z73n/AHwv/wAVR/wn2lf8+95/3wv/AMVW3/Yulf8AQMs/+/C/4Uf2LpX/AEDLP/vwv+FAGJ/wn2lf8+95/wB8L/8AFUf8J9pX/Pvef98L/wDFVt/2LpX/AEDLP/vwv+FH9i6V/wBAyz/78L/hQBif8J9pX/Pvef8AfC//ABVH/CfaV/z73n/fC/8AxVbf9i6V/wBAyz/78L/hR/Yulf8AQMs/+/C/4UAYn/CfaV/z73n/AHwv/wAVR/wn2lf8+95/3wv/AMVW3/Yulf8AQMs/+/C/4Uf2LpX/AEDLP/vwv+FAGJ/wn2lf8+95/wB8L/8AFUf8J9pX/Pvef98L/wDFVt/2LpX/AEDLP/vwv+FH9i6V/wBAyz/78L/hQBif8J9pX/Pvef8AfC//ABVH/CfaV/z73n/fC/8AxVbf9i6V/wBAyz/78L/hR/Yulf8AQMs/+/C/4UAYn/CfaV/z73n/AHwv/wAVR/wn2lf8+95/3wv/AMVW3/Yulf8AQMs/+/C/4Uf2LpX/AEDLP/vwv+FAGJ/wn2lf8+95/wB8L/8AFUf8J9pX/Pvef98L/wDFVt/2LpX/AEDLP/vwv+FH9i6V/wBAyz/78L/hQBif8J9pX/Pvef8AfC//ABVH/CfaV/z73n/fC/8AxVbf9i6V/wBAyz/78L/hR/Yulf8AQMs/+/C/4UAYn/CfaV/z73n/AHwv/wAVR/wn2lf8+95/3wv/AMVW3/Yulf8AQMs/+/C/4Uf2LpX/AEDLP/vwv+FAGJ/wn2lf8+95/wB8L/8AFUf8J9pX/Pvef98L/wDFVt/2LpX/AEDLP/vwv+FH9i6V/wBAyz/78L/hQBif8J9pX/Pvef8AfC//ABVH/CfaV/z73n/fC/8AxVbf9i6V/wBAyz/78L/hR/Yulf8AQMs/+/C/4UAYn/CfaV/z73n/AHwv/wAVR/wn2lf8+95/3wv/AMVW3/Yulf8AQMs/+/C/4Uf2LpX/AEDLP/vwv+FAGJ/wn2lf8+95/wB8L/8AFUf8J9pX/Pvef98L/wDFVt/2LpX/AEDLP/vwv+FH9i6V/wBAyz/78L/hQBif8J9pX/Pvef8AfC//ABVH/CfaV/z73n/fC/8AxVbf9i6V/wBAyz/78L/hR/Yulf8AQMs/+/C/4UAYn/CfaV/z73n/AHwv/wAVVK/8cSXa/ZtItJRNIdqs/Lfgo711H9i6V/0DLP8A78L/AIVYgtLe2GLe3iiHpGgX+VAGF4Q0B9Khe6vAPtk/XnJReuM+pPX8K6OiigAooooAKKKKACiiigAooooAKKKKAOF0Dw5Nd3OqG8m1KyRrhtqRuYllUk8nI5rZ1izu9I8OC38OQsrIw3BBufb3Iz1NdDRQB5/b2d7N4l0m68jWZI1Y+Y9+v3PoB90fWn+Mo7nTNc8+x66pCbdwP73Az/Ku9rOvNFtr3VrbUJ3lMlqP3ceRsz64xnP49qAMXxHpElv4GTTrOGSaSPyxtjQsSc8nAqfTfCtr5dpPfXF9dPGqssN1NuSNsdlxx9K6SigDkdek1c68YmGpjTig8s6ao3Fv9pj0qho+nXsXhnxBDJaXQklZvLWVCXfj/wAePuK72igDL8LxSQeHLGKaN45FiAZHUgg+4NalFFABRRRQAUUUUAFFFFABRRRQAUUUUAFFFFABRRRQAUUUUAFFFFABRRRQAUUUUAFFFFABRRRQAUUUUAFFFFABRRRQAUUUUAFFFFABRRRQAUUUUAFFFFABRRRQAUUUUAFFFFABRRRQAUUUUAFFFFABRRRQAUUUUAFFFFABRRRQAUUUUAFFFFABRRRQAUUUUAFFFFABRRRQAUUUUAFFFFABRRRQAUUUUAFFFFABRRRQAUUUUAFFFFABRRRQAUUUUAFFFFABRRRQAUUUUAFFFFABRRRQAUUUUAFFFFABRRRQAUUUUAFFFFABRRRQAUUUUAFFFFABRRRQAUUUUAFFFFABRRRQAUUUUAFFFFABRRRQAUUUUAFFFFABRRRQAUUUUAFFFFABRRRQAUUUUAFFFFABRRRQAUUUUAFFFFABRRRQAUUUUAFFFFABRRRQAUUUUAFFFFABRRRQAUUUUAFFFFABRRRQAUUUUAFFFFABRRRQAUUUUAFFFFABRRRQAUUUUAFFFFABRRRQAUUUUAFFFFABRRRQAUUUUAFFFFABRRRQAUUUUAFFFFABRRRQAUUUUAFFFFABRRRQAUUUUAFFFFABRRRQAUUUUAFFFFABRRRQAUUUUAFFFFABRRRQAUUUUAFFFFAH/9k=;" vertex="1" parent="1">
          <mxGeometry x="-150" y="207.5" width="994.32" height="777.5" as="geometry" />
        </mxCell>
      </root>
    </mxGraphModel>
  </diagram>
</mxfile>
